%TF.GenerationSoftware,KiCad,Pcbnew,5.1.10*%
%TF.CreationDate,2021-10-27T21:54:33+02:00*%
%TF.ProjectId,JeanCloud_pcb_regular,4a65616e-436c-46f7-9564-5f7063625f72,rev?*%
%TF.SameCoordinates,Original*%
%TF.FileFunction,Other,Fab,Top*%
%FSLAX46Y46*%
G04 Gerber Fmt 4.6, Leading zero omitted, Abs format (unit mm)*
G04 Created by KiCad (PCBNEW 5.1.10) date 2021-10-27 21:54:33*
%MOMM*%
%LPD*%
G01*
G04 APERTURE LIST*
%ADD10C,0.100000*%
%ADD11C,0.150000*%
%ADD12C,0.080000*%
G04 APERTURE END LIST*
D10*
%TO.C,J1*%
X103715000Y-55365000D02*
X98625000Y-55365000D01*
X98065000Y-47505000D02*
X98065000Y-54805000D01*
X98625000Y-55365000D02*
X98065000Y-54805000D01*
X103715000Y-55365000D02*
X103715000Y-47505000D01*
X103715000Y-47505000D02*
X98065000Y-47505000D01*
%TO.C,J2*%
X54610000Y-69850000D02*
X54610000Y-67945000D01*
X54610000Y-67945000D02*
X64770000Y-67945000D01*
X64770000Y-67945000D02*
X64770000Y-70485000D01*
X64770000Y-70485000D02*
X55245000Y-70485000D01*
X55245000Y-70485000D02*
X54610000Y-69850000D01*
%TO.C,J3*%
X64135000Y-27940000D02*
X66040000Y-27940000D01*
X66040000Y-27940000D02*
X66040000Y-35560000D01*
X66040000Y-35560000D02*
X63500000Y-35560000D01*
X63500000Y-35560000D02*
X63500000Y-28575000D01*
X63500000Y-28575000D02*
X64135000Y-27940000D01*
%TO.C,J4*%
X78740000Y-67945000D02*
X80645000Y-67945000D01*
X80645000Y-67945000D02*
X80645000Y-73025000D01*
X80645000Y-73025000D02*
X78105000Y-73025000D01*
X78105000Y-73025000D02*
X78105000Y-68580000D01*
X78105000Y-68580000D02*
X78740000Y-67945000D01*
%TO.C,J5*%
X83820000Y-31115000D02*
X83185000Y-30480000D01*
X88265000Y-31115000D02*
X83820000Y-31115000D01*
X88265000Y-28575000D02*
X88265000Y-31115000D01*
X83185000Y-28575000D02*
X88265000Y-28575000D01*
X83185000Y-30480000D02*
X83185000Y-28575000D01*
%TO.C,J6*%
X83185000Y-34925000D02*
X83185000Y-33020000D01*
X83185000Y-33020000D02*
X88265000Y-33020000D01*
X88265000Y-33020000D02*
X88265000Y-35560000D01*
X88265000Y-35560000D02*
X83820000Y-35560000D01*
X83820000Y-35560000D02*
X83185000Y-34925000D01*
%TO.C,C1*%
X56731500Y-32878972D02*
X57361500Y-32878972D01*
X57046500Y-33193972D02*
X57046500Y-32563972D01*
X61570000Y-30500000D02*
G75*
G03*
X61570000Y-30500000I-3150000J0D01*
G01*
%TO.C,R1*%
X57420000Y-34935000D02*
X59420000Y-34935000D01*
X57420000Y-36185000D02*
X57420000Y-34935000D01*
X59420000Y-36185000D02*
X57420000Y-36185000D01*
X59420000Y-34935000D02*
X59420000Y-36185000D01*
%TD*%
%TO.C, *%
D11*
X83075238Y-73232380D02*
X83075238Y-72232380D01*
X83408571Y-72946666D01*
X83741904Y-72232380D01*
X83741904Y-73232380D01*
X84360952Y-73232380D02*
X84265714Y-73184761D01*
X84218095Y-73137142D01*
X84170476Y-73041904D01*
X84170476Y-72756190D01*
X84218095Y-72660952D01*
X84265714Y-72613333D01*
X84360952Y-72565714D01*
X84503809Y-72565714D01*
X84599047Y-72613333D01*
X84646666Y-72660952D01*
X84694285Y-72756190D01*
X84694285Y-73041904D01*
X84646666Y-73137142D01*
X84599047Y-73184761D01*
X84503809Y-73232380D01*
X84360952Y-73232380D01*
X85551428Y-72565714D02*
X85551428Y-73232380D01*
X85122857Y-72565714D02*
X85122857Y-73089523D01*
X85170476Y-73184761D01*
X85265714Y-73232380D01*
X85408571Y-73232380D01*
X85503809Y-73184761D01*
X85551428Y-73137142D01*
X86027619Y-72565714D02*
X86027619Y-73232380D01*
X86027619Y-72660952D02*
X86075238Y-72613333D01*
X86170476Y-72565714D01*
X86313333Y-72565714D01*
X86408571Y-72613333D01*
X86456190Y-72708571D01*
X86456190Y-73232380D01*
X86789523Y-72565714D02*
X87170476Y-72565714D01*
X86932380Y-72232380D02*
X86932380Y-73089523D01*
X86980000Y-73184761D01*
X87075238Y-73232380D01*
X87170476Y-73232380D01*
X87503809Y-73232380D02*
X87503809Y-72565714D01*
X87503809Y-72232380D02*
X87456190Y-72280000D01*
X87503809Y-72327619D01*
X87551428Y-72280000D01*
X87503809Y-72232380D01*
X87503809Y-72327619D01*
X87979999Y-72565714D02*
X87979999Y-73232380D01*
X87979999Y-72660952D02*
X88027619Y-72613333D01*
X88122857Y-72565714D01*
X88265714Y-72565714D01*
X88360952Y-72613333D01*
X88408571Y-72708571D01*
X88408571Y-73232380D01*
X89313333Y-72565714D02*
X89313333Y-73375238D01*
X89265714Y-73470476D01*
X89218095Y-73518095D01*
X89122857Y-73565714D01*
X88979999Y-73565714D01*
X88884761Y-73518095D01*
X89313333Y-73184761D02*
X89218095Y-73232380D01*
X89027619Y-73232380D01*
X88932380Y-73184761D01*
X88884761Y-73137142D01*
X88837142Y-73041904D01*
X88837142Y-72756190D01*
X88884761Y-72660952D01*
X88932380Y-72613333D01*
X89027619Y-72565714D01*
X89218095Y-72565714D01*
X89313333Y-72613333D01*
X89789523Y-73232380D02*
X89789523Y-72232380D01*
X89789523Y-72708571D02*
X90360952Y-72708571D01*
X90360952Y-73232380D02*
X90360952Y-72232380D01*
X90979999Y-73232380D02*
X90884761Y-73184761D01*
X90837142Y-73137142D01*
X90789523Y-73041904D01*
X90789523Y-72756190D01*
X90837142Y-72660952D01*
X90884761Y-72613333D01*
X90979999Y-72565714D01*
X91122857Y-72565714D01*
X91218095Y-72613333D01*
X91265714Y-72660952D01*
X91313333Y-72756190D01*
X91313333Y-73041904D01*
X91265714Y-73137142D01*
X91218095Y-73184761D01*
X91122857Y-73232380D01*
X90979999Y-73232380D01*
X91884761Y-73232380D02*
X91789523Y-73184761D01*
X91741904Y-73089523D01*
X91741904Y-72232380D01*
X92646666Y-73184761D02*
X92551428Y-73232380D01*
X92360952Y-73232380D01*
X92265714Y-73184761D01*
X92218095Y-73089523D01*
X92218095Y-72708571D01*
X92265714Y-72613333D01*
X92360952Y-72565714D01*
X92551428Y-72565714D01*
X92646666Y-72613333D01*
X92694285Y-72708571D01*
X92694285Y-72803809D01*
X92218095Y-72899047D01*
X92884761Y-73327619D02*
X93646666Y-73327619D01*
X93789523Y-72232380D02*
X94408571Y-72232380D01*
X94075238Y-72613333D01*
X94218095Y-72613333D01*
X94313333Y-72660952D01*
X94360952Y-72708571D01*
X94408571Y-72803809D01*
X94408571Y-73041904D01*
X94360952Y-73137142D01*
X94313333Y-73184761D01*
X94218095Y-73232380D01*
X93932380Y-73232380D01*
X93837142Y-73184761D01*
X93789523Y-73137142D01*
X94837142Y-73137142D02*
X94884761Y-73184761D01*
X94837142Y-73232380D01*
X94789523Y-73184761D01*
X94837142Y-73137142D01*
X94837142Y-73232380D01*
X95265714Y-72327619D02*
X95313333Y-72280000D01*
X95408571Y-72232380D01*
X95646666Y-72232380D01*
X95741904Y-72280000D01*
X95789523Y-72327619D01*
X95837142Y-72422857D01*
X95837142Y-72518095D01*
X95789523Y-72660952D01*
X95218095Y-73232380D01*
X95837142Y-73232380D01*
X96265714Y-73232380D02*
X96265714Y-72565714D01*
X96265714Y-72660952D02*
X96313333Y-72613333D01*
X96408571Y-72565714D01*
X96551428Y-72565714D01*
X96646666Y-72613333D01*
X96694285Y-72708571D01*
X96694285Y-73232380D01*
X96694285Y-72708571D02*
X96741904Y-72613333D01*
X96837142Y-72565714D01*
X96979999Y-72565714D01*
X97075238Y-72613333D01*
X97122857Y-72708571D01*
X97122857Y-73232380D01*
X97599047Y-73232380D02*
X97599047Y-72565714D01*
X97599047Y-72660952D02*
X97646666Y-72613333D01*
X97741904Y-72565714D01*
X97884761Y-72565714D01*
X97979999Y-72613333D01*
X98027619Y-72708571D01*
X98027619Y-73232380D01*
X98027619Y-72708571D02*
X98075238Y-72613333D01*
X98170476Y-72565714D01*
X98313333Y-72565714D01*
X98408571Y-72613333D01*
X98456190Y-72708571D01*
X98456190Y-73232380D01*
X98694285Y-73327619D02*
X99456190Y-73327619D01*
X99694285Y-73232380D02*
X99694285Y-72232380D01*
X100027619Y-72946666D01*
X100360952Y-72232380D01*
X100360952Y-73232380D01*
X100741904Y-72232380D02*
X101360952Y-72232380D01*
X101027619Y-72613333D01*
X101170476Y-72613333D01*
X101265714Y-72660952D01*
X101313333Y-72708571D01*
X101360952Y-72803809D01*
X101360952Y-73041904D01*
X101313333Y-73137142D01*
X101265714Y-73184761D01*
X101170476Y-73232380D01*
X100884761Y-73232380D01*
X100789523Y-73184761D01*
X100741904Y-73137142D01*
X101551428Y-73327619D02*
X102313333Y-73327619D01*
X102551428Y-73232380D02*
X102551428Y-72232380D01*
X102932380Y-72232380D01*
X103027619Y-72280000D01*
X103075238Y-72327619D01*
X103122857Y-72422857D01*
X103122857Y-72565714D01*
X103075238Y-72660952D01*
X103027619Y-72708571D01*
X102932380Y-72756190D01*
X102551428Y-72756190D01*
X103979999Y-73232380D02*
X103979999Y-72708571D01*
X103932380Y-72613333D01*
X103837142Y-72565714D01*
X103646666Y-72565714D01*
X103551428Y-72613333D01*
X103979999Y-73184761D02*
X103884761Y-73232380D01*
X103646666Y-73232380D01*
X103551428Y-73184761D01*
X103503809Y-73089523D01*
X103503809Y-72994285D01*
X103551428Y-72899047D01*
X103646666Y-72851428D01*
X103884761Y-72851428D01*
X103979999Y-72803809D01*
X104884761Y-73232380D02*
X104884761Y-72232380D01*
X104884761Y-73184761D02*
X104789523Y-73232380D01*
X104599047Y-73232380D01*
X104503809Y-73184761D01*
X104456190Y-73137142D01*
X104408571Y-73041904D01*
X104408571Y-72756190D01*
X104456190Y-72660952D01*
X104503809Y-72613333D01*
X104599047Y-72565714D01*
X104789523Y-72565714D01*
X104884761Y-72613333D01*
X38625238Y-36402380D02*
X38625238Y-35402380D01*
X38958571Y-36116666D01*
X39291904Y-35402380D01*
X39291904Y-36402380D01*
X39910952Y-36402380D02*
X39815714Y-36354761D01*
X39768095Y-36307142D01*
X39720476Y-36211904D01*
X39720476Y-35926190D01*
X39768095Y-35830952D01*
X39815714Y-35783333D01*
X39910952Y-35735714D01*
X40053809Y-35735714D01*
X40149047Y-35783333D01*
X40196666Y-35830952D01*
X40244285Y-35926190D01*
X40244285Y-36211904D01*
X40196666Y-36307142D01*
X40149047Y-36354761D01*
X40053809Y-36402380D01*
X39910952Y-36402380D01*
X41101428Y-35735714D02*
X41101428Y-36402380D01*
X40672857Y-35735714D02*
X40672857Y-36259523D01*
X40720476Y-36354761D01*
X40815714Y-36402380D01*
X40958571Y-36402380D01*
X41053809Y-36354761D01*
X41101428Y-36307142D01*
X41577619Y-35735714D02*
X41577619Y-36402380D01*
X41577619Y-35830952D02*
X41625238Y-35783333D01*
X41720476Y-35735714D01*
X41863333Y-35735714D01*
X41958571Y-35783333D01*
X42006190Y-35878571D01*
X42006190Y-36402380D01*
X42339523Y-35735714D02*
X42720476Y-35735714D01*
X42482380Y-35402380D02*
X42482380Y-36259523D01*
X42530000Y-36354761D01*
X42625238Y-36402380D01*
X42720476Y-36402380D01*
X43053809Y-36402380D02*
X43053809Y-35735714D01*
X43053809Y-35402380D02*
X43006190Y-35450000D01*
X43053809Y-35497619D01*
X43101428Y-35450000D01*
X43053809Y-35402380D01*
X43053809Y-35497619D01*
X43530000Y-35735714D02*
X43530000Y-36402380D01*
X43530000Y-35830952D02*
X43577619Y-35783333D01*
X43672857Y-35735714D01*
X43815714Y-35735714D01*
X43910952Y-35783333D01*
X43958571Y-35878571D01*
X43958571Y-36402380D01*
X44863333Y-35735714D02*
X44863333Y-36545238D01*
X44815714Y-36640476D01*
X44768095Y-36688095D01*
X44672857Y-36735714D01*
X44530000Y-36735714D01*
X44434761Y-36688095D01*
X44863333Y-36354761D02*
X44768095Y-36402380D01*
X44577619Y-36402380D01*
X44482380Y-36354761D01*
X44434761Y-36307142D01*
X44387142Y-36211904D01*
X44387142Y-35926190D01*
X44434761Y-35830952D01*
X44482380Y-35783333D01*
X44577619Y-35735714D01*
X44768095Y-35735714D01*
X44863333Y-35783333D01*
X45339523Y-36402380D02*
X45339523Y-35402380D01*
X45339523Y-35878571D02*
X45910952Y-35878571D01*
X45910952Y-36402380D02*
X45910952Y-35402380D01*
X46530000Y-36402380D02*
X46434761Y-36354761D01*
X46387142Y-36307142D01*
X46339523Y-36211904D01*
X46339523Y-35926190D01*
X46387142Y-35830952D01*
X46434761Y-35783333D01*
X46530000Y-35735714D01*
X46672857Y-35735714D01*
X46768095Y-35783333D01*
X46815714Y-35830952D01*
X46863333Y-35926190D01*
X46863333Y-36211904D01*
X46815714Y-36307142D01*
X46768095Y-36354761D01*
X46672857Y-36402380D01*
X46530000Y-36402380D01*
X47434761Y-36402380D02*
X47339523Y-36354761D01*
X47291904Y-36259523D01*
X47291904Y-35402380D01*
X48196666Y-36354761D02*
X48101428Y-36402380D01*
X47910952Y-36402380D01*
X47815714Y-36354761D01*
X47768095Y-36259523D01*
X47768095Y-35878571D01*
X47815714Y-35783333D01*
X47910952Y-35735714D01*
X48101428Y-35735714D01*
X48196666Y-35783333D01*
X48244285Y-35878571D01*
X48244285Y-35973809D01*
X47768095Y-36069047D01*
X48434761Y-36497619D02*
X49196666Y-36497619D01*
X49339523Y-35402380D02*
X49958571Y-35402380D01*
X49625238Y-35783333D01*
X49768095Y-35783333D01*
X49863333Y-35830952D01*
X49910952Y-35878571D01*
X49958571Y-35973809D01*
X49958571Y-36211904D01*
X49910952Y-36307142D01*
X49863333Y-36354761D01*
X49768095Y-36402380D01*
X49482380Y-36402380D01*
X49387142Y-36354761D01*
X49339523Y-36307142D01*
X50387142Y-36307142D02*
X50434761Y-36354761D01*
X50387142Y-36402380D01*
X50339523Y-36354761D01*
X50387142Y-36307142D01*
X50387142Y-36402380D01*
X50815714Y-35497619D02*
X50863333Y-35450000D01*
X50958571Y-35402380D01*
X51196666Y-35402380D01*
X51291904Y-35450000D01*
X51339523Y-35497619D01*
X51387142Y-35592857D01*
X51387142Y-35688095D01*
X51339523Y-35830952D01*
X50768095Y-36402380D01*
X51387142Y-36402380D01*
X51815714Y-36402380D02*
X51815714Y-35735714D01*
X51815714Y-35830952D02*
X51863333Y-35783333D01*
X51958571Y-35735714D01*
X52101428Y-35735714D01*
X52196666Y-35783333D01*
X52244285Y-35878571D01*
X52244285Y-36402380D01*
X52244285Y-35878571D02*
X52291904Y-35783333D01*
X52387142Y-35735714D01*
X52529999Y-35735714D01*
X52625238Y-35783333D01*
X52672857Y-35878571D01*
X52672857Y-36402380D01*
X53149047Y-36402380D02*
X53149047Y-35735714D01*
X53149047Y-35830952D02*
X53196666Y-35783333D01*
X53291904Y-35735714D01*
X53434761Y-35735714D01*
X53530000Y-35783333D01*
X53577619Y-35878571D01*
X53577619Y-36402380D01*
X53577619Y-35878571D02*
X53625238Y-35783333D01*
X53720476Y-35735714D01*
X53863333Y-35735714D01*
X53958571Y-35783333D01*
X54006190Y-35878571D01*
X54006190Y-36402380D01*
X54244285Y-36497619D02*
X55006190Y-36497619D01*
X55244285Y-36402380D02*
X55244285Y-35402380D01*
X55577619Y-36116666D01*
X55910952Y-35402380D01*
X55910952Y-36402380D01*
X56291904Y-35402380D02*
X56910952Y-35402380D01*
X56577619Y-35783333D01*
X56720476Y-35783333D01*
X56815714Y-35830952D01*
X56863333Y-35878571D01*
X56910952Y-35973809D01*
X56910952Y-36211904D01*
X56863333Y-36307142D01*
X56815714Y-36354761D01*
X56720476Y-36402380D01*
X56434761Y-36402380D01*
X56339523Y-36354761D01*
X56291904Y-36307142D01*
X57101428Y-36497619D02*
X57863333Y-36497619D01*
X58101428Y-36402380D02*
X58101428Y-35402380D01*
X58482380Y-35402380D01*
X58577619Y-35450000D01*
X58625238Y-35497619D01*
X58672857Y-35592857D01*
X58672857Y-35735714D01*
X58625238Y-35830952D01*
X58577619Y-35878571D01*
X58482380Y-35926190D01*
X58101428Y-35926190D01*
X59530000Y-36402380D02*
X59530000Y-35878571D01*
X59482380Y-35783333D01*
X59387142Y-35735714D01*
X59196666Y-35735714D01*
X59101428Y-35783333D01*
X59530000Y-36354761D02*
X59434761Y-36402380D01*
X59196666Y-36402380D01*
X59101428Y-36354761D01*
X59053809Y-36259523D01*
X59053809Y-36164285D01*
X59101428Y-36069047D01*
X59196666Y-36021428D01*
X59434761Y-36021428D01*
X59530000Y-35973809D01*
X60434761Y-36402380D02*
X60434761Y-35402380D01*
X60434761Y-36354761D02*
X60339523Y-36402380D01*
X60149047Y-36402380D01*
X60053809Y-36354761D01*
X60006190Y-36307142D01*
X59958571Y-36211904D01*
X59958571Y-35926190D01*
X60006190Y-35830952D01*
X60053809Y-35783333D01*
X60149047Y-35735714D01*
X60339523Y-35735714D01*
X60434761Y-35783333D01*
X84345238Y-40212380D02*
X84345238Y-39212380D01*
X84678571Y-39926666D01*
X85011904Y-39212380D01*
X85011904Y-40212380D01*
X85630952Y-40212380D02*
X85535714Y-40164761D01*
X85488095Y-40117142D01*
X85440476Y-40021904D01*
X85440476Y-39736190D01*
X85488095Y-39640952D01*
X85535714Y-39593333D01*
X85630952Y-39545714D01*
X85773809Y-39545714D01*
X85869047Y-39593333D01*
X85916666Y-39640952D01*
X85964285Y-39736190D01*
X85964285Y-40021904D01*
X85916666Y-40117142D01*
X85869047Y-40164761D01*
X85773809Y-40212380D01*
X85630952Y-40212380D01*
X86821428Y-39545714D02*
X86821428Y-40212380D01*
X86392857Y-39545714D02*
X86392857Y-40069523D01*
X86440476Y-40164761D01*
X86535714Y-40212380D01*
X86678571Y-40212380D01*
X86773809Y-40164761D01*
X86821428Y-40117142D01*
X87297619Y-39545714D02*
X87297619Y-40212380D01*
X87297619Y-39640952D02*
X87345238Y-39593333D01*
X87440476Y-39545714D01*
X87583333Y-39545714D01*
X87678571Y-39593333D01*
X87726190Y-39688571D01*
X87726190Y-40212380D01*
X88059523Y-39545714D02*
X88440476Y-39545714D01*
X88202380Y-39212380D02*
X88202380Y-40069523D01*
X88250000Y-40164761D01*
X88345238Y-40212380D01*
X88440476Y-40212380D01*
X88773809Y-40212380D02*
X88773809Y-39545714D01*
X88773809Y-39212380D02*
X88726190Y-39260000D01*
X88773809Y-39307619D01*
X88821428Y-39260000D01*
X88773809Y-39212380D01*
X88773809Y-39307619D01*
X89249999Y-39545714D02*
X89249999Y-40212380D01*
X89249999Y-39640952D02*
X89297619Y-39593333D01*
X89392857Y-39545714D01*
X89535714Y-39545714D01*
X89630952Y-39593333D01*
X89678571Y-39688571D01*
X89678571Y-40212380D01*
X90583333Y-39545714D02*
X90583333Y-40355238D01*
X90535714Y-40450476D01*
X90488095Y-40498095D01*
X90392857Y-40545714D01*
X90249999Y-40545714D01*
X90154761Y-40498095D01*
X90583333Y-40164761D02*
X90488095Y-40212380D01*
X90297619Y-40212380D01*
X90202380Y-40164761D01*
X90154761Y-40117142D01*
X90107142Y-40021904D01*
X90107142Y-39736190D01*
X90154761Y-39640952D01*
X90202380Y-39593333D01*
X90297619Y-39545714D01*
X90488095Y-39545714D01*
X90583333Y-39593333D01*
X91059523Y-40212380D02*
X91059523Y-39212380D01*
X91059523Y-39688571D02*
X91630952Y-39688571D01*
X91630952Y-40212380D02*
X91630952Y-39212380D01*
X92249999Y-40212380D02*
X92154761Y-40164761D01*
X92107142Y-40117142D01*
X92059523Y-40021904D01*
X92059523Y-39736190D01*
X92107142Y-39640952D01*
X92154761Y-39593333D01*
X92249999Y-39545714D01*
X92392857Y-39545714D01*
X92488095Y-39593333D01*
X92535714Y-39640952D01*
X92583333Y-39736190D01*
X92583333Y-40021904D01*
X92535714Y-40117142D01*
X92488095Y-40164761D01*
X92392857Y-40212380D01*
X92249999Y-40212380D01*
X93154761Y-40212380D02*
X93059523Y-40164761D01*
X93011904Y-40069523D01*
X93011904Y-39212380D01*
X93916666Y-40164761D02*
X93821428Y-40212380D01*
X93630952Y-40212380D01*
X93535714Y-40164761D01*
X93488095Y-40069523D01*
X93488095Y-39688571D01*
X93535714Y-39593333D01*
X93630952Y-39545714D01*
X93821428Y-39545714D01*
X93916666Y-39593333D01*
X93964285Y-39688571D01*
X93964285Y-39783809D01*
X93488095Y-39879047D01*
X94154761Y-40307619D02*
X94916666Y-40307619D01*
X95059523Y-39212380D02*
X95678571Y-39212380D01*
X95345238Y-39593333D01*
X95488095Y-39593333D01*
X95583333Y-39640952D01*
X95630952Y-39688571D01*
X95678571Y-39783809D01*
X95678571Y-40021904D01*
X95630952Y-40117142D01*
X95583333Y-40164761D01*
X95488095Y-40212380D01*
X95202380Y-40212380D01*
X95107142Y-40164761D01*
X95059523Y-40117142D01*
X96107142Y-40117142D02*
X96154761Y-40164761D01*
X96107142Y-40212380D01*
X96059523Y-40164761D01*
X96107142Y-40117142D01*
X96107142Y-40212380D01*
X96535714Y-39307619D02*
X96583333Y-39260000D01*
X96678571Y-39212380D01*
X96916666Y-39212380D01*
X97011904Y-39260000D01*
X97059523Y-39307619D01*
X97107142Y-39402857D01*
X97107142Y-39498095D01*
X97059523Y-39640952D01*
X96488095Y-40212380D01*
X97107142Y-40212380D01*
X97535714Y-40212380D02*
X97535714Y-39545714D01*
X97535714Y-39640952D02*
X97583333Y-39593333D01*
X97678571Y-39545714D01*
X97821428Y-39545714D01*
X97916666Y-39593333D01*
X97964285Y-39688571D01*
X97964285Y-40212380D01*
X97964285Y-39688571D02*
X98011904Y-39593333D01*
X98107142Y-39545714D01*
X98249999Y-39545714D01*
X98345238Y-39593333D01*
X98392857Y-39688571D01*
X98392857Y-40212380D01*
X98869047Y-40212380D02*
X98869047Y-39545714D01*
X98869047Y-39640952D02*
X98916666Y-39593333D01*
X99011904Y-39545714D01*
X99154761Y-39545714D01*
X99249999Y-39593333D01*
X99297619Y-39688571D01*
X99297619Y-40212380D01*
X99297619Y-39688571D02*
X99345238Y-39593333D01*
X99440476Y-39545714D01*
X99583333Y-39545714D01*
X99678571Y-39593333D01*
X99726190Y-39688571D01*
X99726190Y-40212380D01*
X99964285Y-40307619D02*
X100726190Y-40307619D01*
X100964285Y-40212380D02*
X100964285Y-39212380D01*
X101297619Y-39926666D01*
X101630952Y-39212380D01*
X101630952Y-40212380D01*
X102011904Y-39212380D02*
X102630952Y-39212380D01*
X102297619Y-39593333D01*
X102440476Y-39593333D01*
X102535714Y-39640952D01*
X102583333Y-39688571D01*
X102630952Y-39783809D01*
X102630952Y-40021904D01*
X102583333Y-40117142D01*
X102535714Y-40164761D01*
X102440476Y-40212380D01*
X102154761Y-40212380D01*
X102059523Y-40164761D01*
X102011904Y-40117142D01*
X102821428Y-40307619D02*
X103583333Y-40307619D01*
X103821428Y-40212380D02*
X103821428Y-39212380D01*
X104202380Y-39212380D01*
X104297619Y-39260000D01*
X104345238Y-39307619D01*
X104392857Y-39402857D01*
X104392857Y-39545714D01*
X104345238Y-39640952D01*
X104297619Y-39688571D01*
X104202380Y-39736190D01*
X103821428Y-39736190D01*
X105249999Y-40212380D02*
X105249999Y-39688571D01*
X105202380Y-39593333D01*
X105107142Y-39545714D01*
X104916666Y-39545714D01*
X104821428Y-39593333D01*
X105249999Y-40164761D02*
X105154761Y-40212380D01*
X104916666Y-40212380D01*
X104821428Y-40164761D01*
X104773809Y-40069523D01*
X104773809Y-39974285D01*
X104821428Y-39879047D01*
X104916666Y-39831428D01*
X105154761Y-39831428D01*
X105249999Y-39783809D01*
X106154761Y-40212380D02*
X106154761Y-39212380D01*
X106154761Y-40164761D02*
X106059523Y-40212380D01*
X105869047Y-40212380D01*
X105773809Y-40164761D01*
X105726190Y-40117142D01*
X105678571Y-40021904D01*
X105678571Y-39736190D01*
X105726190Y-39640952D01*
X105773809Y-39593333D01*
X105869047Y-39545714D01*
X106059523Y-39545714D01*
X106154761Y-39593333D01*
X73778571Y-59601666D02*
X73778571Y-59268333D01*
X74302380Y-59125476D02*
X74302380Y-59601666D01*
X73302380Y-59601666D01*
X73302380Y-59125476D01*
X74254761Y-58744523D02*
X74302380Y-58601666D01*
X74302380Y-58363571D01*
X74254761Y-58268333D01*
X74207142Y-58220714D01*
X74111904Y-58173095D01*
X74016666Y-58173095D01*
X73921428Y-58220714D01*
X73873809Y-58268333D01*
X73826190Y-58363571D01*
X73778571Y-58554047D01*
X73730952Y-58649285D01*
X73683333Y-58696904D01*
X73588095Y-58744523D01*
X73492857Y-58744523D01*
X73397619Y-58696904D01*
X73350000Y-58649285D01*
X73302380Y-58554047D01*
X73302380Y-58315952D01*
X73350000Y-58173095D01*
X74302380Y-57744523D02*
X73302380Y-57744523D01*
X73302380Y-57363571D01*
X73350000Y-57268333D01*
X73397619Y-57220714D01*
X73492857Y-57173095D01*
X73635714Y-57173095D01*
X73730952Y-57220714D01*
X73778571Y-57268333D01*
X73826190Y-57363571D01*
X73826190Y-57744523D01*
X73302380Y-56839761D02*
X73302380Y-56220714D01*
X73683333Y-56554047D01*
X73683333Y-56411190D01*
X73730952Y-56315952D01*
X73778571Y-56268333D01*
X73873809Y-56220714D01*
X74111904Y-56220714D01*
X74207142Y-56268333D01*
X74254761Y-56315952D01*
X74302380Y-56411190D01*
X74302380Y-56696904D01*
X74254761Y-56792142D01*
X74207142Y-56839761D01*
X73397619Y-55839761D02*
X73350000Y-55792142D01*
X73302380Y-55696904D01*
X73302380Y-55458809D01*
X73350000Y-55363571D01*
X73397619Y-55315952D01*
X73492857Y-55268333D01*
X73588095Y-55268333D01*
X73730952Y-55315952D01*
X74302380Y-55887380D01*
X74302380Y-55268333D01*
X74397619Y-55077857D02*
X74397619Y-54315952D01*
X74302380Y-54077857D02*
X73302380Y-54077857D01*
X73302380Y-53839761D01*
X73350000Y-53696904D01*
X73445238Y-53601666D01*
X73540476Y-53554047D01*
X73730952Y-53506428D01*
X73873809Y-53506428D01*
X74064285Y-53554047D01*
X74159523Y-53601666D01*
X74254761Y-53696904D01*
X74302380Y-53839761D01*
X74302380Y-54077857D01*
X74254761Y-52696904D02*
X74302380Y-52792142D01*
X74302380Y-52982619D01*
X74254761Y-53077857D01*
X74159523Y-53125476D01*
X73778571Y-53125476D01*
X73683333Y-53077857D01*
X73635714Y-52982619D01*
X73635714Y-52792142D01*
X73683333Y-52696904D01*
X73778571Y-52649285D01*
X73873809Y-52649285D01*
X73969047Y-53125476D01*
X73635714Y-52315952D02*
X74302380Y-52077857D01*
X73635714Y-51839761D01*
X74302380Y-51458809D02*
X73302380Y-51458809D01*
X74302380Y-50887380D02*
X73730952Y-51315952D01*
X73302380Y-50887380D02*
X73873809Y-51458809D01*
X74302380Y-50458809D02*
X73635714Y-50458809D01*
X73302380Y-50458809D02*
X73350000Y-50506428D01*
X73397619Y-50458809D01*
X73350000Y-50411190D01*
X73302380Y-50458809D01*
X73397619Y-50458809D01*
X73635714Y-50125476D02*
X73635714Y-49744523D01*
X73302380Y-49982619D02*
X74159523Y-49982619D01*
X74254761Y-49935000D01*
X74302380Y-49839761D01*
X74302380Y-49744523D01*
X74397619Y-49649285D02*
X74397619Y-48887380D01*
X73302380Y-48792142D02*
X74302380Y-48458809D01*
X73302380Y-48125476D01*
X74302380Y-47268333D02*
X74302380Y-47839761D01*
X74302380Y-47554047D02*
X73302380Y-47554047D01*
X73445238Y-47649285D01*
X73540476Y-47744523D01*
X73588095Y-47839761D01*
X74397619Y-47077857D02*
X74397619Y-46315952D01*
X74302380Y-46077857D02*
X73302380Y-46077857D01*
X73302380Y-45839761D01*
X73350000Y-45696904D01*
X73445238Y-45601666D01*
X73540476Y-45554047D01*
X73730952Y-45506428D01*
X73873809Y-45506428D01*
X74064285Y-45554047D01*
X74159523Y-45601666D01*
X74254761Y-45696904D01*
X74302380Y-45839761D01*
X74302380Y-46077857D01*
X73302380Y-44887380D02*
X73302380Y-44696904D01*
X73350000Y-44601666D01*
X73445238Y-44506428D01*
X73635714Y-44458809D01*
X73969047Y-44458809D01*
X74159523Y-44506428D01*
X74254761Y-44601666D01*
X74302380Y-44696904D01*
X74302380Y-44887380D01*
X74254761Y-44982619D01*
X74159523Y-45077857D01*
X73969047Y-45125476D01*
X73635714Y-45125476D01*
X73445238Y-45077857D01*
X73350000Y-44982619D01*
X73302380Y-44887380D01*
X74302380Y-44030238D02*
X73302380Y-44030238D01*
X73302380Y-43696904D02*
X73302380Y-43125476D01*
X74302380Y-43411190D02*
X73302380Y-43411190D01*
%TO.C,J1*%
X105917380Y-57839761D02*
X105917380Y-58411190D01*
X105917380Y-58125476D02*
X104917380Y-58125476D01*
X105060238Y-58220714D01*
X105155476Y-58315952D01*
X105203095Y-58411190D01*
X104917380Y-57220714D02*
X104917380Y-57125476D01*
X104965000Y-57030238D01*
X105012619Y-56982619D01*
X105107857Y-56935000D01*
X105298333Y-56887380D01*
X105536428Y-56887380D01*
X105726904Y-56935000D01*
X105822142Y-56982619D01*
X105869761Y-57030238D01*
X105917380Y-57125476D01*
X105917380Y-57220714D01*
X105869761Y-57315952D01*
X105822142Y-57363571D01*
X105726904Y-57411190D01*
X105536428Y-57458809D01*
X105298333Y-57458809D01*
X105107857Y-57411190D01*
X105012619Y-57363571D01*
X104965000Y-57315952D01*
X104917380Y-57220714D01*
X105917380Y-55935000D02*
X105917380Y-56506428D01*
X105917380Y-56220714D02*
X104917380Y-56220714D01*
X105060238Y-56315952D01*
X105155476Y-56411190D01*
X105203095Y-56506428D01*
X105917380Y-54982619D02*
X105917380Y-55554047D01*
X105917380Y-55268333D02*
X104917380Y-55268333D01*
X105060238Y-55363571D01*
X105155476Y-55458809D01*
X105203095Y-55554047D01*
X105345952Y-54411190D02*
X105298333Y-54506428D01*
X105250714Y-54554047D01*
X105155476Y-54601666D01*
X105107857Y-54601666D01*
X105012619Y-54554047D01*
X104965000Y-54506428D01*
X104917380Y-54411190D01*
X104917380Y-54220714D01*
X104965000Y-54125476D01*
X105012619Y-54077857D01*
X105107857Y-54030238D01*
X105155476Y-54030238D01*
X105250714Y-54077857D01*
X105298333Y-54125476D01*
X105345952Y-54220714D01*
X105345952Y-54411190D01*
X105393571Y-54506428D01*
X105441190Y-54554047D01*
X105536428Y-54601666D01*
X105726904Y-54601666D01*
X105822142Y-54554047D01*
X105869761Y-54506428D01*
X105917380Y-54411190D01*
X105917380Y-54220714D01*
X105869761Y-54125476D01*
X105822142Y-54077857D01*
X105726904Y-54030238D01*
X105536428Y-54030238D01*
X105441190Y-54077857D01*
X105393571Y-54125476D01*
X105345952Y-54220714D01*
X105917380Y-53077857D02*
X105917380Y-53649285D01*
X105917380Y-53363571D02*
X104917380Y-53363571D01*
X105060238Y-53458809D01*
X105155476Y-53554047D01*
X105203095Y-53649285D01*
X105917380Y-52601666D02*
X105917380Y-52411190D01*
X105869761Y-52315952D01*
X105822142Y-52268333D01*
X105679285Y-52173095D01*
X105488809Y-52125476D01*
X105107857Y-52125476D01*
X105012619Y-52173095D01*
X104965000Y-52220714D01*
X104917380Y-52315952D01*
X104917380Y-52506428D01*
X104965000Y-52601666D01*
X105012619Y-52649285D01*
X105107857Y-52696904D01*
X105345952Y-52696904D01*
X105441190Y-52649285D01*
X105488809Y-52601666D01*
X105536428Y-52506428D01*
X105536428Y-52315952D01*
X105488809Y-52220714D01*
X105441190Y-52173095D01*
X105345952Y-52125476D01*
X104917380Y-51792142D02*
X104917380Y-51173095D01*
X105298333Y-51506428D01*
X105298333Y-51363571D01*
X105345952Y-51268333D01*
X105393571Y-51220714D01*
X105488809Y-51173095D01*
X105726904Y-51173095D01*
X105822142Y-51220714D01*
X105869761Y-51268333D01*
X105917380Y-51363571D01*
X105917380Y-51649285D01*
X105869761Y-51744523D01*
X105822142Y-51792142D01*
X105536428Y-50744523D02*
X105536428Y-49982619D01*
X104917380Y-49315952D02*
X104917380Y-49220714D01*
X104965000Y-49125476D01*
X105012619Y-49077857D01*
X105107857Y-49030238D01*
X105298333Y-48982619D01*
X105536428Y-48982619D01*
X105726904Y-49030238D01*
X105822142Y-49077857D01*
X105869761Y-49125476D01*
X105917380Y-49220714D01*
X105917380Y-49315952D01*
X105869761Y-49411190D01*
X105822142Y-49458809D01*
X105726904Y-49506428D01*
X105536428Y-49554047D01*
X105298333Y-49554047D01*
X105107857Y-49506428D01*
X105012619Y-49458809D01*
X104965000Y-49411190D01*
X104917380Y-49315952D01*
X104917380Y-48363571D02*
X104917380Y-48268333D01*
X104965000Y-48173095D01*
X105012619Y-48125476D01*
X105107857Y-48077857D01*
X105298333Y-48030238D01*
X105536428Y-48030238D01*
X105726904Y-48077857D01*
X105822142Y-48125476D01*
X105869761Y-48173095D01*
X105917380Y-48268333D01*
X105917380Y-48363571D01*
X105869761Y-48458809D01*
X105822142Y-48506428D01*
X105726904Y-48554047D01*
X105536428Y-48601666D01*
X105298333Y-48601666D01*
X105107857Y-48554047D01*
X105012619Y-48506428D01*
X104965000Y-48458809D01*
X104917380Y-48363571D01*
X104917380Y-47411190D02*
X104917380Y-47315952D01*
X104965000Y-47220714D01*
X105012619Y-47173095D01*
X105107857Y-47125476D01*
X105298333Y-47077857D01*
X105536428Y-47077857D01*
X105726904Y-47125476D01*
X105822142Y-47173095D01*
X105869761Y-47220714D01*
X105917380Y-47315952D01*
X105917380Y-47411190D01*
X105869761Y-47506428D01*
X105822142Y-47554047D01*
X105726904Y-47601666D01*
X105536428Y-47649285D01*
X105298333Y-47649285D01*
X105107857Y-47601666D01*
X105012619Y-47554047D01*
X104965000Y-47506428D01*
X104917380Y-47411190D01*
X105917380Y-46125476D02*
X105917380Y-46696904D01*
X105917380Y-46411190D02*
X104917380Y-46411190D01*
X105060238Y-46506428D01*
X105155476Y-46601666D01*
X105203095Y-46696904D01*
X105917380Y-45220714D02*
X105917380Y-45696904D01*
X104917380Y-45696904D01*
X105393571Y-44554047D02*
X105393571Y-44887380D01*
X105917380Y-44887380D02*
X104917380Y-44887380D01*
X104917380Y-44411190D01*
X102277380Y-51708333D02*
X102991666Y-51708333D01*
X103134523Y-51755952D01*
X103229761Y-51851190D01*
X103277380Y-51994047D01*
X103277380Y-52089285D01*
X103277380Y-50708333D02*
X103277380Y-51279761D01*
X103277380Y-50994047D02*
X102277380Y-50994047D01*
X102420238Y-51089285D01*
X102515476Y-51184523D01*
X102563095Y-51279761D01*
%TO.C,J2*%
X66187142Y-75048333D02*
X66234761Y-75095952D01*
X66282380Y-75238809D01*
X66282380Y-75334047D01*
X66234761Y-75476904D01*
X66139523Y-75572142D01*
X66044285Y-75619761D01*
X65853809Y-75667380D01*
X65710952Y-75667380D01*
X65520476Y-75619761D01*
X65425238Y-75572142D01*
X65330000Y-75476904D01*
X65282380Y-75334047D01*
X65282380Y-75238809D01*
X65330000Y-75095952D01*
X65377619Y-75048333D01*
X66282380Y-74476904D02*
X66234761Y-74572142D01*
X66187142Y-74619761D01*
X66091904Y-74667380D01*
X65806190Y-74667380D01*
X65710952Y-74619761D01*
X65663333Y-74572142D01*
X65615714Y-74476904D01*
X65615714Y-74334047D01*
X65663333Y-74238809D01*
X65710952Y-74191190D01*
X65806190Y-74143571D01*
X66091904Y-74143571D01*
X66187142Y-74191190D01*
X66234761Y-74238809D01*
X66282380Y-74334047D01*
X66282380Y-74476904D01*
X65615714Y-73715000D02*
X66282380Y-73715000D01*
X65710952Y-73715000D02*
X65663333Y-73667380D01*
X65615714Y-73572142D01*
X65615714Y-73429285D01*
X65663333Y-73334047D01*
X65758571Y-73286428D01*
X66282380Y-73286428D01*
X65615714Y-72810238D02*
X66282380Y-72810238D01*
X65710952Y-72810238D02*
X65663333Y-72762619D01*
X65615714Y-72667380D01*
X65615714Y-72524523D01*
X65663333Y-72429285D01*
X65758571Y-72381666D01*
X66282380Y-72381666D01*
X66377619Y-72143571D02*
X66377619Y-71381666D01*
X65282380Y-70953095D02*
X65282380Y-70857857D01*
X65330000Y-70762619D01*
X65377619Y-70715000D01*
X65472857Y-70667380D01*
X65663333Y-70619761D01*
X65901428Y-70619761D01*
X66091904Y-70667380D01*
X66187142Y-70715000D01*
X66234761Y-70762619D01*
X66282380Y-70857857D01*
X66282380Y-70953095D01*
X66234761Y-71048333D01*
X66187142Y-71095952D01*
X66091904Y-71143571D01*
X65901428Y-71191190D01*
X65663333Y-71191190D01*
X65472857Y-71143571D01*
X65377619Y-71095952D01*
X65330000Y-71048333D01*
X65282380Y-70953095D01*
X66282380Y-69667380D02*
X66282380Y-70238809D01*
X66282380Y-69953095D02*
X65282380Y-69953095D01*
X65425238Y-70048333D01*
X65520476Y-70143571D01*
X65568095Y-70238809D01*
X66282380Y-69334047D02*
X65615714Y-68810238D01*
X65615714Y-69334047D02*
X66282380Y-68810238D01*
X65282380Y-68238809D02*
X65282380Y-68143571D01*
X65330000Y-68048333D01*
X65377619Y-68000714D01*
X65472857Y-67953095D01*
X65663333Y-67905476D01*
X65901428Y-67905476D01*
X66091904Y-67953095D01*
X66187142Y-68000714D01*
X66234761Y-68048333D01*
X66282380Y-68143571D01*
X66282380Y-68238809D01*
X66234761Y-68334047D01*
X66187142Y-68381666D01*
X66091904Y-68429285D01*
X65901428Y-68476904D01*
X65663333Y-68476904D01*
X65472857Y-68429285D01*
X65377619Y-68381666D01*
X65330000Y-68334047D01*
X65282380Y-68238809D01*
X65615714Y-67048333D02*
X66282380Y-67048333D01*
X65234761Y-67286428D02*
X65949047Y-67524523D01*
X65949047Y-66905476D01*
X66377619Y-66762619D02*
X66377619Y-66000714D01*
X66282380Y-65762619D02*
X65282380Y-65762619D01*
X65996666Y-65429285D01*
X65282380Y-65095952D01*
X66282380Y-65095952D01*
X66282380Y-64191190D02*
X65758571Y-64191190D01*
X65663333Y-64238809D01*
X65615714Y-64334047D01*
X65615714Y-64524523D01*
X65663333Y-64619761D01*
X66234761Y-64191190D02*
X66282380Y-64286428D01*
X66282380Y-64524523D01*
X66234761Y-64619761D01*
X66139523Y-64667380D01*
X66044285Y-64667380D01*
X65949047Y-64619761D01*
X65901428Y-64524523D01*
X65901428Y-64286428D01*
X65853809Y-64191190D01*
X66282380Y-63572142D02*
X66234761Y-63667380D01*
X66139523Y-63715000D01*
X65282380Y-63715000D01*
X66234761Y-62810238D02*
X66282380Y-62905476D01*
X66282380Y-63095952D01*
X66234761Y-63191190D01*
X66139523Y-63238809D01*
X65758571Y-63238809D01*
X65663333Y-63191190D01*
X65615714Y-63095952D01*
X65615714Y-62905476D01*
X65663333Y-62810238D01*
X65758571Y-62762619D01*
X65853809Y-62762619D01*
X65949047Y-63238809D01*
X59356666Y-68667380D02*
X59356666Y-69381666D01*
X59309047Y-69524523D01*
X59213809Y-69619761D01*
X59070952Y-69667380D01*
X58975714Y-69667380D01*
X59785238Y-68762619D02*
X59832857Y-68715000D01*
X59928095Y-68667380D01*
X60166190Y-68667380D01*
X60261428Y-68715000D01*
X60309047Y-68762619D01*
X60356666Y-68857857D01*
X60356666Y-68953095D01*
X60309047Y-69095952D01*
X59737619Y-69667380D01*
X60356666Y-69667380D01*
%TO.C,J3*%
X58936666Y-36977142D02*
X58889047Y-37024761D01*
X58746190Y-37072380D01*
X58650952Y-37072380D01*
X58508095Y-37024761D01*
X58412857Y-36929523D01*
X58365238Y-36834285D01*
X58317619Y-36643809D01*
X58317619Y-36500952D01*
X58365238Y-36310476D01*
X58412857Y-36215238D01*
X58508095Y-36120000D01*
X58650952Y-36072380D01*
X58746190Y-36072380D01*
X58889047Y-36120000D01*
X58936666Y-36167619D01*
X59508095Y-37072380D02*
X59412857Y-37024761D01*
X59365238Y-36977142D01*
X59317619Y-36881904D01*
X59317619Y-36596190D01*
X59365238Y-36500952D01*
X59412857Y-36453333D01*
X59508095Y-36405714D01*
X59650952Y-36405714D01*
X59746190Y-36453333D01*
X59793809Y-36500952D01*
X59841428Y-36596190D01*
X59841428Y-36881904D01*
X59793809Y-36977142D01*
X59746190Y-37024761D01*
X59650952Y-37072380D01*
X59508095Y-37072380D01*
X60270000Y-36405714D02*
X60270000Y-37072380D01*
X60270000Y-36500952D02*
X60317619Y-36453333D01*
X60412857Y-36405714D01*
X60555714Y-36405714D01*
X60650952Y-36453333D01*
X60698571Y-36548571D01*
X60698571Y-37072380D01*
X61174761Y-36405714D02*
X61174761Y-37072380D01*
X61174761Y-36500952D02*
X61222380Y-36453333D01*
X61317619Y-36405714D01*
X61460476Y-36405714D01*
X61555714Y-36453333D01*
X61603333Y-36548571D01*
X61603333Y-37072380D01*
X61841428Y-37167619D02*
X62603333Y-37167619D01*
X63031904Y-36072380D02*
X63127142Y-36072380D01*
X63222380Y-36120000D01*
X63270000Y-36167619D01*
X63317619Y-36262857D01*
X63365238Y-36453333D01*
X63365238Y-36691428D01*
X63317619Y-36881904D01*
X63270000Y-36977142D01*
X63222380Y-37024761D01*
X63127142Y-37072380D01*
X63031904Y-37072380D01*
X62936666Y-37024761D01*
X62889047Y-36977142D01*
X62841428Y-36881904D01*
X62793809Y-36691428D01*
X62793809Y-36453333D01*
X62841428Y-36262857D01*
X62889047Y-36167619D01*
X62936666Y-36120000D01*
X63031904Y-36072380D01*
X64317619Y-37072380D02*
X63746190Y-37072380D01*
X64031904Y-37072380D02*
X64031904Y-36072380D01*
X63936666Y-36215238D01*
X63841428Y-36310476D01*
X63746190Y-36358095D01*
X64650952Y-37072380D02*
X65174761Y-36405714D01*
X64650952Y-36405714D02*
X65174761Y-37072380D01*
X65746190Y-36072380D02*
X65841428Y-36072380D01*
X65936666Y-36120000D01*
X65984285Y-36167619D01*
X66031904Y-36262857D01*
X66079523Y-36453333D01*
X66079523Y-36691428D01*
X66031904Y-36881904D01*
X65984285Y-36977142D01*
X65936666Y-37024761D01*
X65841428Y-37072380D01*
X65746190Y-37072380D01*
X65650952Y-37024761D01*
X65603333Y-36977142D01*
X65555714Y-36881904D01*
X65508095Y-36691428D01*
X65508095Y-36453333D01*
X65555714Y-36262857D01*
X65603333Y-36167619D01*
X65650952Y-36120000D01*
X65746190Y-36072380D01*
X66412857Y-36072380D02*
X67031904Y-36072380D01*
X66698571Y-36453333D01*
X66841428Y-36453333D01*
X66936666Y-36500952D01*
X66984285Y-36548571D01*
X67031904Y-36643809D01*
X67031904Y-36881904D01*
X66984285Y-36977142D01*
X66936666Y-37024761D01*
X66841428Y-37072380D01*
X66555714Y-37072380D01*
X66460476Y-37024761D01*
X66412857Y-36977142D01*
X67222380Y-37167619D02*
X67984285Y-37167619D01*
X68222380Y-37072380D02*
X68222380Y-36072380D01*
X68555714Y-36786666D01*
X68889047Y-36072380D01*
X68889047Y-37072380D01*
X69793809Y-37072380D02*
X69793809Y-36548571D01*
X69746190Y-36453333D01*
X69650952Y-36405714D01*
X69460476Y-36405714D01*
X69365238Y-36453333D01*
X69793809Y-37024761D02*
X69698571Y-37072380D01*
X69460476Y-37072380D01*
X69365238Y-37024761D01*
X69317619Y-36929523D01*
X69317619Y-36834285D01*
X69365238Y-36739047D01*
X69460476Y-36691428D01*
X69698571Y-36691428D01*
X69793809Y-36643809D01*
X70412857Y-37072380D02*
X70317619Y-37024761D01*
X70270000Y-36929523D01*
X70270000Y-36072380D01*
X71174761Y-37024761D02*
X71079523Y-37072380D01*
X70889047Y-37072380D01*
X70793809Y-37024761D01*
X70746190Y-36929523D01*
X70746190Y-36548571D01*
X70793809Y-36453333D01*
X70889047Y-36405714D01*
X71079523Y-36405714D01*
X71174761Y-36453333D01*
X71222380Y-36548571D01*
X71222380Y-36643809D01*
X70746190Y-36739047D01*
X64222380Y-32083333D02*
X64936666Y-32083333D01*
X65079523Y-32130952D01*
X65174761Y-32226190D01*
X65222380Y-32369047D01*
X65222380Y-32464285D01*
X64222380Y-31702380D02*
X64222380Y-31083333D01*
X64603333Y-31416666D01*
X64603333Y-31273809D01*
X64650952Y-31178571D01*
X64698571Y-31130952D01*
X64793809Y-31083333D01*
X65031904Y-31083333D01*
X65127142Y-31130952D01*
X65174761Y-31178571D01*
X65222380Y-31273809D01*
X65222380Y-31559523D01*
X65174761Y-31654761D01*
X65127142Y-31702380D01*
%TO.C,J4*%
X73541666Y-74442142D02*
X73494047Y-74489761D01*
X73351190Y-74537380D01*
X73255952Y-74537380D01*
X73113095Y-74489761D01*
X73017857Y-74394523D01*
X72970238Y-74299285D01*
X72922619Y-74108809D01*
X72922619Y-73965952D01*
X72970238Y-73775476D01*
X73017857Y-73680238D01*
X73113095Y-73585000D01*
X73255952Y-73537380D01*
X73351190Y-73537380D01*
X73494047Y-73585000D01*
X73541666Y-73632619D01*
X74113095Y-74537380D02*
X74017857Y-74489761D01*
X73970238Y-74442142D01*
X73922619Y-74346904D01*
X73922619Y-74061190D01*
X73970238Y-73965952D01*
X74017857Y-73918333D01*
X74113095Y-73870714D01*
X74255952Y-73870714D01*
X74351190Y-73918333D01*
X74398809Y-73965952D01*
X74446428Y-74061190D01*
X74446428Y-74346904D01*
X74398809Y-74442142D01*
X74351190Y-74489761D01*
X74255952Y-74537380D01*
X74113095Y-74537380D01*
X74875000Y-73870714D02*
X74875000Y-74537380D01*
X74875000Y-73965952D02*
X74922619Y-73918333D01*
X75017857Y-73870714D01*
X75160714Y-73870714D01*
X75255952Y-73918333D01*
X75303571Y-74013571D01*
X75303571Y-74537380D01*
X75779761Y-73870714D02*
X75779761Y-74537380D01*
X75779761Y-73965952D02*
X75827380Y-73918333D01*
X75922619Y-73870714D01*
X76065476Y-73870714D01*
X76160714Y-73918333D01*
X76208333Y-74013571D01*
X76208333Y-74537380D01*
X76446428Y-74632619D02*
X77208333Y-74632619D01*
X77636904Y-73537380D02*
X77732142Y-73537380D01*
X77827380Y-73585000D01*
X77875000Y-73632619D01*
X77922619Y-73727857D01*
X77970238Y-73918333D01*
X77970238Y-74156428D01*
X77922619Y-74346904D01*
X77875000Y-74442142D01*
X77827380Y-74489761D01*
X77732142Y-74537380D01*
X77636904Y-74537380D01*
X77541666Y-74489761D01*
X77494047Y-74442142D01*
X77446428Y-74346904D01*
X77398809Y-74156428D01*
X77398809Y-73918333D01*
X77446428Y-73727857D01*
X77494047Y-73632619D01*
X77541666Y-73585000D01*
X77636904Y-73537380D01*
X78922619Y-74537380D02*
X78351190Y-74537380D01*
X78636904Y-74537380D02*
X78636904Y-73537380D01*
X78541666Y-73680238D01*
X78446428Y-73775476D01*
X78351190Y-73823095D01*
X79255952Y-74537380D02*
X79779761Y-73870714D01*
X79255952Y-73870714D02*
X79779761Y-74537380D01*
X80351190Y-73537380D02*
X80446428Y-73537380D01*
X80541666Y-73585000D01*
X80589285Y-73632619D01*
X80636904Y-73727857D01*
X80684523Y-73918333D01*
X80684523Y-74156428D01*
X80636904Y-74346904D01*
X80589285Y-74442142D01*
X80541666Y-74489761D01*
X80446428Y-74537380D01*
X80351190Y-74537380D01*
X80255952Y-74489761D01*
X80208333Y-74442142D01*
X80160714Y-74346904D01*
X80113095Y-74156428D01*
X80113095Y-73918333D01*
X80160714Y-73727857D01*
X80208333Y-73632619D01*
X80255952Y-73585000D01*
X80351190Y-73537380D01*
X81065476Y-73632619D02*
X81113095Y-73585000D01*
X81208333Y-73537380D01*
X81446428Y-73537380D01*
X81541666Y-73585000D01*
X81589285Y-73632619D01*
X81636904Y-73727857D01*
X81636904Y-73823095D01*
X81589285Y-73965952D01*
X81017857Y-74537380D01*
X81636904Y-74537380D01*
X81827380Y-74632619D02*
X82589285Y-74632619D01*
X82827380Y-74537380D02*
X82827380Y-73537380D01*
X83160714Y-74251666D01*
X83494047Y-73537380D01*
X83494047Y-74537380D01*
X84398809Y-74537380D02*
X84398809Y-74013571D01*
X84351190Y-73918333D01*
X84255952Y-73870714D01*
X84065476Y-73870714D01*
X83970238Y-73918333D01*
X84398809Y-74489761D02*
X84303571Y-74537380D01*
X84065476Y-74537380D01*
X83970238Y-74489761D01*
X83922619Y-74394523D01*
X83922619Y-74299285D01*
X83970238Y-74204047D01*
X84065476Y-74156428D01*
X84303571Y-74156428D01*
X84398809Y-74108809D01*
X85017857Y-74537380D02*
X84922619Y-74489761D01*
X84875000Y-74394523D01*
X84875000Y-73537380D01*
X85779761Y-74489761D02*
X85684523Y-74537380D01*
X85494047Y-74537380D01*
X85398809Y-74489761D01*
X85351190Y-74394523D01*
X85351190Y-74013571D01*
X85398809Y-73918333D01*
X85494047Y-73870714D01*
X85684523Y-73870714D01*
X85779761Y-73918333D01*
X85827380Y-74013571D01*
X85827380Y-74108809D01*
X85351190Y-74204047D01*
X78827380Y-70818333D02*
X79541666Y-70818333D01*
X79684523Y-70865952D01*
X79779761Y-70961190D01*
X79827380Y-71104047D01*
X79827380Y-71199285D01*
X79160714Y-69913571D02*
X79827380Y-69913571D01*
X78779761Y-70151666D02*
X79494047Y-70389761D01*
X79494047Y-69770714D01*
%TO.C,J5*%
X89682142Y-35678333D02*
X89729761Y-35725952D01*
X89777380Y-35868809D01*
X89777380Y-35964047D01*
X89729761Y-36106904D01*
X89634523Y-36202142D01*
X89539285Y-36249761D01*
X89348809Y-36297380D01*
X89205952Y-36297380D01*
X89015476Y-36249761D01*
X88920238Y-36202142D01*
X88825000Y-36106904D01*
X88777380Y-35964047D01*
X88777380Y-35868809D01*
X88825000Y-35725952D01*
X88872619Y-35678333D01*
X89777380Y-35106904D02*
X89729761Y-35202142D01*
X89682142Y-35249761D01*
X89586904Y-35297380D01*
X89301190Y-35297380D01*
X89205952Y-35249761D01*
X89158333Y-35202142D01*
X89110714Y-35106904D01*
X89110714Y-34964047D01*
X89158333Y-34868809D01*
X89205952Y-34821190D01*
X89301190Y-34773571D01*
X89586904Y-34773571D01*
X89682142Y-34821190D01*
X89729761Y-34868809D01*
X89777380Y-34964047D01*
X89777380Y-35106904D01*
X89110714Y-34345000D02*
X89777380Y-34345000D01*
X89205952Y-34345000D02*
X89158333Y-34297380D01*
X89110714Y-34202142D01*
X89110714Y-34059285D01*
X89158333Y-33964047D01*
X89253571Y-33916428D01*
X89777380Y-33916428D01*
X89110714Y-33440238D02*
X89777380Y-33440238D01*
X89205952Y-33440238D02*
X89158333Y-33392619D01*
X89110714Y-33297380D01*
X89110714Y-33154523D01*
X89158333Y-33059285D01*
X89253571Y-33011666D01*
X89777380Y-33011666D01*
X89872619Y-32773571D02*
X89872619Y-32011666D01*
X88777380Y-31583095D02*
X88777380Y-31487857D01*
X88825000Y-31392619D01*
X88872619Y-31345000D01*
X88967857Y-31297380D01*
X89158333Y-31249761D01*
X89396428Y-31249761D01*
X89586904Y-31297380D01*
X89682142Y-31345000D01*
X89729761Y-31392619D01*
X89777380Y-31487857D01*
X89777380Y-31583095D01*
X89729761Y-31678333D01*
X89682142Y-31725952D01*
X89586904Y-31773571D01*
X89396428Y-31821190D01*
X89158333Y-31821190D01*
X88967857Y-31773571D01*
X88872619Y-31725952D01*
X88825000Y-31678333D01*
X88777380Y-31583095D01*
X89777380Y-30297380D02*
X89777380Y-30868809D01*
X89777380Y-30583095D02*
X88777380Y-30583095D01*
X88920238Y-30678333D01*
X89015476Y-30773571D01*
X89063095Y-30868809D01*
X89777380Y-29964047D02*
X89110714Y-29440238D01*
X89110714Y-29964047D02*
X89777380Y-29440238D01*
X88777380Y-28868809D02*
X88777380Y-28773571D01*
X88825000Y-28678333D01*
X88872619Y-28630714D01*
X88967857Y-28583095D01*
X89158333Y-28535476D01*
X89396428Y-28535476D01*
X89586904Y-28583095D01*
X89682142Y-28630714D01*
X89729761Y-28678333D01*
X89777380Y-28773571D01*
X89777380Y-28868809D01*
X89729761Y-28964047D01*
X89682142Y-29011666D01*
X89586904Y-29059285D01*
X89396428Y-29106904D01*
X89158333Y-29106904D01*
X88967857Y-29059285D01*
X88872619Y-29011666D01*
X88825000Y-28964047D01*
X88777380Y-28868809D01*
X88872619Y-28154523D02*
X88825000Y-28106904D01*
X88777380Y-28011666D01*
X88777380Y-27773571D01*
X88825000Y-27678333D01*
X88872619Y-27630714D01*
X88967857Y-27583095D01*
X89063095Y-27583095D01*
X89205952Y-27630714D01*
X89777380Y-28202142D01*
X89777380Y-27583095D01*
X89872619Y-27392619D02*
X89872619Y-26630714D01*
X89777380Y-26392619D02*
X88777380Y-26392619D01*
X89491666Y-26059285D01*
X88777380Y-25725952D01*
X89777380Y-25725952D01*
X89777380Y-24821190D02*
X89253571Y-24821190D01*
X89158333Y-24868809D01*
X89110714Y-24964047D01*
X89110714Y-25154523D01*
X89158333Y-25249761D01*
X89729761Y-24821190D02*
X89777380Y-24916428D01*
X89777380Y-25154523D01*
X89729761Y-25249761D01*
X89634523Y-25297380D01*
X89539285Y-25297380D01*
X89444047Y-25249761D01*
X89396428Y-25154523D01*
X89396428Y-24916428D01*
X89348809Y-24821190D01*
X89777380Y-24202142D02*
X89729761Y-24297380D01*
X89634523Y-24345000D01*
X88777380Y-24345000D01*
X89729761Y-23440238D02*
X89777380Y-23535476D01*
X89777380Y-23725952D01*
X89729761Y-23821190D01*
X89634523Y-23868809D01*
X89253571Y-23868809D01*
X89158333Y-23821190D01*
X89110714Y-23725952D01*
X89110714Y-23535476D01*
X89158333Y-23440238D01*
X89253571Y-23392619D01*
X89348809Y-23392619D01*
X89444047Y-23868809D01*
X85391666Y-29297380D02*
X85391666Y-30011666D01*
X85344047Y-30154523D01*
X85248809Y-30249761D01*
X85105952Y-30297380D01*
X85010714Y-30297380D01*
X86344047Y-29297380D02*
X85867857Y-29297380D01*
X85820238Y-29773571D01*
X85867857Y-29725952D01*
X85963095Y-29678333D01*
X86201190Y-29678333D01*
X86296428Y-29725952D01*
X86344047Y-29773571D01*
X86391666Y-29868809D01*
X86391666Y-30106904D01*
X86344047Y-30202142D01*
X86296428Y-30249761D01*
X86201190Y-30297380D01*
X85963095Y-30297380D01*
X85867857Y-30249761D01*
X85820238Y-30202142D01*
%TO.C,J6*%
X89682142Y-40123333D02*
X89729761Y-40170952D01*
X89777380Y-40313809D01*
X89777380Y-40409047D01*
X89729761Y-40551904D01*
X89634523Y-40647142D01*
X89539285Y-40694761D01*
X89348809Y-40742380D01*
X89205952Y-40742380D01*
X89015476Y-40694761D01*
X88920238Y-40647142D01*
X88825000Y-40551904D01*
X88777380Y-40409047D01*
X88777380Y-40313809D01*
X88825000Y-40170952D01*
X88872619Y-40123333D01*
X89777380Y-39551904D02*
X89729761Y-39647142D01*
X89682142Y-39694761D01*
X89586904Y-39742380D01*
X89301190Y-39742380D01*
X89205952Y-39694761D01*
X89158333Y-39647142D01*
X89110714Y-39551904D01*
X89110714Y-39409047D01*
X89158333Y-39313809D01*
X89205952Y-39266190D01*
X89301190Y-39218571D01*
X89586904Y-39218571D01*
X89682142Y-39266190D01*
X89729761Y-39313809D01*
X89777380Y-39409047D01*
X89777380Y-39551904D01*
X89110714Y-38790000D02*
X89777380Y-38790000D01*
X89205952Y-38790000D02*
X89158333Y-38742380D01*
X89110714Y-38647142D01*
X89110714Y-38504285D01*
X89158333Y-38409047D01*
X89253571Y-38361428D01*
X89777380Y-38361428D01*
X89110714Y-37885238D02*
X89777380Y-37885238D01*
X89205952Y-37885238D02*
X89158333Y-37837619D01*
X89110714Y-37742380D01*
X89110714Y-37599523D01*
X89158333Y-37504285D01*
X89253571Y-37456666D01*
X89777380Y-37456666D01*
X89872619Y-37218571D02*
X89872619Y-36456666D01*
X88777380Y-36028095D02*
X88777380Y-35932857D01*
X88825000Y-35837619D01*
X88872619Y-35790000D01*
X88967857Y-35742380D01*
X89158333Y-35694761D01*
X89396428Y-35694761D01*
X89586904Y-35742380D01*
X89682142Y-35790000D01*
X89729761Y-35837619D01*
X89777380Y-35932857D01*
X89777380Y-36028095D01*
X89729761Y-36123333D01*
X89682142Y-36170952D01*
X89586904Y-36218571D01*
X89396428Y-36266190D01*
X89158333Y-36266190D01*
X88967857Y-36218571D01*
X88872619Y-36170952D01*
X88825000Y-36123333D01*
X88777380Y-36028095D01*
X89777380Y-34742380D02*
X89777380Y-35313809D01*
X89777380Y-35028095D02*
X88777380Y-35028095D01*
X88920238Y-35123333D01*
X89015476Y-35218571D01*
X89063095Y-35313809D01*
X89777380Y-34409047D02*
X89110714Y-33885238D01*
X89110714Y-34409047D02*
X89777380Y-33885238D01*
X88777380Y-33313809D02*
X88777380Y-33218571D01*
X88825000Y-33123333D01*
X88872619Y-33075714D01*
X88967857Y-33028095D01*
X89158333Y-32980476D01*
X89396428Y-32980476D01*
X89586904Y-33028095D01*
X89682142Y-33075714D01*
X89729761Y-33123333D01*
X89777380Y-33218571D01*
X89777380Y-33313809D01*
X89729761Y-33409047D01*
X89682142Y-33456666D01*
X89586904Y-33504285D01*
X89396428Y-33551904D01*
X89158333Y-33551904D01*
X88967857Y-33504285D01*
X88872619Y-33456666D01*
X88825000Y-33409047D01*
X88777380Y-33313809D01*
X88872619Y-32599523D02*
X88825000Y-32551904D01*
X88777380Y-32456666D01*
X88777380Y-32218571D01*
X88825000Y-32123333D01*
X88872619Y-32075714D01*
X88967857Y-32028095D01*
X89063095Y-32028095D01*
X89205952Y-32075714D01*
X89777380Y-32647142D01*
X89777380Y-32028095D01*
X89872619Y-31837619D02*
X89872619Y-31075714D01*
X89777380Y-30837619D02*
X88777380Y-30837619D01*
X89491666Y-30504285D01*
X88777380Y-30170952D01*
X89777380Y-30170952D01*
X89777380Y-29266190D02*
X89253571Y-29266190D01*
X89158333Y-29313809D01*
X89110714Y-29409047D01*
X89110714Y-29599523D01*
X89158333Y-29694761D01*
X89729761Y-29266190D02*
X89777380Y-29361428D01*
X89777380Y-29599523D01*
X89729761Y-29694761D01*
X89634523Y-29742380D01*
X89539285Y-29742380D01*
X89444047Y-29694761D01*
X89396428Y-29599523D01*
X89396428Y-29361428D01*
X89348809Y-29266190D01*
X89777380Y-28647142D02*
X89729761Y-28742380D01*
X89634523Y-28790000D01*
X88777380Y-28790000D01*
X89729761Y-27885238D02*
X89777380Y-27980476D01*
X89777380Y-28170952D01*
X89729761Y-28266190D01*
X89634523Y-28313809D01*
X89253571Y-28313809D01*
X89158333Y-28266190D01*
X89110714Y-28170952D01*
X89110714Y-27980476D01*
X89158333Y-27885238D01*
X89253571Y-27837619D01*
X89348809Y-27837619D01*
X89444047Y-28313809D01*
X85391666Y-33742380D02*
X85391666Y-34456666D01*
X85344047Y-34599523D01*
X85248809Y-34694761D01*
X85105952Y-34742380D01*
X85010714Y-34742380D01*
X86296428Y-33742380D02*
X86105952Y-33742380D01*
X86010714Y-33790000D01*
X85963095Y-33837619D01*
X85867857Y-33980476D01*
X85820238Y-34170952D01*
X85820238Y-34551904D01*
X85867857Y-34647142D01*
X85915476Y-34694761D01*
X86010714Y-34742380D01*
X86201190Y-34742380D01*
X86296428Y-34694761D01*
X86344047Y-34647142D01*
X86391666Y-34551904D01*
X86391666Y-34313809D01*
X86344047Y-34218571D01*
X86296428Y-34170952D01*
X86201190Y-34123333D01*
X86010714Y-34123333D01*
X85915476Y-34170952D01*
X85867857Y-34218571D01*
X85820238Y-34313809D01*
%TO.C,C1*%
X63177142Y-30690476D02*
X63224761Y-30738095D01*
X63272380Y-30880952D01*
X63272380Y-30976190D01*
X63224761Y-31119047D01*
X63129523Y-31214285D01*
X63034285Y-31261904D01*
X62843809Y-31309523D01*
X62700952Y-31309523D01*
X62510476Y-31261904D01*
X62415238Y-31214285D01*
X62320000Y-31119047D01*
X62272380Y-30976190D01*
X62272380Y-30880952D01*
X62320000Y-30738095D01*
X62367619Y-30690476D01*
X63272380Y-30261904D02*
X62272380Y-30261904D01*
X62272380Y-29880952D01*
X62320000Y-29785714D01*
X62367619Y-29738095D01*
X62462857Y-29690476D01*
X62605714Y-29690476D01*
X62700952Y-29738095D01*
X62748571Y-29785714D01*
X62796190Y-29880952D01*
X62796190Y-30261904D01*
X58777142Y-30666666D02*
X58824761Y-30714285D01*
X58872380Y-30857142D01*
X58872380Y-30952380D01*
X58824761Y-31095238D01*
X58729523Y-31190476D01*
X58634285Y-31238095D01*
X58443809Y-31285714D01*
X58300952Y-31285714D01*
X58110476Y-31238095D01*
X58015238Y-31190476D01*
X57920000Y-31095238D01*
X57872380Y-30952380D01*
X57872380Y-30857142D01*
X57920000Y-30714285D01*
X57967619Y-30666666D01*
X58872380Y-29714285D02*
X58872380Y-30285714D01*
X58872380Y-30000000D02*
X57872380Y-30000000D01*
X58015238Y-30095238D01*
X58110476Y-30190476D01*
X58158095Y-30285714D01*
%TO.C,R1*%
X58729523Y-34362380D02*
X58396190Y-33886190D01*
X58158095Y-34362380D02*
X58158095Y-33362380D01*
X58539047Y-33362380D01*
X58634285Y-33410000D01*
X58681904Y-33457619D01*
X58729523Y-33552857D01*
X58729523Y-33695714D01*
X58681904Y-33790952D01*
X58634285Y-33838571D01*
X58539047Y-33886190D01*
X58158095Y-33886190D01*
D12*
X58336666Y-35786190D02*
X58170000Y-35548095D01*
X58050952Y-35786190D02*
X58050952Y-35286190D01*
X58241428Y-35286190D01*
X58289047Y-35310000D01*
X58312857Y-35333809D01*
X58336666Y-35381428D01*
X58336666Y-35452857D01*
X58312857Y-35500476D01*
X58289047Y-35524285D01*
X58241428Y-35548095D01*
X58050952Y-35548095D01*
X58812857Y-35786190D02*
X58527142Y-35786190D01*
X58670000Y-35786190D02*
X58670000Y-35286190D01*
X58622380Y-35357619D01*
X58574761Y-35405238D01*
X58527142Y-35429047D01*
%TD*%
M02*
