M48
; DRILL file {KiCad 5.1.10} date Wed Oct 27 21:54:37 2021
; FORMAT={3:3/ absolute / metric / suppress leading zeros}
; #@! TF.CreationDate,2021-10-27T21:54:37+02:00
; #@! TF.GenerationSoftware,Kicad,Pcbnew,5.1.10
FMAT,2
METRIC,TZ
T1C0.400
T2C0.500
T3C0.762
T4C0.800
T5C1.000
T6C3.200
%
G90
G05
T1
X96520Y-62230
T3
X46990Y-38735
X46990Y-64135
X49530Y-38735
X49530Y-64135
X52070Y-38735
X52070Y-64135
X54610Y-38735
X54610Y-64135
X57150Y-38735
X57150Y-64135
X59690Y-38735
X59690Y-64135
X62230Y-38735
X62230Y-64135
X64770Y-38735
X64770Y-64135
X67310Y-38735
X67310Y-64135
X69850Y-38735
X69850Y-64135
X72390Y-38735
X72390Y-64135
X74930Y-38735
X74930Y-64135
X77470Y-38735
X77470Y-64135
X80010Y-38735
X80010Y-64135
X82550Y-38735
X82550Y-64135
T4
X58420Y-29250
X58420Y-31750
T5
X55880Y-69215
X58420Y-69215
X60960Y-69215
X63500Y-69215
X64770Y-29210
X64770Y-31750
X64770Y-34290
X79375Y-69215
X79375Y-71755
X84455Y-29845
X84455Y-34290
X86995Y-29845
X86995Y-34290
T6
X49530Y-31750
X93980Y-68580
X95250Y-35560
T2
G00X100615Y-48135
M15
G01X101315Y-48135
M16
G05
G00X100615Y-54735
M15
G01X101315Y-54735
M16
G05
T0
M30
