%TF.GenerationSoftware,KiCad,Pcbnew,5.1.10*%
%TF.CreationDate,2021-10-27T21:54:33+02:00*%
%TF.ProjectId,JeanCloud_pcb_regular,4a65616e-436c-46f7-9564-5f7063625f72,rev?*%
%TF.SameCoordinates,Original*%
%TF.FileFunction,Other,User*%
%FSLAX46Y46*%
G04 Gerber Fmt 4.6, Leading zero omitted, Abs format (unit mm)*
G04 Created by KiCad (PCBNEW 5.1.10) date 2021-10-27 21:54:33*
%MOMM*%
%LPD*%
G01*
G04 APERTURE LIST*
%ADD10C,0.050000*%
G04 APERTURE END LIST*
D10*
%TO.C, *%
X97430000Y-68580000D02*
G75*
G03*
X97430000Y-68580000I-3450000J0D01*
G01*
X52980000Y-31750000D02*
G75*
G03*
X52980000Y-31750000I-3450000J0D01*
G01*
X98700000Y-35560000D02*
G75*
G03*
X98700000Y-35560000I-3450000J0D01*
G01*
%TO.C,J1*%
X97215000Y-55685000D02*
X103965000Y-55685000D01*
X103965000Y-55685000D02*
X103965000Y-47185000D01*
X97215000Y-55685000D02*
X97215000Y-47185000D01*
X97215000Y-47185000D02*
X103965000Y-47185000D01*
%TO.C,J2*%
X54080000Y-71015000D02*
X65280000Y-71015000D01*
X65280000Y-71015000D02*
X65280000Y-67415000D01*
X65280000Y-67415000D02*
X54080000Y-67415000D01*
X54080000Y-67415000D02*
X54080000Y-71015000D01*
%TO.C,J3*%
X62970000Y-27410000D02*
X62970000Y-36060000D01*
X62970000Y-36060000D02*
X66570000Y-36060000D01*
X66570000Y-36060000D02*
X66570000Y-27410000D01*
X66570000Y-27410000D02*
X62970000Y-27410000D01*
%TO.C,J4*%
X77575000Y-67415000D02*
X77575000Y-73565000D01*
X77575000Y-73565000D02*
X81175000Y-73565000D01*
X81175000Y-73565000D02*
X81175000Y-67415000D01*
X81175000Y-67415000D02*
X77575000Y-67415000D01*
%TO.C,J5*%
X82655000Y-28045000D02*
X82655000Y-31645000D01*
X88805000Y-28045000D02*
X82655000Y-28045000D01*
X88805000Y-31645000D02*
X88805000Y-28045000D01*
X82655000Y-31645000D02*
X88805000Y-31645000D01*
%TO.C,J6*%
X82655000Y-36090000D02*
X88805000Y-36090000D01*
X88805000Y-36090000D02*
X88805000Y-32490000D01*
X88805000Y-32490000D02*
X82655000Y-32490000D01*
X82655000Y-32490000D02*
X82655000Y-36090000D01*
%TO.C,C1*%
X61820000Y-30500000D02*
G75*
G03*
X61820000Y-30500000I-3400000J0D01*
G01*
%TO.C,R1*%
X56570000Y-34610000D02*
X60270000Y-34610000D01*
X56570000Y-36510000D02*
X56570000Y-34610000D01*
X60270000Y-36510000D02*
X56570000Y-36510000D01*
X60270000Y-34610000D02*
X60270000Y-36510000D01*
%TD*%
M02*
