%TF.GenerationSoftware,KiCad,Pcbnew,5.1.10*%
%TF.CreationDate,2021-10-27T21:54:33+02:00*%
%TF.ProjectId,JeanCloud_pcb_regular,4a65616e-436c-46f7-9564-5f7063625f72,rev?*%
%TF.SameCoordinates,Original*%
%TF.FileFunction,Soldermask,Top*%
%TF.FilePolarity,Negative*%
%FSLAX46Y46*%
G04 Gerber Fmt 4.6, Leading zero omitted, Abs format (unit mm)*
G04 Created by KiCad (PCBNEW 5.1.10) date 2021-10-27 21:54:33*
%MOMM*%
%LPD*%
G01*
G04 APERTURE LIST*
%ADD10C,0.010000*%
%ADD11C,6.800000*%
%ADD12C,1.924000*%
%ADD13O,2.000000X1.300000*%
%ADD14O,2.100000X2.100000*%
%ADD15C,2.000000*%
G04 APERTURE END LIST*
D10*
%TO.C,G\u002A\u002A\u002A*%
G36*
X91418834Y-46206834D02*
G01*
X88413167Y-46206834D01*
X88413167Y-46926500D01*
X90656834Y-46926500D01*
X90656834Y-48450500D01*
X88413167Y-48450500D01*
X88413167Y-49191334D01*
X91418834Y-49191334D01*
X91418834Y-50715334D01*
X86889167Y-50715334D01*
X86889167Y-44682834D01*
X91418834Y-44682834D01*
X91418834Y-46206834D01*
G37*
X91418834Y-46206834D02*
X88413167Y-46206834D01*
X88413167Y-46926500D01*
X90656834Y-46926500D01*
X90656834Y-48450500D01*
X88413167Y-48450500D01*
X88413167Y-49191334D01*
X91418834Y-49191334D01*
X91418834Y-50715334D01*
X86889167Y-50715334D01*
X86889167Y-44682834D01*
X91418834Y-44682834D01*
X91418834Y-46206834D01*
G36*
X82401834Y-46926500D02*
G01*
X83142667Y-46926500D01*
X83142667Y-49191334D01*
X83883500Y-49191334D01*
X83883500Y-46926500D01*
X84624334Y-46926500D01*
X84624334Y-44682834D01*
X86148334Y-44682834D01*
X86148334Y-46947667D01*
X85407500Y-46947667D01*
X85407500Y-49212500D01*
X84645500Y-49212500D01*
X84645500Y-50715334D01*
X82380667Y-50715334D01*
X82380667Y-49212500D01*
X81618667Y-49212500D01*
X81618667Y-46947667D01*
X80877834Y-46947667D01*
X80877834Y-44682834D01*
X82401834Y-44682834D01*
X82401834Y-46926500D01*
G37*
X82401834Y-46926500D02*
X83142667Y-46926500D01*
X83142667Y-49191334D01*
X83883500Y-49191334D01*
X83883500Y-46926500D01*
X84624334Y-46926500D01*
X84624334Y-44682834D01*
X86148334Y-44682834D01*
X86148334Y-46947667D01*
X85407500Y-46947667D01*
X85407500Y-49212500D01*
X84645500Y-49212500D01*
X84645500Y-50715334D01*
X82380667Y-50715334D01*
X82380667Y-49212500D01*
X81618667Y-49212500D01*
X81618667Y-46947667D01*
X80877834Y-46947667D01*
X80877834Y-44682834D01*
X82401834Y-44682834D01*
X82401834Y-46926500D01*
G36*
X78655334Y-45423667D02*
G01*
X79396167Y-45423667D01*
X79396167Y-46947667D01*
X78655334Y-46947667D01*
X78655334Y-48429334D01*
X79396167Y-48429334D01*
X79396167Y-49191334D01*
X80158167Y-49191334D01*
X80158167Y-50715334D01*
X78634167Y-50715334D01*
X78634167Y-49953334D01*
X77872167Y-49953334D01*
X77872167Y-49212500D01*
X77131334Y-49212500D01*
X77131334Y-48450500D01*
X76390500Y-48450500D01*
X76390500Y-50715334D01*
X74866500Y-50715334D01*
X74866500Y-45444834D01*
X76390500Y-45444834D01*
X76390500Y-47688500D01*
X77131334Y-47688500D01*
X77131334Y-46926500D01*
X77872167Y-46926500D01*
X77872167Y-46206834D01*
X77131334Y-46206834D01*
X77131334Y-45444834D01*
X76390500Y-45444834D01*
X74866500Y-45444834D01*
X74866500Y-44682834D01*
X78655334Y-44682834D01*
X78655334Y-45423667D01*
G37*
X78655334Y-45423667D02*
X79396167Y-45423667D01*
X79396167Y-46947667D01*
X78655334Y-46947667D01*
X78655334Y-48429334D01*
X79396167Y-48429334D01*
X79396167Y-49191334D01*
X80158167Y-49191334D01*
X80158167Y-50715334D01*
X78634167Y-50715334D01*
X78634167Y-49953334D01*
X77872167Y-49953334D01*
X77872167Y-49212500D01*
X77131334Y-49212500D01*
X77131334Y-48450500D01*
X76390500Y-48450500D01*
X76390500Y-50715334D01*
X74866500Y-50715334D01*
X74866500Y-45444834D01*
X76390500Y-45444834D01*
X76390500Y-47688500D01*
X77131334Y-47688500D01*
X77131334Y-46926500D01*
X77872167Y-46926500D01*
X77872167Y-46206834D01*
X77131334Y-46206834D01*
X77131334Y-45444834D01*
X76390500Y-45444834D01*
X74866500Y-45444834D01*
X74866500Y-44682834D01*
X78655334Y-44682834D01*
X78655334Y-45423667D01*
G36*
X74146834Y-46206834D02*
G01*
X71882000Y-46206834D01*
X71882000Y-50715334D01*
X70358000Y-50715334D01*
X70358000Y-46206834D01*
X68114334Y-46206834D01*
X68114334Y-44682834D01*
X74146834Y-44682834D01*
X74146834Y-46206834D01*
G37*
X74146834Y-46206834D02*
X71882000Y-46206834D01*
X71882000Y-50715334D01*
X70358000Y-50715334D01*
X70358000Y-46206834D01*
X68114334Y-46206834D01*
X68114334Y-44682834D01*
X74146834Y-44682834D01*
X74146834Y-46206834D01*
G36*
X92815834Y-53530500D02*
G01*
X87566500Y-53530500D01*
X87566500Y-54271334D01*
X89810167Y-54271334D01*
X89810167Y-55012167D01*
X92075000Y-55012167D01*
X92075000Y-56536167D01*
X91313000Y-56536167D01*
X91313000Y-57298167D01*
X89810167Y-57298167D01*
X89810167Y-58039000D01*
X85301667Y-58039000D01*
X85301667Y-56515000D01*
X89789000Y-56515000D01*
X89789000Y-55795334D01*
X87545334Y-55795334D01*
X87545334Y-55033334D01*
X86042500Y-55033334D01*
X86042500Y-52768500D01*
X87545334Y-52768500D01*
X87545334Y-52006500D01*
X92815834Y-52006500D01*
X92815834Y-53530500D01*
G37*
X92815834Y-53530500D02*
X87566500Y-53530500D01*
X87566500Y-54271334D01*
X89810167Y-54271334D01*
X89810167Y-55012167D01*
X92075000Y-55012167D01*
X92075000Y-56536167D01*
X91313000Y-56536167D01*
X91313000Y-57298167D01*
X89810167Y-57298167D01*
X89810167Y-58039000D01*
X85301667Y-58039000D01*
X85301667Y-56515000D01*
X89789000Y-56515000D01*
X89789000Y-55795334D01*
X87545334Y-55795334D01*
X87545334Y-55033334D01*
X86042500Y-55033334D01*
X86042500Y-52768500D01*
X87545334Y-52768500D01*
X87545334Y-52006500D01*
X92815834Y-52006500D01*
X92815834Y-53530500D01*
G36*
X83058000Y-52768500D02*
G01*
X83820000Y-52768500D01*
X83820000Y-54292500D01*
X83058000Y-54292500D01*
X83058000Y-55012167D01*
X83820000Y-55012167D01*
X83820000Y-55774167D01*
X84560834Y-55774167D01*
X84560834Y-57298167D01*
X83820000Y-57298167D01*
X83820000Y-58039000D01*
X79290334Y-58039000D01*
X79290334Y-55033334D01*
X80814334Y-55033334D01*
X80814334Y-57277000D01*
X82296000Y-57277000D01*
X82296000Y-56515000D01*
X83036834Y-56515000D01*
X83036834Y-55795334D01*
X82296000Y-55795334D01*
X82296000Y-55033334D01*
X80814334Y-55033334D01*
X79290334Y-55033334D01*
X79290334Y-52789667D01*
X80814334Y-52789667D01*
X80814334Y-54271334D01*
X82296000Y-54271334D01*
X82296000Y-53530500D01*
X81534000Y-53530500D01*
X81534000Y-52789667D01*
X80814334Y-52789667D01*
X79290334Y-52789667D01*
X79290334Y-52006500D01*
X83058000Y-52006500D01*
X83058000Y-52768500D01*
G37*
X83058000Y-52768500D02*
X83820000Y-52768500D01*
X83820000Y-54292500D01*
X83058000Y-54292500D01*
X83058000Y-55012167D01*
X83820000Y-55012167D01*
X83820000Y-55774167D01*
X84560834Y-55774167D01*
X84560834Y-57298167D01*
X83820000Y-57298167D01*
X83820000Y-58039000D01*
X79290334Y-58039000D01*
X79290334Y-55033334D01*
X80814334Y-55033334D01*
X80814334Y-57277000D01*
X82296000Y-57277000D01*
X82296000Y-56515000D01*
X83036834Y-56515000D01*
X83036834Y-55795334D01*
X82296000Y-55795334D01*
X82296000Y-55033334D01*
X80814334Y-55033334D01*
X79290334Y-55033334D01*
X79290334Y-52789667D01*
X80814334Y-52789667D01*
X80814334Y-54271334D01*
X82296000Y-54271334D01*
X82296000Y-53530500D01*
X81534000Y-53530500D01*
X81534000Y-52789667D01*
X80814334Y-52789667D01*
X79290334Y-52789667D01*
X79290334Y-52006500D01*
X83058000Y-52006500D01*
X83058000Y-52768500D01*
G36*
X77046667Y-53509334D02*
G01*
X77808667Y-53509334D01*
X77808667Y-55774167D01*
X78549500Y-55774167D01*
X78549500Y-58039000D01*
X77025500Y-58039000D01*
X77025500Y-55795334D01*
X74803000Y-55795334D01*
X74803000Y-58039000D01*
X73279000Y-58039000D01*
X73279000Y-55774167D01*
X74041000Y-55774167D01*
X74041000Y-53530500D01*
X75543834Y-53530500D01*
X75543834Y-55012167D01*
X76284667Y-55012167D01*
X76284667Y-53530500D01*
X75543834Y-53530500D01*
X74041000Y-53530500D01*
X74041000Y-53509334D01*
X74781834Y-53509334D01*
X74781834Y-52006500D01*
X77046667Y-52006500D01*
X77046667Y-53509334D01*
G37*
X77046667Y-53509334D02*
X77808667Y-53509334D01*
X77808667Y-55774167D01*
X78549500Y-55774167D01*
X78549500Y-58039000D01*
X77025500Y-58039000D01*
X77025500Y-55795334D01*
X74803000Y-55795334D01*
X74803000Y-58039000D01*
X73279000Y-58039000D01*
X73279000Y-55774167D01*
X74041000Y-55774167D01*
X74041000Y-53530500D01*
X75543834Y-53530500D01*
X75543834Y-55012167D01*
X76284667Y-55012167D01*
X76284667Y-53530500D01*
X75543834Y-53530500D01*
X74041000Y-53530500D01*
X74041000Y-53509334D01*
X74781834Y-53509334D01*
X74781834Y-52006500D01*
X77046667Y-52006500D01*
X77046667Y-53509334D01*
G36*
X69553667Y-56515000D02*
G01*
X72559334Y-56515000D01*
X72559334Y-58039000D01*
X68029667Y-58039000D01*
X68029667Y-52006500D01*
X69553667Y-52006500D01*
X69553667Y-56515000D01*
G37*
X69553667Y-56515000D02*
X72559334Y-56515000D01*
X72559334Y-58039000D01*
X68029667Y-58039000D01*
X68029667Y-52006500D01*
X69553667Y-52006500D01*
X69553667Y-56515000D01*
G36*
X55054500Y-45466000D02*
G01*
X56239834Y-45466000D01*
X56239834Y-45847000D01*
X60960000Y-45847000D01*
X60960000Y-46249167D01*
X64092667Y-46249167D01*
X64092667Y-46630167D01*
X65659000Y-46630167D01*
X65659000Y-47032334D01*
X66061167Y-47032334D01*
X66061167Y-47434500D01*
X66463334Y-47434500D01*
X66463334Y-48217667D01*
X66844334Y-48217667D01*
X66844334Y-50186167D01*
X66061167Y-50186167D01*
X66061167Y-50588334D01*
X65278000Y-50588334D01*
X65278000Y-50990500D01*
X64494834Y-50990500D01*
X64494834Y-51371500D01*
X63309500Y-51371500D01*
X63309500Y-51773667D01*
X62505167Y-51773667D01*
X62505167Y-51371500D01*
X61341000Y-51371500D01*
X61341000Y-51773667D01*
X60536667Y-51773667D01*
X60536667Y-51371500D01*
X59753500Y-51371500D01*
X59753500Y-50990500D01*
X58208334Y-50990500D01*
X58208334Y-51371500D01*
X56239834Y-51371500D01*
X56239834Y-52154667D01*
X55858834Y-52154667D01*
X55858834Y-52916667D01*
X56239834Y-52916667D01*
X56239834Y-53318834D01*
X57806167Y-53318834D01*
X57806167Y-54102000D01*
X58589334Y-54102000D01*
X58589334Y-54885167D01*
X59393667Y-54885167D01*
X59393667Y-55287334D01*
X60155667Y-55287334D01*
X60155667Y-54885167D01*
X60960000Y-54885167D01*
X60960000Y-55287334D01*
X64092667Y-55287334D01*
X64092667Y-55668334D01*
X64854667Y-55668334D01*
X64854667Y-55287334D01*
X65659000Y-55287334D01*
X65659000Y-57255834D01*
X64875834Y-57255834D01*
X64875834Y-58039000D01*
X55054500Y-58039000D01*
X55054500Y-57658000D01*
X54250167Y-57658000D01*
X54250167Y-57255834D01*
X53467000Y-57255834D01*
X53467000Y-56874834D01*
X52683834Y-56874834D01*
X52683834Y-56091667D01*
X51900667Y-56091667D01*
X51900667Y-55689500D01*
X51117500Y-55689500D01*
X51117500Y-54906334D01*
X50334334Y-54906334D01*
X50334334Y-54504167D01*
X49551167Y-54504167D01*
X49551167Y-54123167D01*
X48768000Y-54123167D01*
X48768000Y-52535667D01*
X49551167Y-52535667D01*
X49551167Y-51752500D01*
X50334334Y-51752500D01*
X50334334Y-50186167D01*
X48768000Y-50186167D01*
X48768000Y-49805167D01*
X47984834Y-49805167D01*
X47984834Y-47815500D01*
X48768000Y-47815500D01*
X48768000Y-47032334D01*
X49551167Y-47032334D01*
X49551167Y-46651334D01*
X53488167Y-46651334D01*
X53488167Y-47434500D01*
X54271334Y-47434500D01*
X54271334Y-48217667D01*
X55054500Y-48217667D01*
X55054500Y-49381834D01*
X55837667Y-49381834D01*
X55837667Y-49000834D01*
X56218667Y-49000834D01*
X56218667Y-48238834D01*
X55837667Y-48238834D01*
X55837667Y-47836667D01*
X55435500Y-47836667D01*
X55435500Y-47053500D01*
X55054500Y-47053500D01*
X55054500Y-46651334D01*
X56239834Y-46651334D01*
X56239834Y-47032334D01*
X56642000Y-47032334D01*
X56642000Y-47434500D01*
X57023000Y-47434500D01*
X57023000Y-49381834D01*
X57425167Y-49381834D01*
X57425167Y-49784000D01*
X59753500Y-49784000D01*
X59753500Y-49381834D01*
X60155667Y-49381834D01*
X60155667Y-47455667D01*
X59753500Y-47455667D01*
X59753500Y-47053500D01*
X63711667Y-47053500D01*
X63711667Y-47815500D01*
X64494834Y-47815500D01*
X64494834Y-48217667D01*
X65278000Y-48217667D01*
X65278000Y-48598667D01*
X66040000Y-48598667D01*
X66040000Y-48238834D01*
X65637834Y-48238834D01*
X65637834Y-47836667D01*
X65256834Y-47836667D01*
X65256834Y-47455667D01*
X64071500Y-47455667D01*
X64071500Y-47053500D01*
X63711667Y-47053500D01*
X59753500Y-47053500D01*
X58187167Y-47053500D01*
X58187167Y-46651334D01*
X56239834Y-46651334D01*
X55054500Y-46651334D01*
X53488167Y-46651334D01*
X49551167Y-46651334D01*
X49551167Y-46249167D01*
X50334334Y-46249167D01*
X50334334Y-45063834D01*
X51540834Y-45063834D01*
X51540834Y-45466000D01*
X52302834Y-45466000D01*
X52302834Y-44682834D01*
X55054500Y-44682834D01*
X55054500Y-45466000D01*
G37*
X55054500Y-45466000D02*
X56239834Y-45466000D01*
X56239834Y-45847000D01*
X60960000Y-45847000D01*
X60960000Y-46249167D01*
X64092667Y-46249167D01*
X64092667Y-46630167D01*
X65659000Y-46630167D01*
X65659000Y-47032334D01*
X66061167Y-47032334D01*
X66061167Y-47434500D01*
X66463334Y-47434500D01*
X66463334Y-48217667D01*
X66844334Y-48217667D01*
X66844334Y-50186167D01*
X66061167Y-50186167D01*
X66061167Y-50588334D01*
X65278000Y-50588334D01*
X65278000Y-50990500D01*
X64494834Y-50990500D01*
X64494834Y-51371500D01*
X63309500Y-51371500D01*
X63309500Y-51773667D01*
X62505167Y-51773667D01*
X62505167Y-51371500D01*
X61341000Y-51371500D01*
X61341000Y-51773667D01*
X60536667Y-51773667D01*
X60536667Y-51371500D01*
X59753500Y-51371500D01*
X59753500Y-50990500D01*
X58208334Y-50990500D01*
X58208334Y-51371500D01*
X56239834Y-51371500D01*
X56239834Y-52154667D01*
X55858834Y-52154667D01*
X55858834Y-52916667D01*
X56239834Y-52916667D01*
X56239834Y-53318834D01*
X57806167Y-53318834D01*
X57806167Y-54102000D01*
X58589334Y-54102000D01*
X58589334Y-54885167D01*
X59393667Y-54885167D01*
X59393667Y-55287334D01*
X60155667Y-55287334D01*
X60155667Y-54885167D01*
X60960000Y-54885167D01*
X60960000Y-55287334D01*
X64092667Y-55287334D01*
X64092667Y-55668334D01*
X64854667Y-55668334D01*
X64854667Y-55287334D01*
X65659000Y-55287334D01*
X65659000Y-57255834D01*
X64875834Y-57255834D01*
X64875834Y-58039000D01*
X55054500Y-58039000D01*
X55054500Y-57658000D01*
X54250167Y-57658000D01*
X54250167Y-57255834D01*
X53467000Y-57255834D01*
X53467000Y-56874834D01*
X52683834Y-56874834D01*
X52683834Y-56091667D01*
X51900667Y-56091667D01*
X51900667Y-55689500D01*
X51117500Y-55689500D01*
X51117500Y-54906334D01*
X50334334Y-54906334D01*
X50334334Y-54504167D01*
X49551167Y-54504167D01*
X49551167Y-54123167D01*
X48768000Y-54123167D01*
X48768000Y-52535667D01*
X49551167Y-52535667D01*
X49551167Y-51752500D01*
X50334334Y-51752500D01*
X50334334Y-50186167D01*
X48768000Y-50186167D01*
X48768000Y-49805167D01*
X47984834Y-49805167D01*
X47984834Y-47815500D01*
X48768000Y-47815500D01*
X48768000Y-47032334D01*
X49551167Y-47032334D01*
X49551167Y-46651334D01*
X53488167Y-46651334D01*
X53488167Y-47434500D01*
X54271334Y-47434500D01*
X54271334Y-48217667D01*
X55054500Y-48217667D01*
X55054500Y-49381834D01*
X55837667Y-49381834D01*
X55837667Y-49000834D01*
X56218667Y-49000834D01*
X56218667Y-48238834D01*
X55837667Y-48238834D01*
X55837667Y-47836667D01*
X55435500Y-47836667D01*
X55435500Y-47053500D01*
X55054500Y-47053500D01*
X55054500Y-46651334D01*
X56239834Y-46651334D01*
X56239834Y-47032334D01*
X56642000Y-47032334D01*
X56642000Y-47434500D01*
X57023000Y-47434500D01*
X57023000Y-49381834D01*
X57425167Y-49381834D01*
X57425167Y-49784000D01*
X59753500Y-49784000D01*
X59753500Y-49381834D01*
X60155667Y-49381834D01*
X60155667Y-47455667D01*
X59753500Y-47455667D01*
X59753500Y-47053500D01*
X63711667Y-47053500D01*
X63711667Y-47815500D01*
X64494834Y-47815500D01*
X64494834Y-48217667D01*
X65278000Y-48217667D01*
X65278000Y-48598667D01*
X66040000Y-48598667D01*
X66040000Y-48238834D01*
X65637834Y-48238834D01*
X65637834Y-47836667D01*
X65256834Y-47836667D01*
X65256834Y-47455667D01*
X64071500Y-47455667D01*
X64071500Y-47053500D01*
X63711667Y-47053500D01*
X59753500Y-47053500D01*
X58187167Y-47053500D01*
X58187167Y-46651334D01*
X56239834Y-46651334D01*
X55054500Y-46651334D01*
X53488167Y-46651334D01*
X49551167Y-46651334D01*
X49551167Y-46249167D01*
X50334334Y-46249167D01*
X50334334Y-45063834D01*
X51540834Y-45063834D01*
X51540834Y-45466000D01*
X52302834Y-45466000D01*
X52302834Y-44682834D01*
X55054500Y-44682834D01*
X55054500Y-45466000D01*
%TD*%
D11*
%TO.C, *%
X93980000Y-68580000D03*
%TD*%
%TO.C, *%
X49530000Y-31750000D03*
%TD*%
%TO.C, *%
X95250000Y-35560000D03*
%TD*%
%TO.C, *%
G36*
G01*
X81788000Y-37773000D02*
X83312000Y-37773000D01*
G75*
G02*
X83512000Y-37973000I0J-200000D01*
G01*
X83512000Y-39497000D01*
G75*
G02*
X83312000Y-39697000I-200000J0D01*
G01*
X81788000Y-39697000D01*
G75*
G02*
X81588000Y-39497000I0J200000D01*
G01*
X81588000Y-37973000D01*
G75*
G02*
X81788000Y-37773000I200000J0D01*
G01*
G37*
D12*
X80010000Y-38735000D03*
X77470000Y-38735000D03*
X74930000Y-38735000D03*
X72390000Y-38735000D03*
X69850000Y-38735000D03*
X67310000Y-38735000D03*
X64770000Y-38735000D03*
X62230000Y-38735000D03*
X59690000Y-38735000D03*
X57150000Y-38735000D03*
X54610000Y-38735000D03*
X52070000Y-38735000D03*
X49530000Y-38735000D03*
X46990000Y-38735000D03*
X46990000Y-64135000D03*
X49530000Y-64135000D03*
X52070000Y-64135000D03*
X54610000Y-64135000D03*
X57150000Y-64135000D03*
X59690000Y-64135000D03*
X62230000Y-64135000D03*
X64770000Y-64135000D03*
X67310000Y-64135000D03*
X69850000Y-64135000D03*
X72390000Y-64135000D03*
X74930000Y-64135000D03*
X77470000Y-64135000D03*
X80010000Y-64135000D03*
X82550000Y-64135000D03*
%TD*%
%TO.C,J1*%
G36*
G01*
X98965000Y-51835000D02*
X97615000Y-51835000D01*
G75*
G02*
X97415000Y-51635000I0J200000D01*
G01*
X97415000Y-51235000D01*
G75*
G02*
X97615000Y-51035000I200000J0D01*
G01*
X98965000Y-51035000D01*
G75*
G02*
X99165000Y-51235000I0J-200000D01*
G01*
X99165000Y-51635000D01*
G75*
G02*
X98965000Y-51835000I-200000J0D01*
G01*
G37*
G36*
G01*
X98965000Y-51185000D02*
X97615000Y-51185000D01*
G75*
G02*
X97415000Y-50985000I0J200000D01*
G01*
X97415000Y-50585000D01*
G75*
G02*
X97615000Y-50385000I200000J0D01*
G01*
X98965000Y-50385000D01*
G75*
G02*
X99165000Y-50585000I0J-200000D01*
G01*
X99165000Y-50985000D01*
G75*
G02*
X98965000Y-51185000I-200000J0D01*
G01*
G37*
G36*
G01*
X98965000Y-50535000D02*
X97615000Y-50535000D01*
G75*
G02*
X97415000Y-50335000I0J200000D01*
G01*
X97415000Y-49935000D01*
G75*
G02*
X97615000Y-49735000I200000J0D01*
G01*
X98965000Y-49735000D01*
G75*
G02*
X99165000Y-49935000I0J-200000D01*
G01*
X99165000Y-50335000D01*
G75*
G02*
X98965000Y-50535000I-200000J0D01*
G01*
G37*
G36*
G01*
X98965000Y-52485000D02*
X97615000Y-52485000D01*
G75*
G02*
X97415000Y-52285000I0J200000D01*
G01*
X97415000Y-51885000D01*
G75*
G02*
X97615000Y-51685000I200000J0D01*
G01*
X98965000Y-51685000D01*
G75*
G02*
X99165000Y-51885000I0J-200000D01*
G01*
X99165000Y-52285000D01*
G75*
G02*
X98965000Y-52485000I-200000J0D01*
G01*
G37*
G36*
G01*
X98965000Y-53135000D02*
X97615000Y-53135000D01*
G75*
G02*
X97415000Y-52935000I0J200000D01*
G01*
X97415000Y-52535000D01*
G75*
G02*
X97615000Y-52335000I200000J0D01*
G01*
X98965000Y-52335000D01*
G75*
G02*
X99165000Y-52535000I0J-200000D01*
G01*
X99165000Y-52935000D01*
G75*
G02*
X98965000Y-53135000I-200000J0D01*
G01*
G37*
D13*
X100965000Y-48135000D03*
X100965000Y-54735000D03*
G36*
G01*
X99215000Y-55635000D02*
X97815000Y-55635000D01*
G75*
G02*
X97615000Y-55435000I0J200000D01*
G01*
X97615000Y-53835000D01*
G75*
G02*
X97815000Y-53635000I200000J0D01*
G01*
X99215000Y-53635000D01*
G75*
G02*
X99415000Y-53835000I0J-200000D01*
G01*
X99415000Y-55435000D01*
G75*
G02*
X99215000Y-55635000I-200000J0D01*
G01*
G37*
G36*
G01*
X99215000Y-49235000D02*
X97815000Y-49235000D01*
G75*
G02*
X97615000Y-49035000I0J200000D01*
G01*
X97615000Y-47435000D01*
G75*
G02*
X97815000Y-47235000I200000J0D01*
G01*
X99215000Y-47235000D01*
G75*
G02*
X99415000Y-47435000I0J-200000D01*
G01*
X99415000Y-49035000D01*
G75*
G02*
X99215000Y-49235000I-200000J0D01*
G01*
G37*
G36*
G01*
X101915000Y-53785000D02*
X100015000Y-53785000D01*
G75*
G02*
X99815000Y-53585000I0J200000D01*
G01*
X99815000Y-51685000D01*
G75*
G02*
X100015000Y-51485000I200000J0D01*
G01*
X101915000Y-51485000D01*
G75*
G02*
X102115000Y-51685000I0J-200000D01*
G01*
X102115000Y-53585000D01*
G75*
G02*
X101915000Y-53785000I-200000J0D01*
G01*
G37*
G36*
G01*
X101915000Y-51385000D02*
X100015000Y-51385000D01*
G75*
G02*
X99815000Y-51185000I0J200000D01*
G01*
X99815000Y-49285000D01*
G75*
G02*
X100015000Y-49085000I200000J0D01*
G01*
X101915000Y-49085000D01*
G75*
G02*
X102115000Y-49285000I0J-200000D01*
G01*
X102115000Y-51185000D01*
G75*
G02*
X101915000Y-51385000I-200000J0D01*
G01*
G37*
%TD*%
%TO.C,J2*%
G36*
G01*
X56730000Y-70265000D02*
X55030000Y-70265000D01*
G75*
G02*
X54830000Y-70065000I0J200000D01*
G01*
X54830000Y-68365000D01*
G75*
G02*
X55030000Y-68165000I200000J0D01*
G01*
X56730000Y-68165000D01*
G75*
G02*
X56930000Y-68365000I0J-200000D01*
G01*
X56930000Y-70065000D01*
G75*
G02*
X56730000Y-70265000I-200000J0D01*
G01*
G37*
D14*
X58420000Y-69215000D03*
X60960000Y-69215000D03*
X63500000Y-69215000D03*
%TD*%
%TO.C,J3*%
G36*
G01*
X63720000Y-30060000D02*
X63720000Y-28360000D01*
G75*
G02*
X63920000Y-28160000I200000J0D01*
G01*
X65620000Y-28160000D01*
G75*
G02*
X65820000Y-28360000I0J-200000D01*
G01*
X65820000Y-30060000D01*
G75*
G02*
X65620000Y-30260000I-200000J0D01*
G01*
X63920000Y-30260000D01*
G75*
G02*
X63720000Y-30060000I0J200000D01*
G01*
G37*
X64770000Y-31750000D03*
X64770000Y-34290000D03*
%TD*%
%TO.C,J4*%
G36*
G01*
X78325000Y-70065000D02*
X78325000Y-68365000D01*
G75*
G02*
X78525000Y-68165000I200000J0D01*
G01*
X80225000Y-68165000D01*
G75*
G02*
X80425000Y-68365000I0J-200000D01*
G01*
X80425000Y-70065000D01*
G75*
G02*
X80225000Y-70265000I-200000J0D01*
G01*
X78525000Y-70265000D01*
G75*
G02*
X78325000Y-70065000I0J200000D01*
G01*
G37*
X79375000Y-71755000D03*
%TD*%
%TO.C,J5*%
X86995000Y-29845000D03*
G36*
G01*
X85305000Y-30895000D02*
X83605000Y-30895000D01*
G75*
G02*
X83405000Y-30695000I0J200000D01*
G01*
X83405000Y-28995000D01*
G75*
G02*
X83605000Y-28795000I200000J0D01*
G01*
X85305000Y-28795000D01*
G75*
G02*
X85505000Y-28995000I0J-200000D01*
G01*
X85505000Y-30695000D01*
G75*
G02*
X85305000Y-30895000I-200000J0D01*
G01*
G37*
%TD*%
%TO.C,J6*%
G36*
G01*
X85305000Y-35340000D02*
X83605000Y-35340000D01*
G75*
G02*
X83405000Y-35140000I0J200000D01*
G01*
X83405000Y-33440000D01*
G75*
G02*
X83605000Y-33240000I200000J0D01*
G01*
X85305000Y-33240000D01*
G75*
G02*
X85505000Y-33440000I0J-200000D01*
G01*
X85505000Y-35140000D01*
G75*
G02*
X85305000Y-35340000I-200000J0D01*
G01*
G37*
X86995000Y-34290000D03*
%TD*%
%TO.C,C1*%
G36*
G01*
X59220000Y-32750000D02*
X57620000Y-32750000D01*
G75*
G02*
X57420000Y-32550000I0J200000D01*
G01*
X57420000Y-30950000D01*
G75*
G02*
X57620000Y-30750000I200000J0D01*
G01*
X59220000Y-30750000D01*
G75*
G02*
X59420000Y-30950000I0J-200000D01*
G01*
X59420000Y-32550000D01*
G75*
G02*
X59220000Y-32750000I-200000J0D01*
G01*
G37*
D15*
X58420000Y-29250000D03*
%TD*%
%TO.C,R1*%
G36*
G01*
X60220000Y-34993332D02*
X60220000Y-36126668D01*
G75*
G02*
X59886668Y-36460000I-333332J0D01*
G01*
X58953332Y-36460000D01*
G75*
G02*
X58620000Y-36126668I0J333332D01*
G01*
X58620000Y-34993332D01*
G75*
G02*
X58953332Y-34660000I333332J0D01*
G01*
X59886668Y-34660000D01*
G75*
G02*
X60220000Y-34993332I0J-333332D01*
G01*
G37*
G36*
G01*
X58220000Y-34993332D02*
X58220000Y-36126668D01*
G75*
G02*
X57886668Y-36460000I-333332J0D01*
G01*
X56953332Y-36460000D01*
G75*
G02*
X56620000Y-36126668I0J333332D01*
G01*
X56620000Y-34993332D01*
G75*
G02*
X56953332Y-34660000I333332J0D01*
G01*
X57886668Y-34660000D01*
G75*
G02*
X58220000Y-34993332I0J-333332D01*
G01*
G37*
%TD*%
M02*
