%TF.GenerationSoftware,KiCad,Pcbnew,5.1.10*%
%TF.CreationDate,2021-10-27T21:54:33+02:00*%
%TF.ProjectId,JeanCloud_pcb_regular,4a65616e-436c-46f7-9564-5f7063625f72,rev?*%
%TF.SameCoordinates,Original*%
%TF.FileFunction,Copper,L2,Bot*%
%TF.FilePolarity,Positive*%
%FSLAX46Y46*%
G04 Gerber Fmt 4.6, Leading zero omitted, Abs format (unit mm)*
G04 Created by KiCad (PCBNEW 5.1.10) date 2021-10-27 21:54:33*
%MOMM*%
%LPD*%
G01*
G04 APERTURE LIST*
%TA.AperFunction,ComponentPad*%
%ADD10C,6.400000*%
%TD*%
%TA.AperFunction,ComponentPad*%
%ADD11R,1.524000X1.524000*%
%TD*%
%TA.AperFunction,ComponentPad*%
%ADD12C,1.524000*%
%TD*%
%TA.AperFunction,ComponentPad*%
%ADD13O,1.600000X0.900000*%
%TD*%
%TA.AperFunction,ComponentPad*%
%ADD14R,1.700000X1.700000*%
%TD*%
%TA.AperFunction,ComponentPad*%
%ADD15O,1.700000X1.700000*%
%TD*%
%TA.AperFunction,ComponentPad*%
%ADD16R,1.600000X1.600000*%
%TD*%
%TA.AperFunction,ComponentPad*%
%ADD17C,1.600000*%
%TD*%
%TA.AperFunction,ViaPad*%
%ADD18C,0.600000*%
%TD*%
%TA.AperFunction,Conductor*%
%ADD19C,0.250000*%
%TD*%
%TA.AperFunction,Conductor*%
%ADD20C,0.500000*%
%TD*%
G04 APERTURE END LIST*
D10*
%TO.P, ,1*%
%TO.N,N/C*%
X93980000Y-68580000D03*
%TD*%
%TO.P, ,1*%
%TO.N,N/C*%
X49530000Y-31750000D03*
%TD*%
%TO.P, ,1*%
%TO.N,N/C*%
X95250000Y-35560000D03*
%TD*%
D11*
%TO.P, ,1*%
%TO.N,Net-(U1-Pad1)*%
X82550000Y-38735000D03*
D12*
%TO.P, ,2*%
%TO.N,Net-(U1-Pad2)*%
X80010000Y-38735000D03*
%TO.P, ,3*%
%TO.N,Net-(U1-Pad3)*%
X77470000Y-38735000D03*
%TO.P, ,4*%
%TO.N,Net-(U1-Pad4)*%
X74930000Y-38735000D03*
%TO.P, ,5*%
%TO.N,Net-(U1-Pad5)*%
X72390000Y-38735000D03*
%TO.P, ,6*%
%TO.N,Net-(J4-Pad1)*%
X69850000Y-38735000D03*
%TO.P, ,7*%
%TO.N,Net-(U1-Pad7)*%
X67310000Y-38735000D03*
%TO.P, ,8*%
%TO.N,Net-(U1-Pad8)*%
X64770000Y-38735000D03*
%TO.P, ,9*%
%TO.N,Net-(U1-Pad9)*%
X62230000Y-38735000D03*
%TO.P, ,10*%
%TO.N,Net-(U1-Pad10)*%
X59690000Y-38735000D03*
%TO.P, ,11*%
%TO.N,Net-(R1-Pad2)*%
X57150000Y-38735000D03*
%TO.P, ,12*%
%TO.N,Net-(J5-Pad1)*%
X54610000Y-38735000D03*
%TO.P, ,13*%
%TO.N,Net-(U1-Pad13)*%
X52070000Y-38735000D03*
%TO.P, ,14*%
%TO.N,GND*%
X49530000Y-38735000D03*
%TO.P, ,15*%
%TO.N,5V*%
X46990000Y-38735000D03*
%TO.P, ,16*%
%TO.N,Net-(U1-Pad16)*%
X46990000Y-64135000D03*
%TO.P, ,17*%
%TO.N,GND*%
X49530000Y-64135000D03*
%TO.P, ,18*%
%TO.N,Net-(U1-Pad18)*%
X52070000Y-64135000D03*
%TO.P, ,19*%
%TO.N,Net-(U1-Pad19)*%
X54610000Y-64135000D03*
%TO.P, ,20*%
%TO.N,Net-(U1-Pad20)*%
X57150000Y-64135000D03*
%TO.P, ,21*%
%TO.N,Net-(U1-Pad21)*%
X59690000Y-64135000D03*
%TO.P, ,22*%
%TO.N,Net-(U1-Pad22)*%
X62230000Y-64135000D03*
%TO.P, ,23*%
%TO.N,Net-(J2-Pad2)*%
X64770000Y-64135000D03*
%TO.P, ,24*%
%TO.N,Net-(J2-Pad1)*%
X67310000Y-64135000D03*
%TO.P, ,25*%
%TO.N,Net-(U1-Pad25)*%
X69850000Y-64135000D03*
%TO.P, ,26*%
%TO.N,Net-(U1-Pad26)*%
X72390000Y-64135000D03*
%TO.P, ,27*%
%TO.N,Net-(U1-Pad27)*%
X74930000Y-64135000D03*
%TO.P, ,28*%
%TO.N,Net-(U1-Pad28)*%
X77470000Y-64135000D03*
%TO.P, ,29*%
%TO.N,Net-(U1-Pad29)*%
X80010000Y-64135000D03*
%TO.P, ,30*%
%TO.N,Net-(J6-Pad1)*%
X82550000Y-64135000D03*
%TD*%
D13*
%TO.P,J1,SH*%
%TO.N,Net-(J1-PadSH)*%
X100965000Y-48135000D03*
X100965000Y-54735000D03*
%TD*%
D14*
%TO.P,J2,1*%
%TO.N,Net-(J2-Pad1)*%
X55880000Y-69215000D03*
D15*
%TO.P,J2,2*%
%TO.N,Net-(J2-Pad2)*%
X58420000Y-69215000D03*
%TO.P,J2,3*%
%TO.N,GND*%
X60960000Y-69215000D03*
%TO.P,J2,4*%
%TO.N,5V*%
X63500000Y-69215000D03*
%TD*%
D14*
%TO.P,J3,1*%
%TO.N,GND*%
X64770000Y-29210000D03*
D15*
%TO.P,J3,2*%
%TO.N,Net-(J3-Pad2)*%
X64770000Y-31750000D03*
%TO.P,J3,3*%
%TO.N,5V*%
X64770000Y-34290000D03*
%TD*%
D14*
%TO.P,J4,1*%
%TO.N,Net-(J4-Pad1)*%
X79375000Y-69215000D03*
D15*
%TO.P,J4,2*%
%TO.N,GND*%
X79375000Y-71755000D03*
%TD*%
%TO.P,J5,2*%
%TO.N,GND*%
X86995000Y-29845000D03*
D14*
%TO.P,J5,1*%
%TO.N,Net-(J5-Pad1)*%
X84455000Y-29845000D03*
%TD*%
%TO.P,J6,1*%
%TO.N,Net-(J6-Pad1)*%
X84455000Y-34290000D03*
D15*
%TO.P,J6,2*%
%TO.N,GND*%
X86995000Y-34290000D03*
%TD*%
D16*
%TO.P,C1,1*%
%TO.N,5V*%
X58420000Y-31750000D03*
D17*
%TO.P,C1,2*%
%TO.N,GND*%
X58420000Y-29250000D03*
%TD*%
D18*
%TO.N,5V*%
X96520000Y-62230000D03*
%TD*%
D19*
%TO.N,GND*%
X64730000Y-29250000D02*
X64770000Y-29210000D01*
D20*
%TO.N,5V*%
X96520000Y-62230000D02*
X93980000Y-62230000D01*
X93980000Y-62230000D02*
X82550000Y-73660000D01*
X67945000Y-73660000D02*
X63500000Y-69215000D01*
X82550000Y-73660000D02*
X67945000Y-73660000D01*
X41275000Y-44450000D02*
X46990000Y-38735000D01*
X41275000Y-67310000D02*
X41275000Y-44450000D01*
X48260000Y-74295000D02*
X41275000Y-67310000D01*
X58420000Y-74295000D02*
X48260000Y-74295000D01*
X63500000Y-69215000D02*
X58420000Y-74295000D01*
X46990000Y-38735000D02*
X46990000Y-36830000D01*
X46990000Y-36830000D02*
X50800000Y-36830000D01*
X55880000Y-31750000D02*
X58420000Y-31750000D01*
X50800000Y-36830000D02*
X55880000Y-31750000D01*
X62230000Y-31750000D02*
X64770000Y-34290000D01*
X58420000Y-31750000D02*
X62230000Y-31750000D01*
%TO.N,Net-(J2-Pad1)*%
X55880000Y-69215000D02*
X55880000Y-67945000D01*
X55880000Y-67945000D02*
X57150000Y-66675000D01*
X64770000Y-66675000D02*
X67310000Y-64135000D01*
X57150000Y-66675000D02*
X64770000Y-66675000D01*
%TO.N,Net-(J2-Pad2)*%
X44450000Y-62230000D02*
X62865000Y-62230000D01*
X43180000Y-64770000D02*
X43180000Y-63500000D01*
X50800000Y-66040000D02*
X44450000Y-66040000D01*
X44450000Y-66040000D02*
X43180000Y-64770000D01*
X52705000Y-70485000D02*
X52705000Y-67945000D01*
X57150000Y-71755000D02*
X53975000Y-71755000D01*
X62865000Y-62230000D02*
X64770000Y-64135000D01*
X52705000Y-67945000D02*
X50800000Y-66040000D01*
X58420000Y-70485000D02*
X57150000Y-71755000D01*
X43180000Y-63500000D02*
X44450000Y-62230000D01*
X53975000Y-71755000D02*
X52705000Y-70485000D01*
X58420000Y-69215000D02*
X58420000Y-70485000D01*
%TO.N,Net-(J4-Pad1)*%
X79375000Y-69215000D02*
X83820000Y-69215000D01*
X83820000Y-69215000D02*
X93980000Y-59055000D01*
X93980000Y-59055000D02*
X93980000Y-44450000D01*
X93980000Y-44450000D02*
X90805000Y-41275000D01*
X72390000Y-41275000D02*
X69850000Y-38735000D01*
X90805000Y-41275000D02*
X72390000Y-41275000D01*
%TD*%
M02*
