%TF.GenerationSoftware,KiCad,Pcbnew,5.1.10*%
%TF.CreationDate,2021-10-27T21:34:53+02:00*%
%TF.ProjectId,JeanCloud_pcb_regular,4a65616e-436c-46f7-9564-5f7063625f72,rev?*%
%TF.SameCoordinates,Original*%
%TF.FileFunction,Copper,L1,Top*%
%TF.FilePolarity,Positive*%
%FSLAX46Y46*%
G04 Gerber Fmt 4.6, Leading zero omitted, Abs format (unit mm)*
G04 Created by KiCad (PCBNEW 5.1.10) date 2021-10-27 21:34:53*
%MOMM*%
%LPD*%
G01*
G04 APERTURE LIST*
%TA.AperFunction,SMDPad,CuDef*%
%ADD10R,1.350000X0.400000*%
%TD*%
%TA.AperFunction,ComponentPad*%
%ADD11O,1.600000X0.900000*%
%TD*%
%TA.AperFunction,SMDPad,CuDef*%
%ADD12R,1.400000X1.600000*%
%TD*%
%TA.AperFunction,SMDPad,CuDef*%
%ADD13R,1.900000X1.900000*%
%TD*%
%TA.AperFunction,ComponentPad*%
%ADD14R,1.700000X1.700000*%
%TD*%
%TA.AperFunction,ComponentPad*%
%ADD15O,1.700000X1.700000*%
%TD*%
%TA.AperFunction,ComponentPad*%
%ADD16R,1.524000X1.524000*%
%TD*%
%TA.AperFunction,ComponentPad*%
%ADD17C,1.524000*%
%TD*%
%TA.AperFunction,ComponentPad*%
%ADD18R,1.600000X1.600000*%
%TD*%
%TA.AperFunction,ComponentPad*%
%ADD19C,1.600000*%
%TD*%
%TA.AperFunction,ViaPad*%
%ADD20C,0.600000*%
%TD*%
%TA.AperFunction,Conductor*%
%ADD21C,0.500000*%
%TD*%
%TA.AperFunction,Conductor*%
%ADD22C,0.250000*%
%TD*%
G04 APERTURE END LIST*
D10*
%TO.P,J1,3*%
%TO.N,Net-(J1-Pad3)*%
X98290000Y-51435000D03*
%TO.P,J1,4*%
%TO.N,Net-(J1-Pad4)*%
X98290000Y-50785000D03*
%TO.P,J1,5*%
%TO.N,GND*%
X98290000Y-50135000D03*
%TO.P,J1,2*%
%TO.N,Net-(J1-Pad2)*%
X98290000Y-52085000D03*
%TO.P,J1,1*%
%TO.N,5V*%
X98290000Y-52735000D03*
D11*
%TO.P,J1,SH*%
%TO.N,Net-(J1-PadSH)*%
X100965000Y-48135000D03*
X100965000Y-54735000D03*
D12*
X98515000Y-54635000D03*
X98515000Y-48235000D03*
D13*
X100965000Y-52635000D03*
X100965000Y-50235000D03*
%TD*%
D14*
%TO.P,J2,1*%
%TO.N,Net-(J2-Pad1)*%
X55880000Y-69215000D03*
D15*
%TO.P,J2,2*%
%TO.N,Net-(J2-Pad2)*%
X58420000Y-69215000D03*
%TO.P,J2,3*%
%TO.N,GND*%
X60960000Y-69215000D03*
%TO.P,J2,4*%
%TO.N,5V*%
X63500000Y-69215000D03*
%TD*%
D14*
%TO.P,J3,1*%
%TO.N,GND*%
X64770000Y-29210000D03*
D15*
%TO.P,J3,2*%
%TO.N,Net-(J3-Pad2)*%
X64770000Y-31750000D03*
%TO.P,J3,3*%
%TO.N,5V*%
X64770000Y-34290000D03*
%TD*%
D14*
%TO.P,J4,1*%
%TO.N,Net-(J4-Pad1)*%
X79375000Y-69215000D03*
D15*
%TO.P,J4,2*%
%TO.N,GND*%
X79375000Y-71755000D03*
%TD*%
%TO.P,J5,2*%
%TO.N,GND*%
X86995000Y-29845000D03*
D14*
%TO.P,J5,1*%
%TO.N,Net-(J5-Pad1)*%
X84455000Y-29845000D03*
%TD*%
%TO.P,J6,1*%
%TO.N,Net-(J6-Pad1)*%
X84455000Y-34290000D03*
D15*
%TO.P,J6,2*%
%TO.N,GND*%
X86995000Y-34290000D03*
%TD*%
D16*
%TO.P,U1,1*%
%TO.N,Net-(U1-Pad1)*%
X82550000Y-38735000D03*
D17*
%TO.P,U1,2*%
%TO.N,Net-(U1-Pad2)*%
X80010000Y-38735000D03*
%TO.P,U1,3*%
%TO.N,Net-(U1-Pad3)*%
X77470000Y-38735000D03*
%TO.P,U1,4*%
%TO.N,Net-(U1-Pad4)*%
X74930000Y-38735000D03*
%TO.P,U1,5*%
%TO.N,Net-(U1-Pad5)*%
X72390000Y-38735000D03*
%TO.P,U1,6*%
%TO.N,Net-(J4-Pad1)*%
X69850000Y-38735000D03*
%TO.P,U1,7*%
%TO.N,Net-(U1-Pad7)*%
X67310000Y-38735000D03*
%TO.P,U1,8*%
%TO.N,Net-(U1-Pad8)*%
X64770000Y-38735000D03*
%TO.P,U1,9*%
%TO.N,Net-(U1-Pad9)*%
X62230000Y-38735000D03*
%TO.P,U1,10*%
%TO.N,Net-(U1-Pad10)*%
X59690000Y-38735000D03*
%TO.P,U1,11*%
%TO.N,Net-(R1-Pad2)*%
X57150000Y-38735000D03*
%TO.P,U1,12*%
%TO.N,Net-(J5-Pad1)*%
X54610000Y-38735000D03*
%TO.P,U1,13*%
%TO.N,Net-(U1-Pad13)*%
X52070000Y-38735000D03*
%TO.P,U1,14*%
%TO.N,GND*%
X49530000Y-38735000D03*
%TO.P,U1,15*%
%TO.N,5V*%
X46990000Y-38735000D03*
%TO.P,U1,16*%
%TO.N,Net-(U1-Pad16)*%
X46990000Y-64135000D03*
%TO.P,U1,17*%
%TO.N,GND*%
X49530000Y-64135000D03*
%TO.P,U1,18*%
%TO.N,Net-(U1-Pad18)*%
X52070000Y-64135000D03*
%TO.P,U1,19*%
%TO.N,Net-(U1-Pad19)*%
X54610000Y-64135000D03*
%TO.P,U1,20*%
%TO.N,Net-(U1-Pad20)*%
X57150000Y-64135000D03*
%TO.P,U1,21*%
%TO.N,Net-(U1-Pad21)*%
X59690000Y-64135000D03*
%TO.P,U1,22*%
%TO.N,Net-(U1-Pad22)*%
X62230000Y-64135000D03*
%TO.P,U1,23*%
%TO.N,Net-(J2-Pad2)*%
X64770000Y-64135000D03*
%TO.P,U1,24*%
%TO.N,Net-(J2-Pad1)*%
X67310000Y-64135000D03*
%TO.P,U1,25*%
%TO.N,Net-(U1-Pad25)*%
X69850000Y-64135000D03*
%TO.P,U1,26*%
%TO.N,Net-(U1-Pad26)*%
X72390000Y-64135000D03*
%TO.P,U1,27*%
%TO.N,Net-(U1-Pad27)*%
X74930000Y-64135000D03*
%TO.P,U1,28*%
%TO.N,Net-(U1-Pad28)*%
X77470000Y-64135000D03*
%TO.P,U1,29*%
%TO.N,Net-(U1-Pad29)*%
X80010000Y-64135000D03*
%TO.P,U1,30*%
%TO.N,Net-(J6-Pad1)*%
X82550000Y-64135000D03*
%TD*%
D18*
%TO.P,C1,1*%
%TO.N,5V*%
X58420000Y-31750000D03*
D19*
%TO.P,C1,2*%
%TO.N,GND*%
X58420000Y-29250000D03*
%TD*%
%TO.P,R1,1*%
%TO.N,Net-(J3-Pad2)*%
%TA.AperFunction,SMDPad,CuDef*%
G36*
G01*
X60020000Y-35109999D02*
X60020000Y-36010001D01*
G75*
G02*
X59770001Y-36260000I-249999J0D01*
G01*
X59069999Y-36260000D01*
G75*
G02*
X58820000Y-36010001I0J249999D01*
G01*
X58820000Y-35109999D01*
G75*
G02*
X59069999Y-34860000I249999J0D01*
G01*
X59770001Y-34860000D01*
G75*
G02*
X60020000Y-35109999I0J-249999D01*
G01*
G37*
%TD.AperFunction*%
%TO.P,R1,2*%
%TO.N,Net-(R1-Pad2)*%
%TA.AperFunction,SMDPad,CuDef*%
G36*
G01*
X58020000Y-35109999D02*
X58020000Y-36010001D01*
G75*
G02*
X57770001Y-36260000I-249999J0D01*
G01*
X57069999Y-36260000D01*
G75*
G02*
X56820000Y-36010001I0J249999D01*
G01*
X56820000Y-35109999D01*
G75*
G02*
X57069999Y-34860000I249999J0D01*
G01*
X57770001Y-34860000D01*
G75*
G02*
X58020000Y-35109999I0J-249999D01*
G01*
G37*
%TD.AperFunction*%
%TD*%
D20*
%TO.N,5V*%
X96520000Y-62230000D03*
%TD*%
D21*
%TO.N,GND*%
X49530000Y-64135000D02*
X49530000Y-57785000D01*
X49530000Y-57785000D02*
X45720000Y-53975000D01*
X45720000Y-42545000D02*
X49530000Y-38735000D01*
X45720000Y-53975000D02*
X45720000Y-42545000D01*
X58420000Y-66675000D02*
X60960000Y-69215000D01*
X52070000Y-66675000D02*
X58420000Y-66675000D01*
X49530000Y-64135000D02*
X52070000Y-66675000D01*
X63500000Y-71755000D02*
X60960000Y-69215000D01*
X79375000Y-71755000D02*
X63500000Y-71755000D01*
X97115000Y-50135000D02*
X93345000Y-46365000D01*
X98290000Y-50135000D02*
X97115000Y-50135000D01*
X93345000Y-40640000D02*
X86995000Y-34290000D01*
X93345000Y-46365000D02*
X93345000Y-40640000D01*
X86995000Y-34290000D02*
X86995000Y-29845000D01*
X97115000Y-50135000D02*
X95250000Y-52000000D01*
X95250000Y-52000000D02*
X95250000Y-60960000D01*
X84455000Y-71755000D02*
X79375000Y-71755000D01*
X95250000Y-60960000D02*
X84455000Y-71755000D01*
D22*
X64730000Y-29250000D02*
X64770000Y-29210000D01*
X49530000Y-38140000D02*
X49530000Y-38735000D01*
X58420000Y-29250000D02*
X49530000Y-38140000D01*
D21*
%TO.N,5V*%
X98104998Y-52735000D02*
X96520000Y-54319998D01*
X98290000Y-52735000D02*
X98104998Y-52735000D01*
X96520000Y-54319998D02*
X96520000Y-62230000D01*
%TO.N,Net-(J1-PadSH)*%
X100865000Y-48235000D02*
X100965000Y-48135000D01*
X98515000Y-48235000D02*
X100865000Y-48235000D01*
X100865000Y-54635000D02*
X100965000Y-54735000D01*
X98515000Y-54635000D02*
X100865000Y-54635000D01*
X100965000Y-54735000D02*
X100965000Y-48135000D01*
D22*
%TO.N,Net-(J3-Pad2)*%
X63230000Y-31750000D02*
X59420000Y-35560000D01*
X64770000Y-31750000D02*
X63230000Y-31750000D01*
D21*
%TO.N,Net-(J5-Pad1)*%
X83820000Y-41275000D02*
X57150000Y-41275000D01*
X85090000Y-40005000D02*
X83820000Y-41275000D01*
X82550000Y-35560000D02*
X85090000Y-38100000D01*
X85090000Y-38100000D02*
X85090000Y-40005000D01*
X82550000Y-31115000D02*
X82550000Y-35560000D01*
X57150000Y-41275000D02*
X54610000Y-38735000D01*
X83820000Y-29845000D02*
X82550000Y-31115000D01*
X84455000Y-29845000D02*
X83820000Y-29845000D01*
%TO.N,Net-(J6-Pad1)*%
X82550000Y-64135000D02*
X88900000Y-64135000D01*
X88900000Y-64135000D02*
X93980000Y-59055000D01*
X93980000Y-59055000D02*
X93980000Y-49530000D01*
X93980000Y-49530000D02*
X92075000Y-47625000D01*
X92075000Y-47625000D02*
X92075000Y-41910000D01*
X85694999Y-35529999D02*
X84455000Y-34290000D01*
X92075000Y-41910000D02*
X85694999Y-35529999D01*
D22*
%TO.N,Net-(R1-Pad2)*%
X57420000Y-38465000D02*
X57150000Y-38735000D01*
X57420000Y-35560000D02*
X57420000Y-38465000D01*
%TD*%
M02*
