G04 #@! TF.GenerationSoftware,KiCad,Pcbnew,5.1.10*
G04 #@! TF.CreationDate,2021-10-26T18:40:00+02:00*
G04 #@! TF.ProjectId,JeanCloud_pcb_milled,4a65616e-436c-46f7-9564-5f7063625f6d,rev?*
G04 #@! TF.SameCoordinates,PX1bc28b0PY5c63450*
G04 #@! TF.FileFunction,Profile,NP*
%FSLAX46Y46*%
G04 Gerber Fmt 4.6, Leading zero omitted, Abs format (unit mm)*
G04 Created by KiCad (PCBNEW 5.1.10) date 2021-10-26 18:40:00*
%MOMM*%
%LPD*%
G01*
G04 APERTURE LIST*
G04 #@! TA.AperFunction,Profile*
%ADD10C,0.150000*%
G04 #@! TD*
G04 #@! TA.AperFunction,Profile*
%ADD11C,0.100000*%
G04 #@! TD*
G04 APERTURE END LIST*
D10*
X3800266Y15595600D02*
G75*
G03*
X3800266Y15595600I-1666666J0D01*
G01*
X-366400Y15595600D02*
X4633600Y15595600D01*
X2133600Y18095600D02*
X2133600Y13095600D01*
X3800266Y15595600D02*
G75*
G03*
X3800266Y15595600I-1666666J0D01*
G01*
X-366400Y15595600D02*
X4633600Y15595600D01*
X2133600Y18095600D02*
X2133600Y13095600D01*
D11*
X22362500Y70013200D02*
X57880100Y70013200D01*
X57880100Y70013200D02*
X58640900Y69994100D01*
X58640900Y69994100D02*
X59391500Y69937400D01*
X59391500Y69937400D02*
X60130900Y69843900D01*
X60130900Y69843900D02*
X60858200Y69714700D01*
X60858200Y69714700D02*
X61572600Y69550700D01*
X61572600Y69550700D02*
X62273100Y69352600D01*
X62273100Y69352600D02*
X62958800Y69121500D01*
X62958800Y69121500D02*
X63628700Y68858300D01*
X63628700Y68858300D02*
X64282100Y68563900D01*
X64282100Y68563900D02*
X64917900Y68239100D01*
X64917900Y68239100D02*
X65535200Y67884900D01*
X65535200Y67884900D02*
X66133200Y67502300D01*
X66133200Y67502300D02*
X66710900Y67092100D01*
X66710900Y67092100D02*
X67267400Y66655200D01*
X67267400Y66655200D02*
X67801800Y66192500D01*
X67801800Y66192500D02*
X68313200Y65705100D01*
X68313200Y65705100D02*
X68800700Y65193700D01*
X68800700Y65193700D02*
X69263300Y64659300D01*
X69263300Y64659300D02*
X69700200Y64102700D01*
X69700200Y64102700D02*
X70110400Y63525000D01*
X70110400Y63525000D02*
X70493100Y62927100D01*
X70493100Y62927100D02*
X70847200Y62309700D01*
X70847200Y62309700D02*
X71172000Y61673900D01*
X71172000Y61673900D02*
X71466400Y61020600D01*
X71466400Y61020600D02*
X71729700Y60350600D01*
X71729700Y60350600D02*
X71960700Y59665000D01*
X71960700Y59665000D02*
X72158800Y58964500D01*
X72158800Y58964500D02*
X72322900Y58250100D01*
X72322900Y58250100D02*
X72452100Y57522800D01*
X72452100Y57522800D02*
X72545500Y56783400D01*
X72545500Y56783400D02*
X72602200Y56032800D01*
X72602200Y56032800D02*
X72621300Y55272000D01*
X72621300Y55272000D02*
X72621300Y35754400D01*
X72621300Y35754400D02*
X72602200Y34993600D01*
X72602200Y34993600D02*
X72545500Y34243000D01*
X72545500Y34243000D02*
X72452100Y33503600D01*
X72452100Y33503600D02*
X72322900Y32776300D01*
X72322900Y32776300D02*
X72158800Y32061900D01*
X72158800Y32061900D02*
X71960700Y31361400D01*
X71960700Y31361400D02*
X71729700Y30675700D01*
X71729700Y30675700D02*
X71466400Y30005800D01*
X71466400Y30005800D02*
X71172000Y29352400D01*
X71172000Y29352400D02*
X70847200Y28716600D01*
X70847200Y28716600D02*
X70493100Y28099300D01*
X70493100Y28099300D02*
X70110400Y27501300D01*
X70110400Y27501300D02*
X69700200Y26923600D01*
X69700200Y26923600D02*
X69263300Y26367100D01*
X69263300Y26367100D02*
X68800700Y25832700D01*
X68800700Y25832700D02*
X68313200Y25321300D01*
X68313200Y25321300D02*
X67801800Y24833800D01*
X67801800Y24833800D02*
X67267400Y24371200D01*
X67267400Y24371200D02*
X66710900Y23934300D01*
X66710900Y23934300D02*
X66133200Y23524100D01*
X66133200Y23524100D02*
X65535200Y23141400D01*
X65535200Y23141400D02*
X64917900Y22787300D01*
X64917900Y22787300D02*
X64282100Y22462500D01*
X64282100Y22462500D02*
X63628700Y22168100D01*
X63628700Y22168100D02*
X62958800Y21904800D01*
X62958800Y21904800D02*
X62273100Y21673800D01*
X62273100Y21673800D02*
X61572600Y21475700D01*
X61572600Y21475700D02*
X60858200Y21311600D01*
X60858200Y21311600D02*
X60130900Y21182400D01*
X60130900Y21182400D02*
X59391500Y21089000D01*
X59391500Y21089000D02*
X58640900Y21032300D01*
X58640900Y21032300D02*
X57880100Y21013200D01*
X57880100Y21013200D02*
X22362500Y21013200D01*
X22362500Y21013200D02*
X21601700Y21032300D01*
X21601700Y21032300D02*
X20851100Y21089000D01*
X20851100Y21089000D02*
X20111700Y21182400D01*
X20111700Y21182400D02*
X19384400Y21311600D01*
X19384400Y21311600D02*
X18670000Y21475700D01*
X18670000Y21475700D02*
X17969500Y21673800D01*
X17969500Y21673800D02*
X17283900Y21904800D01*
X17283900Y21904800D02*
X16613900Y22168100D01*
X16613900Y22168100D02*
X15960600Y22462500D01*
X15960600Y22462500D02*
X15324800Y22787300D01*
X15324800Y22787300D02*
X14707400Y23141400D01*
X14707400Y23141400D02*
X14109500Y23524100D01*
X14109500Y23524100D02*
X13531800Y23934300D01*
X13531800Y23934300D02*
X12975200Y24371200D01*
X12975200Y24371200D02*
X12440800Y24833800D01*
X12440800Y24833800D02*
X11929400Y25321300D01*
X11929400Y25321300D02*
X11442000Y25832700D01*
X11442000Y25832700D02*
X10979300Y26367100D01*
X10979300Y26367100D02*
X10542400Y26923600D01*
X10542400Y26923600D02*
X10132200Y27501300D01*
X10132200Y27501300D02*
X9749600Y28099300D01*
X9749600Y28099300D02*
X9395400Y28716600D01*
X9395400Y28716600D02*
X9070600Y29352400D01*
X9070600Y29352400D02*
X8776200Y30005800D01*
X8776200Y30005800D02*
X8513000Y30675700D01*
X8513000Y30675700D02*
X8281900Y31361400D01*
X8281900Y31361400D02*
X8083800Y32061900D01*
X8083800Y32061900D02*
X7919800Y32776300D01*
X7919800Y32776300D02*
X7790600Y33503600D01*
X7790600Y33503600D02*
X7697100Y34243000D01*
X7697100Y34243000D02*
X7640400Y34993600D01*
X7640400Y34993600D02*
X7621300Y35754400D01*
X7621300Y35754400D02*
X7621300Y55272000D01*
X7621300Y55272000D02*
X7640400Y56032800D01*
X7640400Y56032800D02*
X7697100Y56783400D01*
X7697100Y56783400D02*
X7790600Y57522800D01*
X7790600Y57522800D02*
X7919800Y58250100D01*
X7919800Y58250100D02*
X8083800Y58964500D01*
X8083800Y58964500D02*
X8281900Y59665000D01*
X8281900Y59665000D02*
X8513000Y60350600D01*
X8513000Y60350600D02*
X8776200Y61020600D01*
X8776200Y61020600D02*
X9070600Y61673900D01*
X9070600Y61673900D02*
X9395400Y62309700D01*
X9395400Y62309700D02*
X9749600Y62927100D01*
X9749600Y62927100D02*
X10132200Y63525000D01*
X10132200Y63525000D02*
X10542400Y64102700D01*
X10542400Y64102700D02*
X10979300Y64659300D01*
X10979300Y64659300D02*
X11442000Y65193700D01*
X11442000Y65193700D02*
X11929400Y65705100D01*
X11929400Y65705100D02*
X12440800Y66192500D01*
X12440800Y66192500D02*
X12975200Y66655200D01*
X12975200Y66655200D02*
X13531800Y67092100D01*
X13531800Y67092100D02*
X14109500Y67502300D01*
X14109500Y67502300D02*
X14707400Y67884900D01*
X14707400Y67884900D02*
X15324800Y68239100D01*
X15324800Y68239100D02*
X15960600Y68563900D01*
X15960600Y68563900D02*
X16613900Y68858300D01*
X16613900Y68858300D02*
X17283900Y69121500D01*
X17283900Y69121500D02*
X17969500Y69352600D01*
X17969500Y69352600D02*
X18670000Y69550700D01*
X18670000Y69550700D02*
X19384400Y69714700D01*
X19384400Y69714700D02*
X20111700Y69843900D01*
X20111700Y69843900D02*
X20851100Y69937400D01*
X20851100Y69937400D02*
X21601700Y69994100D01*
X21601700Y69994100D02*
X22362500Y70013200D01*
X22362500Y70013200D02*
X22362500Y70013200D01*
X22362500Y70013200D02*
X22362500Y70013200D01*
X21140400Y63940700D02*
X21129500Y63724900D01*
X21129500Y63724900D02*
X21097500Y63515400D01*
X21097500Y63515400D02*
X21045500Y63313200D01*
X21045500Y63313200D02*
X20974600Y63119300D01*
X20974600Y63119300D02*
X20885700Y62934900D01*
X20885700Y62934900D02*
X20780000Y62760900D01*
X20780000Y62760900D02*
X20658500Y62598500D01*
X20658500Y62598500D02*
X20522400Y62448600D01*
X20522400Y62448600D02*
X20372500Y62312500D01*
X20372500Y62312500D02*
X20210100Y62191000D01*
X20210100Y62191000D02*
X20036100Y62085300D01*
X20036100Y62085300D02*
X19851700Y61996400D01*
X19851700Y61996400D02*
X19657800Y61925500D01*
X19657800Y61925500D02*
X19455600Y61873500D01*
X19455600Y61873500D02*
X19246100Y61841500D01*
X19246100Y61841500D02*
X19030400Y61830600D01*
X19030400Y61830600D02*
X18814600Y61841500D01*
X18814600Y61841500D02*
X18605100Y61873500D01*
X18605100Y61873500D02*
X18402900Y61925500D01*
X18402900Y61925500D02*
X18209100Y61996400D01*
X18209100Y61996400D02*
X18024600Y62085300D01*
X18024600Y62085300D02*
X17850600Y62191000D01*
X17850600Y62191000D02*
X17688200Y62312500D01*
X17688200Y62312500D02*
X17538400Y62448600D01*
X17538400Y62448600D02*
X17402200Y62598500D01*
X17402200Y62598500D02*
X17280700Y62760900D01*
X17280700Y62760900D02*
X17175000Y62934900D01*
X17175000Y62934900D02*
X17086200Y63119300D01*
X17086200Y63119300D02*
X17015200Y63313200D01*
X17015200Y63313200D02*
X16963200Y63515400D01*
X16963200Y63515400D02*
X16931300Y63724900D01*
X16931300Y63724900D02*
X16920400Y63940700D01*
X16920400Y63940700D02*
X16930700Y64149200D01*
X16930700Y64149200D02*
X16961300Y64354200D01*
X16961300Y64354200D02*
X17011600Y64554400D01*
X17011600Y64554400D02*
X17081000Y64748200D01*
X17081000Y64748200D02*
X17168900Y64934300D01*
X17168900Y64934300D02*
X17274900Y65111300D01*
X17274900Y65111300D02*
X17398200Y65277900D01*
X17398200Y65277900D02*
X17538400Y65432700D01*
X17538400Y65432700D02*
X17693100Y65572900D01*
X17693100Y65572900D02*
X17859700Y65696200D01*
X17859700Y65696200D02*
X18036800Y65802200D01*
X18036800Y65802200D02*
X18222900Y65890100D01*
X18222900Y65890100D02*
X18416700Y65959500D01*
X18416700Y65959500D02*
X18616800Y66009800D01*
X18616800Y66009800D02*
X18821800Y66040400D01*
X18821800Y66040400D02*
X19030400Y66050700D01*
X19030400Y66050700D02*
X19246100Y66039800D01*
X19246100Y66039800D02*
X19455600Y66007900D01*
X19455600Y66007900D02*
X19657800Y65955900D01*
X19657800Y65955900D02*
X19851700Y65884900D01*
X19851700Y65884900D02*
X20036100Y65796100D01*
X20036100Y65796100D02*
X20210100Y65690400D01*
X20210100Y65690400D02*
X20372500Y65568900D01*
X20372500Y65568900D02*
X20522400Y65432700D01*
X20522400Y65432700D02*
X20658500Y65282900D01*
X20658500Y65282900D02*
X20780000Y65120400D01*
X20780000Y65120400D02*
X20885700Y64946500D01*
X20885700Y64946500D02*
X20974600Y64762000D01*
X20974600Y64762000D02*
X21045500Y64568100D01*
X21045500Y64568100D02*
X21097500Y64365900D01*
X21097500Y64365900D02*
X21129500Y64156400D01*
X21129500Y64156400D02*
X21140400Y63940700D01*
X21140400Y63940700D02*
X21140400Y63940700D01*
X21140400Y63940700D02*
X21140400Y63940700D01*
X66133900Y61385000D02*
X66123600Y61176400D01*
X66123600Y61176400D02*
X66093000Y60971400D01*
X66093000Y60971400D02*
X66042700Y60771300D01*
X66042700Y60771300D02*
X65973300Y60577500D01*
X65973300Y60577500D02*
X65885400Y60391400D01*
X65885400Y60391400D02*
X65779400Y60214300D01*
X65779400Y60214300D02*
X65656100Y60047700D01*
X65656100Y60047700D02*
X65515900Y59893000D01*
X65515900Y59893000D02*
X65361200Y59752800D01*
X65361200Y59752800D02*
X65194600Y59629500D01*
X65194600Y59629500D02*
X65017500Y59523500D01*
X65017500Y59523500D02*
X64831400Y59435600D01*
X64831400Y59435600D02*
X64637600Y59366200D01*
X64637600Y59366200D02*
X64437500Y59315900D01*
X64437500Y59315900D02*
X64232500Y59285300D01*
X64232500Y59285300D02*
X64023900Y59274900D01*
X64023900Y59274900D02*
X63815400Y59285300D01*
X63815400Y59285300D02*
X63610400Y59315900D01*
X63610400Y59315900D02*
X63410300Y59366200D01*
X63410300Y59366200D02*
X63216500Y59435600D01*
X63216500Y59435600D02*
X63030300Y59523500D01*
X63030300Y59523500D02*
X62853300Y59629500D01*
X62853300Y59629500D02*
X62686700Y59752800D01*
X62686700Y59752800D02*
X62531900Y59893000D01*
X62531900Y59893000D02*
X62391800Y60047700D01*
X62391800Y60047700D02*
X62268400Y60214300D01*
X62268400Y60214300D02*
X62162500Y60391400D01*
X62162500Y60391400D02*
X62074500Y60577500D01*
X62074500Y60577500D02*
X62005100Y60771300D01*
X62005100Y60771300D02*
X61954800Y60971400D01*
X61954800Y60971400D02*
X61924200Y61176400D01*
X61924200Y61176400D02*
X61913900Y61385000D01*
X61913900Y61385000D02*
X61924800Y61600700D01*
X61924800Y61600700D02*
X61956800Y61810200D01*
X61956800Y61810200D02*
X62008800Y62012500D01*
X62008800Y62012500D02*
X62079700Y62206300D01*
X62079700Y62206300D02*
X62168600Y62390800D01*
X62168600Y62390800D02*
X62274300Y62564800D01*
X62274300Y62564800D02*
X62395700Y62727200D01*
X62395700Y62727200D02*
X62531900Y62877000D01*
X62531900Y62877000D02*
X62681800Y63013200D01*
X62681800Y63013200D02*
X62844200Y63134700D01*
X62844200Y63134700D02*
X63018200Y63240400D01*
X63018200Y63240400D02*
X63202600Y63329200D01*
X63202600Y63329200D02*
X63396500Y63400200D01*
X63396500Y63400200D02*
X63598700Y63452200D01*
X63598700Y63452200D02*
X63808200Y63484200D01*
X63808200Y63484200D02*
X64023900Y63495100D01*
X64023900Y63495100D02*
X64239700Y63484200D01*
X64239700Y63484200D02*
X64449200Y63452200D01*
X64449200Y63452200D02*
X64651400Y63400200D01*
X64651400Y63400200D02*
X64845200Y63329200D01*
X64845200Y63329200D02*
X65029700Y63240400D01*
X65029700Y63240400D02*
X65203600Y63134700D01*
X65203600Y63134700D02*
X65366100Y63013200D01*
X65366100Y63013200D02*
X65515900Y62877000D01*
X65515900Y62877000D02*
X65652100Y62727200D01*
X65652100Y62727200D02*
X65773600Y62564800D01*
X65773600Y62564800D02*
X65879300Y62390800D01*
X65879300Y62390800D02*
X65968100Y62206300D01*
X65968100Y62206300D02*
X66039100Y62012500D01*
X66039100Y62012500D02*
X66091100Y61810200D01*
X66091100Y61810200D02*
X66123000Y61600700D01*
X66123000Y61600700D02*
X66133900Y61385000D01*
X66133900Y61385000D02*
X66133900Y61385000D01*
X66133900Y61385000D02*
X66133900Y61385000D01*
X21140400Y26118000D02*
X21129500Y26333700D01*
X21129500Y26333700D02*
X21097500Y26543300D01*
X21097500Y26543300D02*
X21045500Y26745500D01*
X21045500Y26745500D02*
X20974600Y26939300D01*
X20974600Y26939300D02*
X20885700Y27123800D01*
X20885700Y27123800D02*
X20780000Y27297800D01*
X20780000Y27297800D02*
X20658500Y27460200D01*
X20658500Y27460200D02*
X20522400Y27610000D01*
X20522400Y27610000D02*
X20372500Y27746200D01*
X20372500Y27746200D02*
X20210100Y27867700D01*
X20210100Y27867700D02*
X20036100Y27973400D01*
X20036100Y27973400D02*
X19851700Y28062200D01*
X19851700Y28062200D02*
X19657800Y28133200D01*
X19657800Y28133200D02*
X19455600Y28185200D01*
X19455600Y28185200D02*
X19246100Y28217200D01*
X19246100Y28217200D02*
X19030400Y28228100D01*
X19030400Y28228100D02*
X18821800Y28217700D01*
X18821800Y28217700D02*
X18616800Y28187100D01*
X18616800Y28187100D02*
X18416700Y28136900D01*
X18416700Y28136900D02*
X18222900Y28067400D01*
X18222900Y28067400D02*
X18036800Y27979500D01*
X18036800Y27979500D02*
X17859700Y27873500D01*
X17859700Y27873500D02*
X17693100Y27750200D01*
X17693100Y27750200D02*
X17538400Y27610000D01*
X17538400Y27610000D02*
X17398200Y27455300D01*
X17398200Y27455300D02*
X17274900Y27288700D01*
X17274900Y27288700D02*
X17168900Y27111600D01*
X17168900Y27111600D02*
X17081000Y26925500D01*
X17081000Y26925500D02*
X17011600Y26731700D01*
X17011600Y26731700D02*
X16961300Y26531600D01*
X16961300Y26531600D02*
X16930700Y26326600D01*
X16930700Y26326600D02*
X16920400Y26118000D01*
X16920400Y26118000D02*
X16931300Y25902300D01*
X16931300Y25902300D02*
X16963200Y25692800D01*
X16963200Y25692800D02*
X17015200Y25490500D01*
X17015200Y25490500D02*
X17086200Y25296700D01*
X17086200Y25296700D02*
X17175000Y25112200D01*
X17175000Y25112200D02*
X17280700Y24938300D01*
X17280700Y24938300D02*
X17402200Y24775800D01*
X17402200Y24775800D02*
X17538400Y24626000D01*
X17538400Y24626000D02*
X17688200Y24489800D01*
X17688200Y24489800D02*
X17850600Y24368300D01*
X17850600Y24368300D02*
X18024600Y24262600D01*
X18024600Y24262600D02*
X18209100Y24173800D01*
X18209100Y24173800D02*
X18402900Y24102800D01*
X18402900Y24102800D02*
X18605100Y24050800D01*
X18605100Y24050800D02*
X18814600Y24018800D01*
X18814600Y24018800D02*
X19030400Y24007900D01*
X19030400Y24007900D02*
X19246100Y24018800D01*
X19246100Y24018800D02*
X19455600Y24050800D01*
X19455600Y24050800D02*
X19657800Y24102800D01*
X19657800Y24102800D02*
X19851700Y24173800D01*
X19851700Y24173800D02*
X20036100Y24262600D01*
X20036100Y24262600D02*
X20210100Y24368300D01*
X20210100Y24368300D02*
X20372500Y24489800D01*
X20372500Y24489800D02*
X20522400Y24626000D01*
X20522400Y24626000D02*
X20658500Y24775800D01*
X20658500Y24775800D02*
X20780000Y24938300D01*
X20780000Y24938300D02*
X20885700Y25112200D01*
X20885700Y25112200D02*
X20974600Y25296700D01*
X20974600Y25296700D02*
X21045500Y25490500D01*
X21045500Y25490500D02*
X21097500Y25692800D01*
X21097500Y25692800D02*
X21129500Y25902300D01*
X21129500Y25902300D02*
X21140400Y26118000D01*
X21140400Y26118000D02*
X21140400Y26118000D01*
X21140400Y26118000D02*
X21140400Y26118000D01*
X66133900Y28673700D02*
X66123000Y28889400D01*
X66123000Y28889400D02*
X66091100Y29098900D01*
X66091100Y29098900D02*
X66039100Y29301100D01*
X66039100Y29301100D02*
X65968100Y29495000D01*
X65968100Y29495000D02*
X65879300Y29679500D01*
X65879300Y29679500D02*
X65773600Y29853400D01*
X65773600Y29853400D02*
X65652100Y30015900D01*
X65652100Y30015900D02*
X65515900Y30165700D01*
X65515900Y30165700D02*
X65366100Y30301900D01*
X65366100Y30301900D02*
X65203600Y30423400D01*
X65203600Y30423400D02*
X65029700Y30529100D01*
X65029700Y30529100D02*
X64845200Y30617900D01*
X64845200Y30617900D02*
X64651400Y30688900D01*
X64651400Y30688900D02*
X64449200Y30740900D01*
X64449200Y30740900D02*
X64239700Y30772800D01*
X64239700Y30772800D02*
X64023900Y30783700D01*
X64023900Y30783700D02*
X63808200Y30772800D01*
X63808200Y30772800D02*
X63598700Y30740900D01*
X63598700Y30740900D02*
X63396500Y30688900D01*
X63396500Y30688900D02*
X63202600Y30617900D01*
X63202600Y30617900D02*
X63018200Y30529100D01*
X63018200Y30529100D02*
X62844200Y30423400D01*
X62844200Y30423400D02*
X62681800Y30301900D01*
X62681800Y30301900D02*
X62531900Y30165700D01*
X62531900Y30165700D02*
X62395700Y30015900D01*
X62395700Y30015900D02*
X62274300Y29853400D01*
X62274300Y29853400D02*
X62168600Y29679500D01*
X62168600Y29679500D02*
X62079700Y29495000D01*
X62079700Y29495000D02*
X62008800Y29301100D01*
X62008800Y29301100D02*
X61956800Y29098900D01*
X61956800Y29098900D02*
X61924800Y28889400D01*
X61924800Y28889400D02*
X61913900Y28673700D01*
X61913900Y28673700D02*
X61924200Y28465100D01*
X61924200Y28465100D02*
X61954800Y28260100D01*
X61954800Y28260100D02*
X62005100Y28060000D01*
X62005100Y28060000D02*
X62074500Y27866200D01*
X62074500Y27866200D02*
X62162500Y27680100D01*
X62162500Y27680100D02*
X62268400Y27503000D01*
X62268400Y27503000D02*
X62391800Y27336400D01*
X62391800Y27336400D02*
X62531900Y27181600D01*
X62531900Y27181600D02*
X62686700Y27041500D01*
X62686700Y27041500D02*
X62853300Y26918100D01*
X62853300Y26918100D02*
X63030300Y26812200D01*
X63030300Y26812200D02*
X63216500Y26724200D01*
X63216500Y26724200D02*
X63410300Y26654800D01*
X63410300Y26654800D02*
X63610400Y26604500D01*
X63610400Y26604500D02*
X63815400Y26573900D01*
X63815400Y26573900D02*
X64023900Y26563600D01*
X64023900Y26563600D02*
X64232500Y26573900D01*
X64232500Y26573900D02*
X64437500Y26604500D01*
X64437500Y26604500D02*
X64637600Y26654800D01*
X64637600Y26654800D02*
X64831400Y26724200D01*
X64831400Y26724200D02*
X65017500Y26812200D01*
X65017500Y26812200D02*
X65194600Y26918100D01*
X65194600Y26918100D02*
X65361200Y27041500D01*
X65361200Y27041500D02*
X65515900Y27181600D01*
X65515900Y27181600D02*
X65656100Y27336400D01*
X65656100Y27336400D02*
X65779400Y27503000D01*
X65779400Y27503000D02*
X65885400Y27680100D01*
X65885400Y27680100D02*
X65973300Y27866200D01*
X65973300Y27866200D02*
X66042700Y28060000D01*
X66042700Y28060000D02*
X66093000Y28260100D01*
X66093000Y28260100D02*
X66123600Y28465100D01*
X66123600Y28465100D02*
X66133900Y28673700D01*
X66133900Y28673700D02*
X66133900Y28673700D01*
X66133900Y28673700D02*
X66133900Y28673700D01*
M02*
