M48
; DRILL file {KiCad 5.1.10} date Tue Oct 26 18:40:47 2021
;FORMAT={3:3/ absolute / metric / suppress leading zeros}
; #@! TF.CreationDate,2021-10-26T18:40:47+02:00
; #@! TF.GenerationSoftware,Kicad,Pcbnew,5.1.10
FMAT,2
METRIC,TZ
T1C0.500
T2C0.762
T3C1.000
%
G90
G05
T2
X18288Y57506
X18288Y32106
X20828Y57506
X20828Y32106
X23368Y57506
X23368Y32106
X25908Y57506
X25908Y32106
X28448Y57506
X28448Y32106
X30988Y57506
X30988Y32106
X33528Y57506
X33528Y32106
X36068Y57506
X36068Y32106
X38608Y57506
X38608Y32106
X41148Y57506
X41148Y32106
X43688Y57506
X43688Y32106
X46228Y57506
X46228Y32106
X48768Y57506
X48768Y32106
X51308Y57506
X51308Y32106
X53848Y57506
X53848Y32106
T3
X24232Y65761
X26772Y65761
X29312Y65761
X30582Y27661
X33122Y27661
X35662Y27661
X38202Y27661
X40742Y65761
X40742Y63221
X47727Y61951
X50267Y61951
X51537Y27661
X54077Y27661
T1
G00X70414Y49223
M15
G01X71114Y49223
M16
G05
G00X70414Y42623
M15
G01X71114Y42623
M16
G05
T0
M30
