G04 #@! TF.GenerationSoftware,KiCad,Pcbnew,5.1.10*
G04 #@! TF.CreationDate,2021-10-26T18:40:00+02:00*
G04 #@! TF.ProjectId,JeanCloud_pcb_milled,4a65616e-436c-46f7-9564-5f7063625f6d,rev?*
G04 #@! TF.SameCoordinates,PX1bc28b0PY5c63450*
G04 #@! TF.FileFunction,Copper,L1,Top*
G04 #@! TF.FilePolarity,Positive*
%FSLAX46Y46*%
G04 Gerber Fmt 4.6, Leading zero omitted, Abs format (unit mm)*
G04 Created by KiCad (PCBNEW 5.1.10) date 2021-10-26 18:40:00*
%MOMM*%
%LPD*%
G01*
G04 APERTURE LIST*
G04 #@! TA.AperFunction,SMDPad,CuDef*
%ADD10R,1.350000X0.400000*%
G04 #@! TD*
G04 #@! TA.AperFunction,ComponentPad*
%ADD11O,1.600000X0.900000*%
G04 #@! TD*
G04 #@! TA.AperFunction,SMDPad,CuDef*
%ADD12R,1.400000X1.600000*%
G04 #@! TD*
G04 #@! TA.AperFunction,SMDPad,CuDef*
%ADD13R,1.900000X1.900000*%
G04 #@! TD*
G04 #@! TA.AperFunction,ComponentPad*
%ADD14R,1.524000X1.524000*%
G04 #@! TD*
G04 #@! TA.AperFunction,ComponentPad*
%ADD15C,1.524000*%
G04 #@! TD*
G04 #@! TA.AperFunction,ComponentPad*
%ADD16R,1.700000X1.700000*%
G04 #@! TD*
G04 #@! TA.AperFunction,ComponentPad*
%ADD17O,1.700000X1.700000*%
G04 #@! TD*
G04 #@! TA.AperFunction,Conductor*
%ADD18C,0.250000*%
G04 #@! TD*
G04 APERTURE END LIST*
D10*
X68089400Y45923200D03*
X68089400Y46573200D03*
X68089400Y47223200D03*
X68089400Y45273200D03*
X68089400Y44623200D03*
D11*
X70764400Y49223200D03*
X70764400Y42623200D03*
D12*
X68314400Y42723200D03*
X68314400Y49123200D03*
D13*
X70764400Y44723200D03*
X70764400Y47123200D03*
D14*
X53848000Y57505600D03*
D15*
X51308000Y57505600D03*
X48768000Y57505600D03*
X46228000Y57505600D03*
X43688000Y57505600D03*
X41148000Y57505600D03*
X38608000Y57505600D03*
X36068000Y57505600D03*
X33528000Y57505600D03*
X30988000Y57505600D03*
X28448000Y57505600D03*
X25908000Y57505600D03*
X23368000Y57505600D03*
X20828000Y57505600D03*
X18288000Y57505600D03*
X18288000Y32105600D03*
X20828000Y32105600D03*
X23368000Y32105600D03*
X25908000Y32105600D03*
X28448000Y32105600D03*
X30988000Y32105600D03*
X33528000Y32105600D03*
X36068000Y32105600D03*
X38608000Y32105600D03*
X41148000Y32105600D03*
X43688000Y32105600D03*
X46228000Y32105600D03*
X48768000Y32105600D03*
X51308000Y32105600D03*
X53848000Y32105600D03*
D16*
X38201600Y27660600D03*
D17*
X35661600Y27660600D03*
X33121600Y27660600D03*
X30581600Y27660600D03*
D16*
X29311600Y65760600D03*
D17*
X26771600Y65760600D03*
X24231600Y65760600D03*
D16*
X40741600Y63220600D03*
D17*
X40741600Y65760600D03*
X50266600Y61950600D03*
D16*
X47726600Y61950600D03*
X54076600Y27660600D03*
D17*
X51536600Y27660600D03*
D18*
X31110400Y47223200D02*
X20828000Y57505600D01*
X40741600Y65760600D02*
X54076600Y65760600D01*
X64994000Y54843200D02*
X64994000Y47223200D01*
X54076600Y65760600D02*
X64994000Y54843200D01*
X64994000Y47223200D02*
X31110400Y47223200D01*
X68089400Y47223200D02*
X64994000Y47223200D01*
X29311600Y65760600D02*
X29311600Y63220600D01*
X29311600Y63220600D02*
X26771600Y60680600D01*
X26771600Y60680600D02*
X22326600Y60680600D01*
X20828000Y59182000D02*
X20828000Y57505600D01*
X22326600Y60680600D02*
X20828000Y59182000D01*
X50266600Y61950600D02*
X54076600Y65760600D01*
X33121600Y27660600D02*
X35661600Y25120600D01*
X48996600Y25120600D02*
X51536600Y27660600D01*
X35661600Y25120600D02*
X48996600Y25120600D01*
X20828000Y32105600D02*
X22733000Y30200600D01*
X30581600Y30200600D02*
X33121600Y27660600D01*
X22733000Y30200600D02*
X30581600Y30200600D01*
X15341600Y66395600D02*
X15341600Y54965600D01*
X16611600Y67665600D02*
X15341600Y66395600D01*
X15341600Y54965600D02*
X20828000Y49479200D01*
X19786600Y67665600D02*
X16611600Y67665600D01*
X35026600Y68935600D02*
X21056600Y68935600D01*
X20828000Y49479200D02*
X20828000Y32105600D01*
X38201600Y65760600D02*
X35026600Y68935600D01*
X21056600Y68935600D02*
X19786600Y67665600D01*
X40741600Y65760600D02*
X38201600Y65760600D01*
X31170400Y44623200D02*
X18288000Y57505600D01*
X24231600Y65760600D02*
X24231600Y62585600D01*
X24231600Y62585600D02*
X22326600Y62585600D01*
X18288000Y58547000D02*
X18288000Y57505600D01*
X22326600Y62585600D02*
X18288000Y58547000D01*
X30581600Y27660600D02*
X30581600Y25755600D01*
X30581600Y25755600D02*
X33121600Y23215600D01*
X33121600Y23215600D02*
X57886600Y23215600D01*
X57886600Y23215600D02*
X60426600Y25755600D01*
X60426600Y25755600D02*
X60426600Y32105600D01*
X60426600Y32105600D02*
X65506600Y37185600D01*
X65506600Y37185600D02*
X65506600Y43535600D01*
X65506600Y43535600D02*
X66594200Y44623200D01*
X66594200Y44623200D02*
X31170400Y44623200D01*
X68089400Y44623200D02*
X66594200Y44623200D01*
X70764400Y49223200D02*
X70764400Y47123200D01*
X70664400Y42723200D02*
X70764400Y42623200D01*
X68314400Y42723200D02*
X70664400Y42723200D01*
X70764400Y42623200D02*
X70764400Y44723200D01*
X70764400Y44723200D02*
X70764400Y47123200D01*
X68414400Y49223200D02*
X68314400Y49123200D01*
X70764400Y49223200D02*
X68414400Y49223200D01*
X38201600Y31699200D02*
X38608000Y32105600D01*
X38201600Y27660600D02*
X38201600Y31699200D01*
X35661600Y31699200D02*
X36068000Y32105600D01*
X35661600Y27660600D02*
X35661600Y31699200D01*
X33756600Y66395600D02*
X33756600Y62585600D01*
X33756600Y62585600D02*
X31851600Y60680600D01*
X31851600Y60680600D02*
X29946600Y60680600D01*
X28448000Y59182000D02*
X28448000Y57505600D01*
X29946600Y60680600D02*
X28448000Y59182000D01*
X26771600Y65760600D02*
X26771600Y67030600D01*
X26771600Y67030600D02*
X27406600Y67665600D01*
X27406600Y67665600D02*
X32486600Y67665600D01*
X32486600Y67665600D02*
X33756600Y66395600D01*
X33756600Y66395600D02*
X33756600Y64490600D01*
X40741600Y57912000D02*
X41148000Y57505600D01*
X40741600Y63220600D02*
X40741600Y57912000D01*
X47726600Y61950600D02*
X47726600Y60045600D01*
X47726600Y60045600D02*
X48361600Y59410600D01*
X48361600Y59410600D02*
X55981600Y59410600D01*
X55981600Y59410600D02*
X57251600Y58140600D01*
X57251600Y58140600D02*
X57251600Y55600600D01*
X57251600Y55600600D02*
X56616600Y54965600D01*
X56616600Y54965600D02*
X26771600Y54965600D01*
X25908000Y55829200D02*
X25908000Y57505600D01*
X26771600Y54965600D02*
X25908000Y55829200D01*
X54076600Y31877000D02*
X53848000Y32105600D01*
X54076600Y27660600D02*
X54076600Y31877000D01*
M02*
