<?xml version="1.0" encoding="UTF-8" standalone="no"?>
<svg
   height="212.60mm"
   viewBox="0.0 0.0 322.45 212.60"
   width="322.45mm"
   version="1.1"
   id="svg28"
   sodipodi:docname="ClosedBoxFlex_4mm.svg"
   inkscape:version="1.1 (c4e8f9ed74, 2021-05-24)"
   xmlns:inkscape="http://www.inkscape.org/namespaces/inkscape"
   xmlns:sodipodi="http://sodipodi.sourceforge.net/DTD/sodipodi-0.dtd"
   xmlns="http://www.w3.org/2000/svg"
   xmlns:svg="http://www.w3.org/2000/svg"
   xmlns:rdf="http://www.w3.org/1999/02/22-rdf-syntax-ns#"
   xmlns:cc="http://creativecommons.org/ns#"
   xmlns:dc="http://purl.org/dc/elements/1.1/">
  <defs
     id="defs32" />
  <sodipodi:namedview
     pagecolor="#ffffff"
     bordercolor="#666666"
     borderopacity="1"
     objecttolerance="10"
     gridtolerance="10"
     guidetolerance="10"
     inkscape:pageopacity="0"
     inkscape:pageshadow="2"
     inkscape:window-width="1920"
     inkscape:window-height="998"
     id="namedview30"
     showgrid="false"
     inkscape:zoom="0.9096668"
     inkscape:cx="560.64484"
     inkscape:cy="402.89477"
     inkscape:window-x="1920"
     inkscape:window-y="0"
     inkscape:window-maximized="1"
     inkscape:current-layer="svg28"
     inkscape:pagecheckerboard="0"
     inkscape:document-units="mm" />
  <!--
FlexBox - Box with living hinge and round corners

Created with Boxes.py (https://festi.info/boxes.py)
Creation date: 2021-02-27 17:20:38
Command line (remove spaces between dashes): boxes FlexBox - -FingerJoint_angle=90.0 - -FingerJoint_style=rectangular - -FingerJoint_surroundingspaces=2.0 - -FingerJoint_edge_width=1.0 - -FingerJoint_finger=2.0 - -FingerJoint_play=0.0 - -FingerJoint_space=2.0 - -FingerJoint_width=1.0 - -Flex_stretch=1.05 - -Flex_connection=1.0 - -Flex_distance=0.5 - -Flex_width=5.0 - -x=60 - -y=120 - -h=60 - -outside=0 - -outside=1 - -radius=15 - -latchsize=6 - -thickness=4.0 - -format=svg - -tabs=0.0 - -debug=0 - -reference=100 - -burn=0.1
Url: http://www.festi.info/FlexBox?FingerJoint_angle=90.0&FingerJoint_style=rectangular&FingerJoint_surroundingspaces=2.0&FingerJoint_edge_width=1.0&FingerJoint_finger=2.0&FingerJoint_play=0.0&FingerJoint_space=2.0&FingerJoint_width=1.0&Flex_stretch=1.05&Flex_connection=1.0&Flex_distance=0.5&Flex_width=5.0&x=60&y=120&h=60&outside=0&outside=1&radius=15&latchsize=6&thickness=4.0&format=svg&tabs=0.0&debug=0&reference=100&burn=0.1&render=1
SettingsUrl: http://www.festi.info/FlexBox?FingerJoint_angle=90.0&FingerJoint_style=rectangular&FingerJoint_surroundingspaces=2.0&FingerJoint_edge_width=1.0&FingerJoint_finger=2.0&FingerJoint_play=0.0&FingerJoint_space=2.0&FingerJoint_width=1.0&Flex_stretch=1.05&Flex_connection=1.0&Flex_distance=0.5&Flex_width=5.0&x=60&y=120&h=60&outside=0&outside=1&radius=15&latchsize=6&thickness=4.0&format=svg&tabs=0.0&debug=0&reference=100&burn=0.1
-->
  <title
     id="title2">FlexBox</title>
  <metadata
     id="metadata4">
    <rdf:RDF>
      <cc:Work>
        <dc:title>FlexBox</dc:title>
        <dc:date>2021-02-27 17:20:38</dc:date>
        <dc:source>http://www.festi.info/FlexBox?FingerJoint_angle=90.0&amp;FingerJoint_style=rectangular&amp;FingerJoint_surroundingspaces=2.0&amp;FingerJoint_edge_width=1.0&amp;FingerJoint_finger=2.0&amp;FingerJoint_play=0.0&amp;FingerJoint_space=2.0&amp;FingerJoint_width=1.0&amp;Flex_stretch=1.05&amp;Flex_connection=1.0&amp;Flex_distance=0.5&amp;Flex_width=5.0&amp;x=60&amp;y=120&amp;h=60&amp;outside=0&amp;outside=1&amp;radius=15&amp;latchsize=6&amp;thickness=4.0&amp;format=svg&amp;tabs=0.0&amp;debug=0&amp;reference=100&amp;burn=0.1&amp;render=1</dc:source>
        <dc:description>Box with living hinge and round corners

Created with Boxes.py (https://festi.info/boxes.py)
Command line: boxes FlexBox --FingerJoint_angle=90.0 --FingerJoint_style=rectangular --FingerJoint_surroundingspaces=2.0 --FingerJoint_edge_width=1.0 --FingerJoint_finger=2.0 --FingerJoint_play=0.0 --FingerJoint_space=2.0 --FingerJoint_width=1.0 --Flex_stretch=1.05 --Flex_connection=1.0 --Flex_distance=0.5 --Flex_width=5.0 --x=60 --y=120 --h=60 --outside=0 --outside=1 --radius=15 --latchsize=6 --thickness=4.0 --format=svg --tabs=0.0 --debug=0 --reference=100 --burn=0.1
Url: http://www.festi.info/FlexBox?FingerJoint_angle=90.0&amp;FingerJoint_style=rectangular&amp;FingerJoint_surroundingspaces=2.0&amp;FingerJoint_edge_width=1.0&amp;FingerJoint_finger=2.0&amp;FingerJoint_play=0.0&amp;FingerJoint_space=2.0&amp;FingerJoint_width=1.0&amp;Flex_stretch=1.05&amp;Flex_connection=1.0&amp;Flex_distance=0.5&amp;Flex_width=5.0&amp;x=60&amp;y=120&amp;h=60&amp;outside=0&amp;outside=1&amp;radius=15&amp;latchsize=6&amp;thickness=4.0&amp;format=svg&amp;tabs=0.0&amp;debug=0&amp;reference=100&amp;burn=0.1&amp;render=1
SettingsUrl: http://www.festi.info/FlexBox?FingerJoint_angle=90.0&amp;FingerJoint_style=rectangular&amp;FingerJoint_surroundingspaces=2.0&amp;FingerJoint_edge_width=1.0&amp;FingerJoint_finger=2.0&amp;FingerJoint_play=0.0&amp;FingerJoint_space=2.0&amp;FingerJoint_width=1.0&amp;Flex_stretch=1.05&amp;Flex_connection=1.0&amp;Flex_distance=0.5&amp;Flex_width=5.0&amp;x=60&amp;y=120&amp;h=60&amp;outside=0&amp;outside=1&amp;radius=15&amp;latchsize=6&amp;thickness=4.0&amp;format=svg&amp;tabs=0.0&amp;debug=0&amp;reference=100&amp;burn=0.1
</dc:description>
        <dc:format>image/svg+xml</dc:format>
        <dc:type
           rdf:resource="http://purl.org/dc/dcmitype/StillImage" />
      </cc:Work>
    </rdf:RDF>
  </metadata>
  <g
     id="p-1"
     style="fill:#fff5d1;stroke:#000000;stroke-linecap:round;stroke-linejoin:round;stroke-opacity:1;fill-opacity:1"
     transform="translate(-3.4207657,-40.994702)">
    <path
       d="m 10.1,189.4 h 9 c 0.055,0 0.1,-0.045 0.1,-0.1 v -3.9 c 0,-0.1 -0.1,0 0,0 H 27 c 0.1,0 0,-0.1 0,0 v 3.9 c 0,0.055 0.045,0.1 0.1,0.1 h 8 c 0.055,0 0.1,-0.045 0.1,-0.1 v -3.9 c 0,-0.1 -0.1,0 0,0 H 43 c 0.1,0 0,-0.1 0,0 v 3.9 c 0,0.055 0.045,0.1 0.1,0.1 h 8 c 0.055,0 0.1,-0.045 0.1,-0.1 v -3.9 c 0,-0.1 -0.1,0 0,0 H 59 c 0.1,0 0,-0.1 0,0 v 3.9 c 0,0.055 0.045,0.1 0.1,0.1 h 9 23.562 11 11 23.562 13 c 0.055,0 0.1,-0.045 0.1,-0.1 v -3.9 c 0,-0.1 -0.1,0 0,0 h 7.8 c 0.1,0 0,-0.1 0,0 v 3.9 c 0,0.055 0.045,0.1 0.1,0.1 h 8 c 0.055,0 0.1,-0.045 0.1,-0.1 v -3.9 c 0,-0.1 -0.1,0 0,0 h 7.8 c 0.1,0 0,-0.1 0,0 v 3.9 c 0,0.055 0.045,0.1 0.1,0.1 h 8 c 0.055,0 0.1,-0.045 0.1,-0.1 v -3.9 c 0,-0.1 -0.1,0 0,0 h 7.8 c 0.1,0 0,-0.1 0,0 v 3.9 c 0,0.055 0.045,0.1 0.1,0.1 h 8 c 0.055,0 0.1,-0.045 0.1,-0.1 v -3.9 c 0,-0.1 -0.1,0 0,0 h 7.8 c 0.1,0 0,-0.1 0,0 v 3.9 c 0,0.055 0.045,0.1 0.1,0.1 h 13 23.562 22 23.562 c 0.055,0 0.1,-0.045 0.1,-0.1 V 185 c 0,-0.1 -0.1,0 0,0 h 12.6 c 0.1,0 0,-0.1 0,0 v 4.3 c 0,0.193 0.051,0.383 0.147,0.55 0.097,0.167 0.236,0.306 0.403,0.403 0.167,0.096 0.357,0.147 0.55,0.147 0.152,0 0.301,-0.04 0.433,-0.116 0.132,-0.076 0.241,-0.186 0.317,-0.317 0.076,-0.132 0.116,-0.282 0.116,-0.434 0,-0.117 0.031,-0.232 0.09,-0.333 0.058,-0.101 0.142,-0.186 0.244,-0.244 0.101,-0.059 0.216,-0.089 0.333,-0.089 0.117,0 0.232,0.03 0.333,0.089 0.102,0.058 0.186,0.143 0.244,0.244 0.059,0.101 0.09,0.216 0.09,0.333 0,0.152 0.04,0.302 0.116,0.434 0.076,0.131 0.185,0.241 0.317,0.317 0.132,0.076 0.281,0.116 0.433,0.116 0.153,0 0.302,-0.04 0.434,-0.116 0.132,-0.076 0.241,-0.186 0.317,-0.317 0.076,-0.132 0.116,-0.282 0.116,-0.434 0,-0.117 0.031,-0.232 0.089,-0.333 0.059,-0.101 0.143,-0.186 0.244,-0.244 0.102,-0.059 0.217,-0.089 0.334,-0.089 0.117,0 0.232,0.03 0.333,0.089 0.101,0.058 0.186,0.143 0.244,0.244 0.059,0.101 0.089,0.216 0.089,0.333 0,0.152 0.04,0.302 0.117,0.434 0.076,0.131 0.185,0.241 0.317,0.317 0.132,0.076 0.281,0.116 0.433,0.116 0.152,0 0.302,-0.04 0.433,-0.116 0.132,-0.076 0.242,-0.186 0.318,-0.317 0.076,-0.132 0.116,-0.282 0.116,-0.434 0,-0.117 0.031,-0.232 0.089,-0.333 0.059,-0.101 0.143,-0.186 0.244,-0.244 0.101,-0.059 0.216,-0.089 0.333,-0.089 0.117,0 0.232,0.03 0.334,0.089 0.101,0.058 0.185,0.143 0.244,0.244 0.058,0.101 0.089,0.216 0.089,0.333 0,0.152 0.04,0.302 0.116,0.434 0.076,0.131 0.186,0.241 0.317,0.317 0.132,0.076 0.282,0.116 0.434,0.116 0.193,0 0.383,-0.051 0.55,-0.147 0.167,-0.097 0.306,-0.236 0.402,-0.403 0.097,-0.167 0.148,-0.357 0.148,-0.55 v -60 c 0,-0.193 -0.051,-0.383 -0.148,-0.55 -0.096,-0.167 -0.235,-0.306 -0.402,-0.403 -0.167,-0.096 -0.357,-0.147 -0.55,-0.147 -0.152,0 -0.302,0.04 -0.434,0.116 -0.131,0.076 -0.241,0.186 -0.317,0.317 -0.076,0.132 -0.116,0.282 -0.116,0.434 0,0.117 -0.031,0.232 -0.089,0.333 -0.059,0.101 -0.143,0.186 -0.244,0.244 -0.102,0.059 -0.217,0.089 -0.334,0.089 -0.117,0 -0.232,-0.03 -0.333,-0.089 -0.101,-0.058 -0.185,-0.143 -0.244,-0.244 -0.058,-0.101 -0.089,-0.216 -0.089,-0.333 0,-0.152 -0.04,-0.302 -0.116,-0.434 -0.076,-0.131 -0.186,-0.241 -0.318,-0.317 -0.131,-0.076 -0.281,-0.116 -0.433,-0.116 -0.152,0 -0.301,0.04 -0.433,0.116 -0.132,0.076 -0.241,0.186 -0.317,0.317 -0.077,0.132 -0.117,0.282 -0.117,0.434 0,0.117 -0.03,0.232 -0.089,0.333 -0.058,0.101 -0.143,0.186 -0.244,0.244 -0.101,0.059 -0.216,0.089 -0.333,0.089 -0.117,0 -0.232,-0.03 -0.334,-0.089 -0.101,-0.058 -0.185,-0.143 -0.244,-0.244 -0.058,-0.101 -0.089,-0.216 -0.089,-0.333 0,-0.152 -0.04,-0.302 -0.116,-0.434 -0.076,-0.131 -0.185,-0.241 -0.317,-0.317 -0.132,-0.076 -0.281,-0.116 -0.434,-0.116 -0.152,0 -0.301,0.04 -0.433,0.116 -0.132,0.076 -0.241,0.186 -0.317,0.317 -0.076,0.132 -0.116,0.282 -0.116,0.434 0,0.117 -0.031,0.232 -0.09,0.333 -0.058,0.101 -0.142,0.186 -0.244,0.244 -0.101,0.059 -0.216,0.089 -0.333,0.089 -0.117,0 -0.232,-0.03 -0.333,-0.089 -0.102,-0.058 -0.186,-0.143 -0.244,-0.244 -0.059,-0.101 -0.09,-0.216 -0.09,-0.333 0,-0.152 -0.04,-0.302 -0.116,-0.434 -0.076,-0.131 -0.185,-0.241 -0.317,-0.317 -0.132,-0.076 -0.281,-0.116 -0.433,-0.116 -0.193,0 -0.383,0.051 -0.55,0.147 -0.167,0.097 -0.306,0.236 -0.403,0.403 -0.096,0.167 -0.147,0.357 -0.147,0.55 v 4.3 c 0,0.1 0.1,0 0,0 h -12.6 c -0.1,0 0,0.1 0,0 v -4.3 c 0,-0.055 -0.045,-0.1 -0.1,-0.1 h -23.562 -22 -23.562 -13 c -0.055,0 -0.1,0.045 -0.1,0.1 v 3.9 c 0,0.1 0.1,0 0,0 h -7.8 c -0.1,0 0,0.1 0,0 v -3.9 c 0,-0.055 -0.045,-0.1 -0.1,-0.1 h -8 c -0.055,0 -0.1,0.045 -0.1,0.1 v 3.9 c 0,0.1 0.1,0 0,0 h -7.8 c -0.1,0 0,0.1 0,0 v -3.9 c 0,-0.055 -0.045,-0.1 -0.1,-0.1 h -8 c -0.055,0 -0.1,0.045 -0.1,0.1 v 3.9 c 0,0.1 0.1,0 0,0 h -7.8 c -0.1,0 0,0.1 0,0 v -3.9 c 0,-0.055 -0.045,-0.1 -0.1,-0.1 h -8 c -0.055,0 -0.1,0.045 -0.1,0.1 v 3.9 c 0,0.1 0.1,0 0,0 h -7.8 c -0.1,0 0,0.1 0,0 v -3.9 c 0,-0.055 -0.045,-0.1 -0.1,-0.1 h -13 -23.562 -11 -11 -23.562 -9 c -0.055,0 -0.1,0.045 -0.1,0.1 v 3.9 c 0,0.1 0.1,0 0,0 h -7.8 c -0.1,0 0,0.1 0,0 v -3.9 c 0,-0.055 -0.045,-0.1 -0.1,-0.1 h -8 c -0.055,0 -0.1,0.045 -0.1,0.1 v 3.9 c 0,0.1 0.1,0 0,0 h -7.8 c -0.1,0 0,0.1 0,0 v -3.9 c 0,-0.055 -0.045,-0.1 -0.1,-0.1 h -8 c -0.055,0 -0.1,0.045 -0.1,0.1 v 3.9 c 0,0.1 0.1,0 0,0 h -7.8 c -0.1,0 0,0.1 0,0 v -3.9 c 0,-0.055 -0.045,-0.1 -0.1,-0.1 h -9 c -0.055,0 -0.1,0.045 -0.1,0.1 v 60 c 0,0.055 0.045,0.1 0.1,0.1 z"
       stroke="rgb(0,0,0)"
       stroke-width="0.2"
       id="path11"
       style="stroke:#000000;stroke-opacity:1;fill:#fff5d1;fill-opacity:1" />
    <path
       d="m 70.881,189.4 v -28.1 m 0,-4 v -28.1 m 2,4 v 52.2 m 2,4 v -28.1 m 0,-4 v -28.1 m 2,4 v 52.2 m 2,4 v -28.1 m 0,-4 v -28.1 m 2,4 v 52.2 m 2,4 v -28.1 m 0,-4 v -28.1 m 2,4 v 52.2 m 2,4 v -28.1 m 0,-4 v -28.1 m 2,4 v 52.2"
       stroke="rgb(0,0,0)"
       stroke-width="0.2"
       id="path13"
       style="stroke:#000000;stroke-opacity:1;fill:#fff5d1;fill-opacity:1" />
    <path
       d="m 116.443,189.4 v -28.1 m 0,-4 v -28.1 m 2,4 v 52.2 m 2,4 v -28.1 m 0,-4 v -28.1 m 2,4 v 52.2 m 2,4 v -28.1 m 0,-4 v -28.1 m 2,4 v 52.2 m 2,4 v -28.1 m 0,-4 v -28.1 m 2,4 v 52.2 m 2,4 v -28.1 m 0,-4 v -28.1 m 2,4 v 52.2"
       stroke="rgb(0,0,0)"
       stroke-width="0.2"
       id="path15"
       style="stroke:#000000;stroke-opacity:1;fill:#fff5d1;fill-opacity:1" />
    <path
       d="m 222.005,189.4 v -28.1 m 0,-4 v -28.1 m 2,4 v 52.2 m 2,4 v -28.1 m 0,-4 v -28.1 m 2,4 v 52.2 m 2,4 v -28.1 m 0,-4 v -28.1 m 2,4 v 52.2 m 2,4 v -28.1 m 0,-4 v -28.1 m 2,4 v 52.2 m 2,4 v -28.1 m 0,-4 v -28.1 m 2,4 v 52.2"
       stroke="rgb(0,0,0)"
       stroke-width="0.2"
       id="path17"
       style="stroke:#000000;stroke-opacity:1;fill:#fff5d1;fill-opacity:1" />
    <path
       d="m 267.567,189.4 v -28.1 m 0,-4 v -28.1 m 2,4 v 52.2 m 2,4 v -28.1 m 0,-4 v -28.1 m 2,4 v 52.2 m 2,4 v -28.1 m 0,-4 v -28.1 m 2,4 v 52.2 m 2,4 v -28.1 m 0,-4 v -28.1 m 2,4 v 52.2 m 2,4 v -28.1 m 0,-4 v -28.1 m 2,4 v 52.2"
       stroke="rgb(0,0,0)"
       stroke-width="0.2"
       id="path19"
       style="stroke:#000000;stroke-opacity:1;fill:#fff5d1;fill-opacity:1" />
  </g>
  <g
     id="p-2"
     style="fill:#fff5d1;stroke-linecap:round;stroke-linejoin:round;fill-opacity:1"
     transform="rotate(90,58.478772,72.03713)">
    <path
       d="m 29.1,122.2 h 11 11 c 2.651,0 5.255,-0.698 7.55,-2.023 2.295,-1.325 4.202,-3.232 5.527,-5.527 1.325,-2.295 2.023,-4.899 2.023,-7.55 V 94.2 c 0,-0.1 -0.1,0 0,0 h 3.9 c 0.055,0 0.1,-0.045 0.1,-0.1 v -8 C 70.2,86.045 70.155,86 70.1,86 h -3.9 c -0.1,0 0,0.1 0,0 v -7.8 c 0,-0.1 -0.1,0 0,0 h 3.9 c 0.055,0 0.1,-0.045 0.1,-0.1 v -8 C 70.2,70.045 70.155,70 70.1,70 h -3.9 c -0.1,0 0,0.1 0,0 v -7.8 c 0,-0.1 -0.1,0 0,0 h 3.9 c 0.055,0 0.1,-0.045 0.1,-0.1 v -8 C 70.2,54.045 70.155,54 70.1,54 h -3.9 c -0.1,0 0,0.1 0,0 v -7.8 c 0,-0.1 -0.1,0 0,0 h 3.9 c 0.055,0 0.1,-0.045 0.1,-0.1 v -8 C 70.2,38.045 70.155,38 70.1,38 h -3.9 c -0.1,0 0,0.1 0,0 V 25.1 c 0,-2.651 -0.698,-5.255 -2.023,-7.55 C 62.852,15.255 60.945,13.348 58.65,12.023 56.355,10.698 53.751,10 51.1,10 h -22 c -2.651,0 -5.255,0.698 -7.55,2.023 -2.295,1.325 -4.202,3.232 -5.527,5.527 C 14.698,19.845 14,22.449 14,25.1 14,25.045 14.045,25 14.1,25 h -4 C 10.045,25 10,25.045 10,25.1 v 12 c 0,0.055 0.045,0.1 0.1,0.1 H 14 c 0.1,0 0,-0.1 0,0 V 49.1 58 c 0,0.1 0.1,0 0,0 H 10.1 C 10.045,58 10,58.045 10,58.1 v 8 c 0,0.055 0.045,0.1 0.1,0.1 H 14 c 0.1,0 0,-0.1 0,0 V 74 c 0,0.1 0.1,0 0,0 H 10.1 C 10.045,74 10,74.045 10,74.1 v 8 c 0,0.055 0.045,0.1 0.1,0.1 H 14 c 0.1,0 0,-0.1 0,0 V 90 c 0,0.1 0.1,0 0,0 H 10.1 C 10.045,90 10,90.045 10,90.1 v 8 c 0,0.055 0.045,0.1 0.1,0.1 H 14 c 0.1,0 0,-0.1 0,0 v 8.9 c 0,2.651 0.698,5.255 2.023,7.55 1.325,2.295 3.232,4.202 5.527,5.527 2.295,1.325 4.899,2.023 7.55,2.023 z"
       stroke="#000000"
       stroke-width="0.2"
       id="path22"
       style="fill:#fff5d1;fill-opacity:1" />
  </g>
  <g
     id="p-3"
     style="fill:#fff5d1;stroke-linecap:round;stroke-linejoin:round;fill-opacity:1"
     transform="rotate(90,147.56591,99.057256)">
    <path
       d="m 113.3,122.2 h -11 -11 c -2.651,0 -5.255,-0.698 -7.55,-2.023 -2.295,-1.325 -4.202,-3.232 -5.527,-5.527 C 76.898,112.355 76.2,109.751 76.2,107.1 V 94.2 c 0,-0.1 0.1,0 0,0 h -3.9 c -0.055,0 -0.1,-0.045 -0.1,-0.1 v -8 c 0,-0.055 0.045,-0.1 0.1,-0.1 h 3.9 c 0.1,0 0,0.1 0,0 v -7.8 c 0,-0.1 0.1,0 0,0 h -3.9 c -0.055,0 -0.1,-0.045 -0.1,-0.1 v -8 c 0,-0.055 0.045,-0.1 0.1,-0.1 h 3.9 c 0.1,0 0,0.1 0,0 v -7.8 c 0,-0.1 0.1,0 0,0 h -3.9 c -0.055,0 -0.1,-0.045 -0.1,-0.1 v -8 c 0,-0.055 0.045,-0.1 0.1,-0.1 h 3.9 c 0.1,0 0,0.1 0,0 v -7.8 c 0,-0.1 0.1,0 0,0 h -3.9 c -0.055,0 -0.1,-0.045 -0.1,-0.1 v -8 c 0,-0.055 0.045,-0.1 0.1,-0.1 h 3.9 c 0.1,0 0,0.1 0,0 V 25.1 c 0,-2.651 0.698,-5.255 2.023,-7.55 1.325,-2.295 3.232,-4.202 5.527,-5.527 C 86.045,10.698 88.649,10 91.3,10 h 22 c 2.651,0 5.255,0.698 7.55,2.023 2.295,1.325 4.202,3.232 5.527,5.527 1.325,2.295 2.023,4.899 2.023,7.55 0,-0.055 -0.045,-0.1 -0.1,-0.1 h 4 c 0.055,0 0.1,0.045 0.1,0.1 v 12 c 0,0.055 -0.045,0.1 -0.1,0.1 h -3.9 c -0.1,0 0,-0.1 0,0 V 49.1 58 c 0,0.1 -0.1,0 0,0 h 3.9 c 0.055,0 0.1,0.045 0.1,0.1 v 8 c 0,0.055 -0.045,0.1 -0.1,0.1 h -3.9 c -0.1,0 0,-0.1 0,0 V 74 c 0,0.1 -0.1,0 0,0 h 3.9 c 0.055,0 0.1,0.045 0.1,0.1 v 8 c 0,0.055 -0.045,0.1 -0.1,0.1 h -3.9 c -0.1,0 0,-0.1 0,0 V 90 c 0,0.1 -0.1,0 0,0 h 3.9 c 0.055,0 0.1,0.045 0.1,0.1 v 8 c 0,0.055 -0.045,0.1 -0.1,0.1 h -3.9 c -0.1,0 0,-0.1 0,0 v 8.9 c 0,2.651 -0.698,5.255 -2.023,7.55 -1.325,2.295 -3.232,4.202 -5.527,5.527 -2.295,1.325 -4.899,2.023 -7.55,2.023 z"
       stroke="#000000"
       stroke-width="0.2"
       id="path25"
       style="fill:#fff5d1;fill-opacity:1" />
  </g>
  <rect
     style="fill:none;stroke:#000000;stroke-width:0.200025;stroke-linecap:round;stroke-opacity:1"
     id="rect891"
     width="50.999992"
     height="20.000334"
     x="155.02316"
     y="41.715603" />
  <circle
     style="fill:none;stroke:#000000;stroke-width:0.200025;stroke-linecap:round;stroke-opacity:1"
     id="path893"
     cx="100.24313"
     cy="118.3053"
     r="6.0391626" />
  <rect
     style="fill:none;stroke:#000000;stroke-width:0.200025;stroke-linecap:round;stroke-opacity:1"
     id="rect897"
     width="73"
     height="14"
     x="138.93169"
     y="111.3053" />
</svg>
