<?xml version="1.0" encoding="UTF-8" standalone="no"?>
<svg
   xmlns:dc="http://purl.org/dc/elements/1.1/"
   xmlns:cc="http://creativecommons.org/ns#"
   xmlns:rdf="http://www.w3.org/1999/02/22-rdf-syntax-ns#"
   xmlns:svg="http://www.w3.org/2000/svg"
   xmlns="http://www.w3.org/2000/svg"
   xmlns:sodipodi="http://sodipodi.sourceforge.net/DTD/sodipodi-0.dtd"
   xmlns:inkscape="http://www.inkscape.org/namespaces/inkscape"
   height="204.60mm"
   viewBox="0.0 0.0 282.40 204.60"
   width="282.40mm"
   version="1.1"
   id="svg24"
   sodipodi:docname="ClosedBox_4mm.svg"
   inkscape:version="1.0.2 (e86c870879, 2021-01-15)">
  <defs
     id="defs28" />
  <sodipodi:namedview
     pagecolor="#ffffff"
     bordercolor="#666666"
     borderopacity="1"
     objecttolerance="10"
     gridtolerance="10"
     guidetolerance="10"
     inkscape:pageopacity="0"
     inkscape:pageshadow="2"
     inkscape:window-width="1920"
     inkscape:window-height="1051"
     id="namedview26"
     showgrid="false"
     inkscape:zoom="0.57425064"
     inkscape:cx="419.95128"
     inkscape:cy="211.86827"
     inkscape:window-x="0"
     inkscape:window-y="0"
     inkscape:window-maximized="1"
     inkscape:current-layer="svg24"
     inkscape:document-rotation="0" />
  <!--
ClosedBox - Fully closed box

Created with Boxes.py (https://festi.info/boxes.py)
Creation date: 2021-02-10 20:49:43
Command line (remove spaces between dashes): boxes ClosedBox - -FingerJoint_angle=90.0 - -FingerJoint_style=rectangular - -FingerJoint_surroundingspaces=2.0 - -FingerJoint_edge_width=1.0 - -FingerJoint_finger=2.0 - -FingerJoint_play=0.0 - -FingerJoint_space=2.0 - -FingerJoint_width=1.0 - -x=130.0 - -y=60.0 - -h=60.0 - -outside=0 - -outside=1 - -thickness=4.0 - -format=svg - -tabs=0.0 - -debug=0 - -reference=0 - -burn=0.1
Url: http://www.festi.info/ClosedBox?FingerJoint_angle=90.0&FingerJoint_style=rectangular&FingerJoint_surroundingspaces=2.0&FingerJoint_edge_width=1.0&FingerJoint_finger=2.0&FingerJoint_play=0.0&FingerJoint_space=2.0&FingerJoint_width=1.0&x=130.0&y=60.0&h=60.0&outside=0&outside=1&thickness=4.0&format=svg&tabs=0.0&debug=0&reference=0&burn=0.1&render=1
SettingsUrl: http://www.festi.info/ClosedBox?FingerJoint_angle=90.0&FingerJoint_style=rectangular&FingerJoint_surroundingspaces=2.0&FingerJoint_edge_width=1.0&FingerJoint_finger=2.0&FingerJoint_play=0.0&FingerJoint_space=2.0&FingerJoint_width=1.0&x=130.0&y=60.0&h=60.0&outside=0&outside=1&thickness=4.0&format=svg&tabs=0.0&debug=0&reference=0&burn=0.1
-->
  <title
     id="title2">ClosedBox</title>
  <metadata
     id="metadata4">
    <rdf:RDF>
      <cc:Work>
        <dc:title>Box - ClosedBox</dc:title>
        <dc:date>2021-02-10 20:49:43</dc:date>
        <dc:source>http://www.festi.info/ClosedBox?FingerJoint_angle=90.0&amp;FingerJoint_style=rectangular&amp;FingerJoint_surroundingspaces=2.0&amp;FingerJoint_edge_width=1.0&amp;FingerJoint_finger=2.0&amp;FingerJoint_play=0.0&amp;FingerJoint_space=2.0&amp;FingerJoint_width=1.0&amp;x=130.0&amp;y=60.0&amp;h=60.0&amp;outside=0&amp;outside=1&amp;thickness=4.0&amp;format=svg&amp;tabs=0.0&amp;debug=0&amp;reference=0&amp;burn=0.1&amp;render=1</dc:source>
        <dc:description>Fully closed box

Created with Boxes.py (https://festi.info/boxes.py)
Command line: boxes ClosedBox --FingerJoint_angle=90.0 --FingerJoint_style=rectangular --FingerJoint_surroundingspaces=2.0 --FingerJoint_edge_width=1.0 --FingerJoint_finger=2.0 --FingerJoint_play=0.0 --FingerJoint_space=2.0 --FingerJoint_width=1.0 --x=130.0 --y=60.0 --h=60.0 --outside=0 --outside=1 --thickness=4.0 --format=svg --tabs=0.0 --debug=0 --reference=0 --burn=0.1
Url: http://www.festi.info/ClosedBox?FingerJoint_angle=90.0&amp;FingerJoint_style=rectangular&amp;FingerJoint_surroundingspaces=2.0&amp;FingerJoint_edge_width=1.0&amp;FingerJoint_finger=2.0&amp;FingerJoint_play=0.0&amp;FingerJoint_space=2.0&amp;FingerJoint_width=1.0&amp;x=130.0&amp;y=60.0&amp;h=60.0&amp;outside=0&amp;outside=1&amp;thickness=4.0&amp;format=svg&amp;tabs=0.0&amp;debug=0&amp;reference=0&amp;burn=0.1&amp;render=1
SettingsUrl: http://www.festi.info/ClosedBox?FingerJoint_angle=90.0&amp;FingerJoint_style=rectangular&amp;FingerJoint_surroundingspaces=2.0&amp;FingerJoint_edge_width=1.0&amp;FingerJoint_finger=2.0&amp;FingerJoint_play=0.0&amp;FingerJoint_space=2.0&amp;FingerJoint_width=1.0&amp;x=130.0&amp;y=60.0&amp;h=60.0&amp;outside=0&amp;outside=1&amp;thickness=4.0&amp;format=svg&amp;tabs=0.0&amp;debug=0&amp;reference=0&amp;burn=0.1
</dc:description>
        <dc:format>image/svg+xml</dc:format>
        <dc:type
           rdf:resource="http://purl.org/dc/dcmitype/StillImage" />
      </cc:Work>
    </rdf:RDF>
  </metadata>
  <g
     id="p-0"
     style="fill:#ffee00;stroke-linecap:round;stroke-linejoin:round;fill-opacity:0.20028657">
    <path
       d="M 14.100 194.600 H 23.100 C 23.155 194.600 23.200 194.555 23.200 194.500 V 190.600 C 23.200 190.500 23.100 190.600 23.200 190.600 H 31.000 C 31.100 190.600 31.000 190.500 31.000 190.600 V 194.500 C 31.000 194.555 31.045 194.600 31.100 194.600 H 39.100 C 39.155 194.600 39.200 194.555 39.200 194.500 V 190.600 C 39.200 190.500 39.100 190.600 39.200 190.600 H 47.000 C 47.100 190.600 47.000 190.500 47.000 190.600 V 194.500 C 47.000 194.555 47.045 194.600 47.100 194.600 H 55.100 C 55.155 194.600 55.200 194.555 55.200 194.500 V 190.600 C 55.200 190.500 55.100 190.600 55.200 190.600 H 63.000 C 63.100 190.600 63.000 190.500 63.000 190.600 V 194.500 C 63.000 194.555 63.045 194.600 63.100 194.600 H 71.100 C 71.155 194.600 71.200 194.555 71.200 194.500 V 190.600 C 71.200 190.500 71.100 190.600 71.200 190.600 H 79.000 C 79.100 190.600 79.000 190.500 79.000 190.600 V 194.500 C 79.000 194.555 79.045 194.600 79.100 194.600 H 87.100 C 87.155 194.600 87.200 194.555 87.200 194.500 V 190.600 C 87.200 190.500 87.100 190.600 87.200 190.600 H 95.000 C 95.100 190.600 95.000 190.500 95.000 190.600 V 194.500 C 95.000 194.555 95.045 194.600 95.100 194.600 H 103.100 C 103.155 194.600 103.200 194.555 103.200 194.500 V 190.600 C 103.200 190.500 103.100 190.600 103.200 190.600 H 111.000 C 111.100 190.600 111.000 190.500 111.000 190.600 V 194.500 C 111.000 194.555 111.045 194.600 111.100 194.600 H 119.100 C 119.155 194.600 119.200 194.555 119.200 194.500 V 190.600 C 119.200 190.500 119.100 190.600 119.200 190.600 H 127.000 C 127.100 190.600 127.000 190.500 127.000 190.600 V 194.500 C 127.000 194.555 127.045 194.600 127.100 194.600 H 136.100 H 140.100 C 140.155 194.600 140.200 194.555 140.200 194.500 V 190.500 V 176.500 C 140.200 176.445 140.155 176.400 140.100 176.400 H 136.200 C 136.100 176.400 136.200 176.500 136.200 176.400 V 168.600 C 136.200 168.500 136.100 168.600 136.200 168.600 H 140.100 C 140.155 168.600 140.200 168.555 140.200 168.500 V 160.500 C 140.200 160.445 140.155 160.400 140.100 160.400 H 136.200 C 136.100 160.400 136.200 160.500 136.200 160.400 V 152.600 C 136.200 152.500 136.100 152.600 136.200 152.600 H 140.100 C 140.155 152.600 140.200 152.555 140.200 152.500 V 138.500 V 134.500 C 140.200 134.445 140.155 134.400 140.100 134.400 H 136.100 H 127.100 C 127.045 134.400 127.000 134.445 127.000 134.500 V 138.400 C 127.000 138.500 127.100 138.400 127.000 138.400 H 119.200 C 119.100 138.400 119.200 138.500 119.200 138.400 V 134.500 C 119.200 134.445 119.155 134.400 119.100 134.400 H 111.100 C 111.045 134.400 111.000 134.445 111.000 134.500 V 138.400 C 111.000 138.500 111.100 138.400 111.000 138.400 H 103.200 C 103.100 138.400 103.200 138.500 103.200 138.400 V 134.500 C 103.200 134.445 103.155 134.400 103.100 134.400 H 95.100 C 95.045 134.400 95.000 134.445 95.000 134.500 V 138.400 C 95.000 138.500 95.100 138.400 95.000 138.400 H 87.200 C 87.100 138.400 87.200 138.500 87.200 138.400 V 134.500 C 87.200 134.445 87.155 134.400 87.100 134.400 H 79.100 C 79.045 134.400 79.000 134.445 79.000 134.500 V 138.400 C 79.000 138.500 79.100 138.400 79.000 138.400 H 71.200 C 71.100 138.400 71.200 138.500 71.200 138.400 V 134.500 C 71.200 134.445 71.155 134.400 71.100 134.400 H 63.100 C 63.045 134.400 63.000 134.445 63.000 134.500 V 138.400 C 63.000 138.500 63.100 138.400 63.000 138.400 H 55.200 C 55.100 138.400 55.200 138.500 55.200 138.400 V 134.500 C 55.200 134.445 55.155 134.400 55.100 134.400 H 47.100 C 47.045 134.400 47.000 134.445 47.000 134.500 V 138.400 C 47.000 138.500 47.100 138.400 47.000 138.400 H 39.200 C 39.100 138.400 39.200 138.500 39.200 138.400 V 134.500 C 39.200 134.445 39.155 134.400 39.100 134.400 H 31.100 C 31.045 134.400 31.000 134.445 31.000 134.500 V 138.400 C 31.000 138.500 31.100 138.400 31.000 138.400 H 23.200 C 23.100 138.400 23.200 138.500 23.200 138.400 V 134.500 C 23.200 134.445 23.155 134.400 23.100 134.400 H 14.100 H 10.100 C 10.045 134.400 10.000 134.445 10.000 134.500 V 138.500 V 152.500 C 10.000 152.555 10.045 152.600 10.100 152.600 H 14.000 C 14.100 152.600 14.000 152.500 14.000 152.600 V 160.400 C 14.000 160.500 14.100 160.400 14.000 160.400 H 10.100 C 10.045 160.400 10.000 160.445 10.000 160.500 V 168.500 C 10.000 168.555 10.045 168.600 10.100 168.600 H 14.000 C 14.100 168.600 14.000 168.500 14.000 168.600 V 176.400 C 14.000 176.500 14.100 176.400 14.000 176.400 H 10.100 C 10.045 176.400 10.000 176.445 10.000 176.500 V 190.500 V 194.500 C 10.000 194.555 10.045 194.600 10.100 194.600 H 14.100 Z"
       stroke="rgb(0,0,0)"
       stroke-width="0.20"
       id="path6"
       style="fill:#ffee00;fill-opacity:0.20028657" />
  </g>
  <g
     id="p-1"
     style="fill:#ffee00;stroke-linecap:round;stroke-linejoin:round;fill-opacity:0.20028657">
    <path
       d="M 146.300 194.600 H 160.300 C 160.355 194.600 160.400 194.555 160.400 194.500 V 190.600 C 160.400 190.500 160.300 190.600 160.400 190.600 H 168.200 C 168.300 190.600 168.200 190.500 168.200 190.600 V 194.500 C 168.200 194.555 168.245 194.600 168.300 194.600 H 176.300 C 176.355 194.600 176.400 194.555 176.400 194.500 V 190.600 C 176.400 190.500 176.300 190.600 176.400 190.600 H 184.200 C 184.300 190.600 184.200 190.500 184.200 190.600 V 194.500 C 184.200 194.555 184.245 194.600 184.300 194.600 H 198.300 C 198.355 194.600 198.400 194.555 198.400 194.500 V 190.500 V 176.600 C 198.400 176.500 198.300 176.600 198.400 176.600 H 202.300 C 202.355 176.600 202.400 176.555 202.400 176.500 V 168.500 C 202.400 168.445 202.355 168.400 202.300 168.400 H 198.400 C 198.300 168.400 198.400 168.500 198.400 168.400 V 160.600 C 198.400 160.500 198.300 160.600 198.400 160.600 H 202.300 C 202.355 160.600 202.400 160.555 202.400 160.500 V 152.500 C 202.400 152.445 202.355 152.400 202.300 152.400 H 198.400 C 198.300 152.400 198.400 152.500 198.400 152.400 V 138.500 V 134.500 C 198.400 134.445 198.355 134.400 198.300 134.400 H 184.300 C 184.245 134.400 184.200 134.445 184.200 134.500 V 138.400 C 184.200 138.500 184.300 138.400 184.200 138.400 H 176.400 C 176.300 138.400 176.400 138.500 176.400 138.400 V 134.500 C 176.400 134.445 176.355 134.400 176.300 134.400 H 168.300 C 168.245 134.400 168.200 134.445 168.200 134.500 V 138.400 C 168.200 138.500 168.300 138.400 168.200 138.400 H 160.400 C 160.300 138.400 160.400 138.500 160.400 138.400 V 134.500 C 160.400 134.445 160.355 134.400 160.300 134.400 H 146.300 C 146.245 134.400 146.200 134.445 146.200 134.500 V 138.500 V 152.400 C 146.200 152.500 146.300 152.400 146.200 152.400 H 142.300 C 142.245 152.400 142.200 152.445 142.200 152.500 V 160.500 C 142.200 160.555 142.245 160.600 142.300 160.600 H 146.200 C 146.300 160.600 146.200 160.500 146.200 160.600 V 168.400 C 146.200 168.500 146.300 168.400 146.200 168.400 H 142.300 C 142.245 168.400 142.200 168.445 142.200 168.500 V 176.500 C 142.200 176.555 142.245 176.600 142.300 176.600 H 146.200 C 146.300 176.600 146.200 176.500 146.200 176.600 V 190.500 V 194.500 C 146.200 194.555 146.245 194.600 146.300 194.600 Z"
       stroke="rgb(0,0,0)"
       stroke-width="0.20"
       id="path9"
       style="fill:#ffee00;fill-opacity:0.20028657" />
  </g>
  <path
     id="path12"
     style="fill:#ffee00;fill-opacity:0.200287;stroke-linecap:round;stroke-linejoin:round;stroke:#000000;stroke-opacity:1"
     d="M 552.94531 272.88281 C 552.73744 272.88281 552.56641 273.05189 552.56641 273.25977 L 552.56641 288.37891 L 552.56641 340.91406 L 537.82617 340.91406 C 537.6183 340.91406 537.44922 341.08314 537.44922 341.29102 L 537.44922 371.52734 C 537.44922 371.73522 537.6183 371.90625 537.82617 371.90625 L 552.56641 371.90625 L 552.56641 401.38672 L 537.82617 401.38672 C 537.6183 401.38672 537.44922 401.5558 537.44922 401.76367 L 537.44922 432 C 537.44922 432.20787 537.6183 432.37891 537.82617 432.37891 L 552.56641 432.37891 L 552.56641 484.91406 L 552.56641 500.03125 C 552.56641 500.23912 552.73744 500.41016 552.94531 500.41016 L 605.85742 500.41016 C 606.0653 500.41016 606.23633 500.23912 606.23633 500.03125 L 606.23633 485.29102 L 635.7168 485.29102 L 635.7168 500.03125 C 635.7168 500.23912 635.88588 500.41016 636.09375 500.41016 L 666.33008 500.41016 C 666.53795 500.41016 666.70898 500.23912 666.70898 500.03125 L 666.70898 485.29102 L 696.18945 485.29102 L 696.18945 500.03125 C 696.18945 500.23912 696.35853 500.41016 696.56641 500.41016 L 749.48047 500.41016 C 749.68834 500.41016 749.85742 500.23912 749.85742 500.03125 L 749.85742 484.91406 L 749.85742 432.37891 L 764.59766 432.37891 C 764.80553 432.37891 764.97656 432.20787 764.97656 432 L 764.97656 401.76367 C 764.97656 401.5558 764.80553 401.38672 764.59766 401.38672 L 749.85742 401.38672 L 749.85742 371.90625 L 764.59766 371.90625 C 764.80553 371.90625 764.97656 371.73522 764.97656 371.52734 L 764.97656 341.29102 C 764.97656 341.08314 764.80553 340.91406 764.59766 340.91406 L 749.85742 340.91406 L 749.85742 288.37891 L 749.85742 273.25977 C 749.85742 273.05189 749.68834 272.88281 749.48047 272.88281 L 696.56641 272.88281 C 696.35853 272.88281 696.18945 273.05189 696.18945 273.25977 L 696.18945 288 L 666.70898 288 L 666.70898 273.25977 C 666.70898 273.05189 666.53795 272.88281 666.33008 272.88281 L 636.09375 272.88281 C 635.88588 272.88281 635.7168 273.05189 635.7168 273.25977 L 635.7168 288 L 606.23633 288 L 606.23633 273.25977 C 606.23633 273.05189 606.0653 272.88281 605.85742 272.88281 L 552.94531 272.88281 z M 651.03125 364.72461 A 21.92126 21.92126 0 0 1 651.21289 364.72461 A 21.92126 21.92126 0 0 1 673.13477 386.64648 A 21.92126 21.92126 0 0 1 651.21289 408.56641 A 21.92126 21.92126 0 0 1 629.29102 386.64648 A 21.92126 21.92126 0 0 1 651.03125 364.72461 z "
     transform="scale(0.26458334)" />
  <path
     id="path15"
     style="fill:#ffee00;fill-opacity:0.200287;stroke-width:0.756;stroke-linecap:round;stroke-linejoin:round;stroke-miterlimit:4;stroke-dasharray:none;stroke:#000000;stroke-opacity:1"
     d="M 38.173828 272.88281 C 37.965954 272.88281 37.794922 273.05189 37.794922 273.25977 L 37.794922 288.37891 L 37.794922 341.29102 C 37.794922 341.49889 37.965954 341.66992 38.173828 341.66992 L 52.914062 341.66992 L 52.914062 371.15039 L 38.173828 371.15039 C 37.965954 371.15039 37.794922 371.31947 37.794922 371.52734 L 37.794922 401.76367 C 37.794922 401.97155 37.965954 402.14258 38.173828 402.14258 L 52.914062 402.14258 L 52.914062 431.62109 L 38.173828 431.62109 C 37.965954 431.62109 37.794922 431.79213 37.794922 432 L 37.794922 484.91406 L 37.794922 500.03125 C 37.794922 500.23912 37.965954 500.41016 38.173828 500.41016 L 53.291016 500.41016 L 87.306641 500.41016 C 87.514515 500.41016 87.685547 500.23912 87.685547 500.03125 L 87.685547 485.29102 L 117.16602 485.29102 L 117.16602 500.03125 C 117.16602 500.23912 117.33509 500.41016 117.54297 500.41016 L 147.7793 500.41016 C 147.98717 500.41016 148.1582 500.23912 148.1582 500.03125 L 148.1582 485.29102 L 177.63867 485.29102 L 177.63867 500.03125 C 177.63867 500.23912 177.80775 500.41016 178.01562 500.41016 L 208.25195 500.41016 C 208.45983 500.41016 208.63086 500.23912 208.63086 500.03125 L 208.63086 485.29102 L 238.10938 485.29102 L 238.10938 500.03125 C 238.10938 500.23912 238.28041 500.41016 238.48828 500.41016 L 268.72461 500.41016 C 268.93248 500.41016 269.10156 500.23912 269.10156 500.03125 L 269.10156 485.29102 L 298.58203 485.29102 L 298.58203 500.03125 C 298.58203 500.23912 298.75306 500.41016 298.96094 500.41016 L 329.19727 500.41016 C 329.40514 500.41016 329.57422 500.23912 329.57422 500.03125 L 329.57422 485.29102 L 359.05469 485.29102 L 359.05469 500.03125 C 359.05469 500.23912 359.22572 500.41016 359.43359 500.41016 L 389.66992 500.41016 C 389.8778 500.41016 390.04688 500.23912 390.04688 500.03125 L 390.04688 485.29102 L 419.52734 485.29102 L 419.52734 500.03125 C 419.52734 500.23912 419.69838 500.41016 419.90625 500.41016 L 450.14258 500.41016 C 450.35045 500.41016 450.51953 500.23912 450.51953 500.03125 L 450.51953 485.29102 L 480 485.29102 L 480 500.03125 C 480 500.23912 480.17103 500.41016 480.37891 500.41016 L 514.39453 500.41016 L 529.51172 500.41016 C 529.71959 500.41016 529.89062 500.23912 529.89062 500.03125 L 529.89062 484.91406 L 529.89062 432 C 529.89062 431.79213 529.71959 431.62109 529.51172 431.62109 L 514.77148 431.62109 L 514.77148 402.14258 L 529.51172 402.14258 C 529.71959 402.14258 529.89062 401.97155 529.89062 401.76367 L 529.89062 371.52734 C 529.89062 371.31947 529.71959 371.15039 529.51172 371.15039 L 514.77148 371.15039 L 514.77148 341.66992 L 529.51172 341.66992 C 529.71959 341.66992 529.89062 341.49889 529.89062 341.29102 L 529.89062 288.37891 L 529.89062 273.25977 C 529.89062 273.05189 529.71959 272.88281 529.51172 272.88281 L 514.39453 272.88281 L 480.37891 272.88281 C 480.17103 272.88281 480 273.05189 480 273.25977 L 480 288 L 450.51953 288 L 450.51953 273.25977 C 450.51953 273.05189 450.35045 272.88281 450.14258 272.88281 L 419.90625 272.88281 C 419.69838 272.88281 419.52734 273.05189 419.52734 273.25977 L 419.52734 288 L 390.04688 288 L 390.04688 273.25977 C 390.04688 273.05189 389.8778 272.88281 389.66992 272.88281 L 359.43359 272.88281 C 359.22572 272.88281 359.05469 273.05189 359.05469 273.25977 L 359.05469 288 L 329.57422 288 L 329.57422 273.25977 C 329.57422 273.05189 329.40514 272.88281 329.19727 272.88281 L 298.96094 272.88281 C 298.75306 272.88281 298.58203 273.05189 298.58203 273.25977 L 298.58203 288 L 269.10156 288 L 269.10156 273.25977 C 269.10156 273.05189 268.93248 272.88281 268.72461 272.88281 L 238.48828 272.88281 C 238.28041 272.88281 238.10938 273.05189 238.10938 273.25977 L 238.10938 288 L 208.63086 288 L 208.63086 273.25977 C 208.63086 273.05189 208.45983 272.88281 208.25195 272.88281 L 178.01562 272.88281 C 177.80775 272.88281 177.63867 273.05189 177.63867 273.25977 L 177.63867 288 L 148.1582 288 L 148.1582 273.25977 C 148.1582 273.05189 147.98717 272.88281 147.7793 272.88281 L 117.54297 272.88281 C 117.33509 272.88281 117.16602 273.05189 117.16602 273.25977 L 117.16602 288 L 87.685547 288 L 87.685547 273.25977 C 87.685547 273.05189 87.514515 272.88281 87.306641 272.88281 L 53.291016 272.88281 L 38.173828 272.88281 z M 187.46484 348.84961 L 380.2207 348.84961 L 380.2207 424.44141 L 187.46484 424.44141 L 187.46484 348.84961 z "
     transform="scale(0.26458334)" />
  <path
     id="path18"
     style="fill:#ffee00;fill-opacity:0.200287;stroke-linecap:round;stroke-linejoin:round;stroke:#000000;stroke-opacity:1;stroke-width:0.75599999;stroke-miterlimit:4;stroke-dasharray:none"
     d="M 87.306641 37.794922 C 87.098767 37.794922 86.929688 37.965954 86.929688 38.173828 L 86.929688 52.914062 L 53.291016 52.914062 C 53.083142 52.914062 52.914063 53.083142 52.914062 53.291016 L 52.914062 105.82617 L 38.173828 105.82617 C 37.965954 105.82617 37.794922 105.9972 37.794922 106.20508 L 37.794922 136.44141 C 37.794922 136.64928 37.965954 136.81836 38.173828 136.81836 L 52.914062 136.81836 L 52.914062 166.29883 L 38.173828 166.29883 C 37.965954 166.29883 37.794922 166.46986 37.794922 166.67773 L 37.794922 196.91406 C 37.794922 197.12194 37.965954 197.29102 38.173828 197.29102 L 52.914062 197.29102 L 52.914062 249.82617 C 52.914062 250.03405 53.083142 250.20508 53.291016 250.20508 L 86.929688 250.20508 L 86.929688 264.94531 C 86.929688 265.15319 87.098767 265.32227 87.306641 265.32227 L 117.54297 265.32227 C 117.75084 265.32227 117.92188 265.15319 117.92188 264.94531 L 117.92188 250.20508 L 147.40234 250.20508 L 147.40234 264.94531 C 147.40234 265.15319 147.57142 265.32227 147.7793 265.32227 L 178.01562 265.32227 C 178.2235 265.32227 178.39453 265.15319 178.39453 264.94531 L 178.39453 250.20508 L 207.87305 250.20508 L 207.87305 264.94531 C 207.87305 265.15319 208.04408 265.32227 208.25195 265.32227 L 238.48828 265.32227 C 238.69616 265.32227 238.86523 265.15319 238.86523 264.94531 L 238.86523 250.20508 L 268.3457 250.20508 L 268.3457 264.94531 C 268.3457 265.15319 268.51674 265.32227 268.72461 265.32227 L 298.96094 265.32227 C 299.16881 265.32227 299.33789 265.15319 299.33789 264.94531 L 299.33789 250.20508 L 328.81836 250.20508 L 328.81836 264.94531 C 328.81836 265.15319 328.98939 265.32227 329.19727 265.32227 L 359.43359 265.32227 C 359.64147 265.32227 359.81055 265.15319 359.81055 264.94531 L 359.81055 250.20508 L 389.29102 250.20508 L 389.29102 264.94531 C 389.29102 265.15319 389.46205 265.32227 389.66992 265.32227 L 419.90625 265.32227 C 420.11412 265.32227 420.2832 265.15319 420.2832 264.94531 L 420.2832 250.20508 L 449.76367 250.20508 L 449.76367 264.94531 C 449.76367 265.15319 449.9347 265.32227 450.14258 265.32227 L 480.37891 265.32227 C 480.58678 265.32227 480.75586 265.15319 480.75586 264.94531 L 480.75586 250.20508 L 514.39453 250.20508 C 514.60241 250.20508 514.77148 250.03405 514.77148 249.82617 L 514.77148 197.29102 L 529.51172 197.29102 C 529.71959 197.29102 529.89062 197.12194 529.89062 196.91406 L 529.89062 166.67773 C 529.89062 166.46986 529.71959 166.29883 529.51172 166.29883 L 514.77148 166.29883 L 514.77148 136.81836 L 529.51172 136.81836 C 529.71959 136.81836 529.89062 136.64928 529.89062 136.44141 L 529.89062 106.20508 C 529.89062 105.9972 529.71959 105.82617 529.51172 105.82617 L 514.77148 105.82617 L 514.77148 53.291016 C 514.77148 53.083142 514.60241 52.914063 514.39453 52.914062 L 480.75586 52.914062 L 480.75586 38.173828 C 480.75586 37.965954 480.58678 37.794922 480.37891 37.794922 L 450.14258 37.794922 C 449.9347 37.794922 449.76367 37.965954 449.76367 38.173828 L 449.76367 52.914062 L 420.2832 52.914062 L 420.2832 38.173828 C 420.2832 37.965954 420.11412 37.794922 419.90625 37.794922 L 389.66992 37.794922 C 389.46205 37.794922 389.29102 37.965954 389.29102 38.173828 L 389.29102 52.914062 L 359.81055 52.914062 L 359.81055 38.173828 C 359.81055 37.965954 359.64147 37.794922 359.43359 37.794922 L 329.19727 37.794922 C 328.98939 37.794922 328.81836 37.965954 328.81836 38.173828 L 328.81836 52.914062 L 299.33789 52.914062 L 299.33789 38.173828 C 299.33789 37.965954 299.16881 37.794922 298.96094 37.794922 L 268.72461 37.794922 C 268.51674 37.794922 268.3457 37.965954 268.3457 38.173828 L 268.3457 52.914062 L 238.86523 52.914062 L 238.86523 38.173828 C 238.86523 37.965954 238.69616 37.794922 238.48828 37.794922 L 208.25195 37.794922 C 208.04408 37.794922 207.87305 37.965954 207.87305 38.173828 L 207.87305 52.914062 L 178.39453 52.914062 L 178.39453 38.173828 C 178.39453 37.965954 178.2235 37.794922 178.01562 37.794922 L 147.7793 37.794922 C 147.57142 37.794922 147.40234 37.965954 147.40234 38.173828 L 147.40234 52.914062 L 117.92188 52.914062 L 117.92188 38.173828 C 117.92188 37.965954 117.75084 37.794922 117.54297 37.794922 L 87.306641 37.794922 z M 152.50391 128.88281 L 415.18164 128.88281 L 415.18164 174.23633 L 152.50391 174.23633 L 152.50391 128.88281 z "
     transform="scale(0.26458334)" />
  <g
     id="p-5"
     style="fill:#ffee00;stroke-linecap:round;stroke-linejoin:round;fill-opacity:0.20028657">
    <path
       d="M 146.300 66.200 H 155.200 C 155.300 66.200 155.200 66.100 155.200 66.200 V 70.100 C 155.200 70.155 155.245 70.200 155.300 70.200 H 163.300 C 163.355 70.200 163.400 70.155 163.400 70.100 V 66.200 C 163.400 66.100 163.300 66.200 163.400 66.200 H 171.200 C 171.300 66.200 171.200 66.100 171.200 66.200 V 70.100 C 171.200 70.155 171.245 70.200 171.300 70.200 H 179.300 C 179.355 70.200 179.400 70.155 179.400 70.100 V 66.200 C 179.400 66.100 179.300 66.200 179.400 66.200 H 187.200 C 187.300 66.200 187.200 66.100 187.200 66.200 V 70.100 C 187.200 70.155 187.245 70.200 187.300 70.200 H 195.300 C 195.355 70.200 195.400 70.155 195.400 70.100 V 66.200 C 195.400 66.100 195.300 66.200 195.400 66.200 H 203.200 C 203.300 66.200 203.200 66.100 203.200 66.200 V 70.100 C 203.200 70.155 203.245 70.200 203.300 70.200 H 211.300 C 211.355 70.200 211.400 70.155 211.400 70.100 V 66.200 C 211.400 66.100 211.300 66.200 211.400 66.200 H 219.200 C 219.300 66.200 219.200 66.100 219.200 66.200 V 70.100 C 219.200 70.155 219.245 70.200 219.300 70.200 H 227.300 C 227.355 70.200 227.400 70.155 227.400 70.100 V 66.200 C 227.400 66.100 227.300 66.200 227.400 66.200 H 235.200 C 235.300 66.200 235.200 66.100 235.200 66.200 V 70.100 C 235.200 70.155 235.245 70.200 235.300 70.200 H 243.300 C 243.355 70.200 243.400 70.155 243.400 70.100 V 66.200 C 243.400 66.100 243.300 66.200 243.400 66.200 H 251.200 C 251.300 66.200 251.200 66.100 251.200 66.200 V 70.100 C 251.200 70.155 251.245 70.200 251.300 70.200 H 259.300 C 259.355 70.200 259.400 70.155 259.400 70.100 V 66.200 C 259.400 66.100 259.300 66.200 259.400 66.200 H 268.300 C 268.355 66.200 268.400 66.155 268.400 66.100 V 52.200 C 268.400 52.100 268.300 52.200 268.400 52.200 H 272.300 C 272.355 52.200 272.400 52.155 272.400 52.100 V 44.100 C 272.400 44.045 272.355 44.000 272.300 44.000 H 268.400 C 268.300 44.000 268.400 44.100 268.400 44.000 V 36.200 C 268.400 36.100 268.300 36.200 268.400 36.200 H 272.300 C 272.355 36.200 272.400 36.155 272.400 36.100 V 28.100 C 272.400 28.045 272.355 28.000 272.300 28.000 H 268.400 C 268.300 28.000 268.400 28.100 268.400 28.000 V 14.100 C 268.400 14.045 268.355 14.000 268.300 14.000 H 259.400 C 259.300 14.000 259.400 14.100 259.400 14.000 V 10.100 C 259.400 10.045 259.355 10.000 259.300 10.000 H 251.300 C 251.245 10.000 251.200 10.045 251.200 10.100 V 14.000 C 251.200 14.100 251.300 14.000 251.200 14.000 H 243.400 C 243.300 14.000 243.400 14.100 243.400 14.000 V 10.100 C 243.400 10.045 243.355 10.000 243.300 10.000 H 235.300 C 235.245 10.000 235.200 10.045 235.200 10.100 V 14.000 C 235.200 14.100 235.300 14.000 235.200 14.000 H 227.400 C 227.300 14.000 227.400 14.100 227.400 14.000 V 10.100 C 227.400 10.045 227.355 10.000 227.300 10.000 H 219.300 C 219.245 10.000 219.200 10.045 219.200 10.100 V 14.000 C 219.200 14.100 219.300 14.000 219.200 14.000 H 211.400 C 211.300 14.000 211.400 14.100 211.400 14.000 V 10.100 C 211.400 10.045 211.355 10.000 211.300 10.000 H 203.300 C 203.245 10.000 203.200 10.045 203.200 10.100 V 14.000 C 203.200 14.100 203.300 14.000 203.200 14.000 H 195.400 C 195.300 14.000 195.400 14.100 195.400 14.000 V 10.100 C 195.400 10.045 195.355 10.000 195.300 10.000 H 187.300 C 187.245 10.000 187.200 10.045 187.200 10.100 V 14.000 C 187.200 14.100 187.300 14.000 187.200 14.000 H 179.400 C 179.300 14.000 179.400 14.100 179.400 14.000 V 10.100 C 179.400 10.045 179.355 10.000 179.300 10.000 H 171.300 C 171.245 10.000 171.200 10.045 171.200 10.100 V 14.000 C 171.200 14.100 171.300 14.000 171.200 14.000 H 163.400 C 163.300 14.000 163.400 14.100 163.400 14.000 V 10.100 C 163.400 10.045 163.355 10.000 163.300 10.000 H 155.300 C 155.245 10.000 155.200 10.045 155.200 10.100 V 14.000 C 155.200 14.100 155.300 14.000 155.200 14.000 H 146.300 C 146.245 14.000 146.200 14.045 146.200 14.100 V 28.000 C 146.200 28.100 146.300 28.000 146.200 28.000 H 142.300 C 142.245 28.000 142.200 28.045 142.200 28.100 V 36.100 C 142.200 36.155 142.245 36.200 142.300 36.200 H 146.200 C 146.300 36.200 146.200 36.100 146.200 36.200 V 44.000 C 146.200 44.100 146.300 44.000 146.200 44.000 H 142.300 C 142.245 44.000 142.200 44.045 142.200 44.100 V 52.100 C 142.200 52.155 142.245 52.200 142.300 52.200 H 146.200 C 146.300 52.200 146.200 52.100 146.200 52.200 V 66.100 C 146.200 66.155 146.245 66.200 146.300 66.200 Z"
       stroke="rgb(0,0,0)"
       stroke-width="0.20"
       id="path21"
       style="fill:#ffee00;fill-opacity:0.20028657" />
  </g>
</svg>
