<?xml version="1.0" encoding="UTF-8" standalone="no"?>
<svg
   xmlns:dc="http://purl.org/dc/elements/1.1/"
   xmlns:cc="http://creativecommons.org/ns#"
   xmlns:rdf="http://www.w3.org/1999/02/22-rdf-syntax-ns#"
   xmlns:svg="http://www.w3.org/2000/svg"
   xmlns="http://www.w3.org/2000/svg"
   xmlns:sodipodi="http://sodipodi.sourceforge.net/DTD/sodipodi-0.dtd"
   xmlns:inkscape="http://www.inkscape.org/namespaces/inkscape"
   width="273.56848mm"
   height="95.75528mm"
   viewBox="0 0 273.56848 95.75528"
   version="1.1"
   id="svg8"
   inkscape:version="1.0.2 (e86c870879, 2021-01-15)"
   sodipodi:docname="Clouds_part3.svg">
  <defs
     id="defs2" />
  <sodipodi:namedview
     id="base"
     pagecolor="#ffffff"
     bordercolor="#666666"
     borderopacity="1.0"
     inkscape:pageopacity="0.0"
     inkscape:pageshadow="2"
     inkscape:zoom="0.49497475"
     inkscape:cx="345.25816"
     inkscape:cy="224.87821"
     inkscape:document-units="mm"
     inkscape:current-layer="layer1"
     inkscape:document-rotation="0"
     showgrid="false"
     inkscape:window-width="1920"
     inkscape:window-height="1051"
     inkscape:window-x="0"
     inkscape:window-y="0"
     inkscape:window-maximized="1"
     fit-margin-top="5"
     fit-margin-left="5"
     fit-margin-right="5"
     fit-margin-bottom="5" />
  <metadata
     id="metadata5">
    <rdf:RDF>
      <cc:Work
         rdf:about="">
        <dc:format>image/svg+xml</dc:format>
        <dc:type
           rdf:resource="http://purl.org/dc/dcmitype/StillImage" />
        <dc:title></dc:title>
      </cc:Work>
    </rdf:RDF>
  </metadata>
  <g
     inkscape:label="Layer 1"
     inkscape:groupmode="layer"
     id="layer1"
     transform="translate(-64.667091,-27.637818)">
    <path
       id="path877"
       style="fill:#00fff4;fill-opacity:0.297168;stroke:#000000;stroke-width:0.315155;stroke-opacity:1"
       sodipodi:type="inkscape:offset"
       inkscape:radius="-3.4762156"
       inkscape:original="M 377.50781 8.6582031 C 367.50524 8.7905625 357.80926 12.943236 350.14258 20.619141 C 347.71475 23.049901 343.63988 28.197595 343.27344 29.296875 C 343.20851 29.491675 342.58803 29.365869 341.7168 28.980469 C 335.8351 26.378719 328.82619 26.689344 323.21484 29.802734 C 318.30375 32.527574 313.82891 38.161805 311.82422 44.140625 C 311.30204 45.697935 310.94371 46.287196 310.44336 46.416016 C 309.23532 46.727056 305.08836 49.349996 303.08203 51.072266 C 293.29687 59.471976 290.40897 73.897067 296.21484 85.373047 C 300.15579 93.162807 307.36552 98.707229 315.91406 100.52344 C 318.44008 101.06006 321.44202 101.0888 368.54492 101.0293 L 418.49805 100.9668 L 420.83203 100.24609 C 440.03816 94.316366 445.9684 71.294542 431.89648 57.294922 C 428.22281 53.640142 422.80144 50.795018 418.39844 50.210938 L 416.85547 50.005859 L 416.66016 45.865234 C 416.35786 39.444634 415.12521 34.898941 412.16016 29.275391 C 407.18495 19.839381 397.99456 12.598795 387.54883 9.8847656 C 384.21055 9.0174081 380.842 8.6140833 377.50781 8.6582031 z "
       d="m 377.55469,12.134766 c -9.07042,0.120024 -17.87905,3.858813 -24.95313,10.941406 -1.03404,1.035288 -2.63784,2.892283 -3.9414,4.539062 -0.65179,0.82339 -1.23865,1.603743 -1.65039,2.19336 -0.41175,0.589617 -0.70169,1.374564 -0.43946,0.58789 -0.28846,0.865428 -0.99934,1.615104 -1.60156,1.964844 -0.60222,0.349741 -1.0777,0.432252 -1.43555,0.47461 -0.7157,0.08472 -1.08307,-0.0023 -1.42773,-0.07227 -0.68933,-0.140015 -1.20807,-0.343915 -1.79492,-0.603516 -4.85374,-2.147035 -10.7849,-1.883545 -15.40821,0.681641 -3.91679,2.173173 -8.06493,7.279698 -9.7832,12.404297 -0.29527,0.880593 -0.54473,1.585831 -1.02148,2.371094 -0.47675,0.785262 -1.49159,1.832469 -2.78711,2.166015 0.37539,-0.09665 -0.11457,0.05122 -0.60157,0.3125 -0.48699,0.261281 -1.12487,0.636532 -1.78906,1.056641 -1.32837,0.840217 -2.80743,1.89842 -3.57422,2.55664 -8.54915,7.338706 -11.09583,20.081096 -6.02929,30.095704 3.46994,6.858754 9.78988,11.718454 17.32031,13.318359 2.00311,0.425534 4.803,0.489185 51.9043,0.429687 l 49.42968,-0.06055 1.83594,-0.56836 c 16.97557,-5.241059 22.01357,-24.852741 9.63867,-37.164062 -3.10089,-3.084953 -8.19098,-5.66404 -11.5039,-6.103516 l -1.54297,-0.205078 a 3.4765632,3.4765632 0 0 1 -3.01563,-3.28125 L 413.1875,46.029297 C 412.90245,39.975145 411.87591,36.187989 409.08594,30.896484 404.59229,22.3738 396.14343,15.710411 386.67383,13.25 c -3.04126,-0.790186 -6.09619,-1.155236 -9.11914,-1.115234 z"
       transform="translate(-226.89932,20.663594)" />
    <path
       id="path835"
       style="fill:#00fff4;fill-opacity:0.297168;stroke:#000000;stroke-width:0.315155;stroke-opacity:1"
       sodipodi:type="inkscape:offset"
       inkscape:radius="-3.4762156"
       inkscape:original="M 377.50781 8.6582031 C 367.50524 8.7905625 357.80926 12.943236 350.14258 20.619141 C 347.71475 23.049901 343.63988 28.197595 343.27344 29.296875 C 343.20851 29.491675 342.58803 29.365869 341.7168 28.980469 C 335.8351 26.378719 328.82619 26.689344 323.21484 29.802734 C 318.30375 32.527574 313.82891 38.161805 311.82422 44.140625 C 311.30204 45.697935 310.94371 46.287196 310.44336 46.416016 C 309.23532 46.727056 305.08836 49.349996 303.08203 51.072266 C 293.29687 59.471976 290.40897 73.897067 296.21484 85.373047 C 300.15579 93.162807 307.36552 98.707229 315.91406 100.52344 C 318.44008 101.06006 321.44202 101.0888 368.54492 101.0293 L 418.49805 100.9668 L 420.83203 100.24609 C 440.03816 94.316366 445.9684 71.294542 431.89648 57.294922 C 428.22281 53.640142 422.80144 50.795018 418.39844 50.210938 L 416.85547 50.005859 L 416.66016 45.865234 C 416.35786 39.444634 415.12521 34.898941 412.16016 29.275391 C 407.18495 19.839381 397.99456 12.598795 387.54883 9.8847656 C 384.21055 9.0174081 380.842 8.6140833 377.50781 8.6582031 z "
       d="m 377.55469,12.134766 c -9.07042,0.120024 -17.87905,3.858813 -24.95313,10.941406 -1.03404,1.035288 -2.63784,2.892283 -3.9414,4.539062 -0.65179,0.82339 -1.23865,1.603743 -1.65039,2.19336 -0.41175,0.589617 -0.70169,1.374564 -0.43946,0.58789 -0.28846,0.865428 -0.99934,1.615104 -1.60156,1.964844 -0.60222,0.349741 -1.0777,0.432252 -1.43555,0.47461 -0.7157,0.08472 -1.08307,-0.0023 -1.42773,-0.07227 -0.68933,-0.140015 -1.20807,-0.343915 -1.79492,-0.603516 -4.85374,-2.147035 -10.7849,-1.883545 -15.40821,0.681641 -3.91679,2.173173 -8.06493,7.279698 -9.7832,12.404297 -0.29527,0.880593 -0.54473,1.585831 -1.02148,2.371094 -0.47675,0.785262 -1.49159,1.832469 -2.78711,2.166015 0.37539,-0.09665 -0.11457,0.05122 -0.60157,0.3125 -0.48699,0.261281 -1.12487,0.636532 -1.78906,1.056641 -1.32837,0.840217 -2.80743,1.89842 -3.57422,2.55664 -8.54915,7.338706 -11.09583,20.081096 -6.02929,30.095704 3.46994,6.858754 9.78988,11.718454 17.32031,13.318359 2.00311,0.425534 4.803,0.489185 51.9043,0.429687 l 49.42968,-0.06055 1.83594,-0.56836 c 16.97557,-5.241059 22.01357,-24.852741 9.63867,-37.164062 -3.10089,-3.084953 -8.19098,-5.66404 -11.5039,-6.103516 l -1.54297,-0.205078 a 3.4765632,3.4765632 0 0 1 -3.01563,-3.28125 L 413.1875,46.029297 C 412.90245,39.975145 411.87591,36.187989 409.08594,30.896484 404.59229,22.3738 396.14343,15.710411 386.67383,13.25 c -3.04126,-0.790186 -6.09619,-1.155236 -9.11914,-1.115234 z"
       transform="matrix(1,0,0,-1,-103.23157,130.36732)" />
  </g>
</svg>
