<?xml version="1.0" encoding="UTF-8" standalone="no"?>
<svg
   xmlns:dc="http://purl.org/dc/elements/1.1/"
   xmlns:cc="http://creativecommons.org/ns#"
   xmlns:rdf="http://www.w3.org/1999/02/22-rdf-syntax-ns#"
   xmlns:svg="http://www.w3.org/2000/svg"
   xmlns="http://www.w3.org/2000/svg"
   xmlns:sodipodi="http://sodipodi.sourceforge.net/DTD/sodipodi-0.dtd"
   xmlns:inkscape="http://www.inkscape.org/namespaces/inkscape"
   width="420mm"
   height="594mm"
   viewBox="0 0 420 594"
   version="1.1"
   id="svg8"
   inkscape:version="1.0.1 (3bc2e813f5, 2020-09-07, custom)"
   sodipodi:docname="Clouds.svg">
  <defs
     id="defs2" />
  <sodipodi:namedview
     id="base"
     pagecolor="#ffffff"
     bordercolor="#666666"
     borderopacity="1.0"
     inkscape:pageopacity="0.0"
     inkscape:pageshadow="2"
     inkscape:zoom="0.7"
     inkscape:cx="729.41835"
     inkscape:cy="515.2404"
     inkscape:document-units="mm"
     inkscape:current-layer="layer1"
     inkscape:document-rotation="0"
     showgrid="false"
     inkscape:window-width="1920"
     inkscape:window-height="1051"
     inkscape:window-x="1920"
     inkscape:window-y="0"
     inkscape:window-maximized="1" />
  <metadata
     id="metadata5">
    <rdf:RDF>
      <cc:Work
         rdf:about="">
        <dc:format>image/svg+xml</dc:format>
        <dc:type
           rdf:resource="http://purl.org/dc/dcmitype/StillImage" />
        <dc:title></dc:title>
      </cc:Work>
    </rdf:RDF>
  </metadata>
  <g
     inkscape:label="Layer 1"
     inkscape:groupmode="layer"
     id="layer1">
    <path
       id="path874"
       style="fill:#787070;fill-opacity:0.405981;stroke:#000000;stroke-width:0.315;stroke-miterlimit:4;stroke-dasharray:none;stroke-opacity:1"
       d="m 279.33569,11.966415 c -9.07042,0.120024 -17.8789,3.858858 -24.95299,10.941452 -1.03404,1.035288 -2.63781,2.892477 -3.94136,4.539257 -0.6518,0.823389 -1.23881,1.603531 -1.65055,2.193147 -0.41175,0.589616 -0.70147,1.374752 -0.43924,0.588079 -0.28847,0.865426 -0.99975,1.614996 -1.60197,1.964738 -0.60222,0.349739 -1.07773,0.432549 -1.43558,0.474906 -0.71569,0.08472 -1.08264,-0.0024 -1.42729,-0.07235 -0.68935,-0.140015 -1.20841,-0.343979 -1.79525,-0.603581 -4.85373,-2.147035 -10.78452,-1.883574 -15.40785,0.681612 -3.91679,2.173174 -8.06511,7.279814 -9.78338,12.404414 -0.29527,0.88059 -0.54489,1.58565 -1.02164,2.37091 -0.47675,0.78526 -1.49139,1.83273 -2.78691,2.16628 0.37539,-0.0966 -0.11452,0.0509 -0.60152,0.31212 -0.48699,0.26128 -1.12484,0.63668 -1.78903,1.05679 -1.32837,0.84021 -2.80767,1.89821 -3.57446,2.55643 -8.54915,7.3387 -11.09563,20.08123 -6.02909,30.09584 3.46994,6.858746 9.78996,11.718656 17.32039,13.318566 2.00311,0.42553 4.80304,0.48892 51.90432,0.42943 l 49.42954,-0.0605 1.83607,-0.56844 c 16.97556,-5.24106 22.01357,-24.852816 9.63869,-37.164136 -3.10089,-3.08495 -8.19129,-5.66403 -11.50421,-6.1035 l -1.54305,-0.20516 a 3.476563,3.476563 0 0 1 -3.01533,-3.28093 l -0.19534,-4.14084 c -0.28503,-6.05415 -1.31159,-9.841415 -4.10154,-15.13292 -4.49366,-8.522684 -12.94249,-15.186058 -22.41209,-17.646469 -3.04125,-0.790186 -6.0964,-1.155179 -9.11934,-1.115177 z m 0.0527,4.103109 c 2.65858,-0.03518 5.34712,0.283957 8.03518,0.982368 8.31755,2.161087 15.88693,8.144983 19.81221,15.589747 2.58337,4.899617 3.37026,7.78837 3.63493,13.41003 a 7.5796549,7.5796549 0 0 0 0,0.002 l 0.19534,4.1429 a 7.5796549,7.5796549 0 0 0 6.58204,7.15615 l 1.53529,0.20309 c 2.02452,0.26856 6.72545,2.533 9.15035,4.94544 10.37207,10.31878 6.38649,25.905586 -7.95713,30.334056 l -1.24592,0.38447 -48.81459,0.0646 c -47.09941,0.0595 -49.66105,-0.0471 -51.04702,-0.34158 -6.32777,-1.34438 -11.59542,-5.40013 -14.50971,-11.160556 -4.19413,-8.29019 -2.05188,-19.03976 5.03897,-25.12663 0.48887,-0.41965 1.89947,-1.44653 3.098,-2.20503 0.59927,-0.37925 1.16946,-0.71235 1.53479,-0.90847 0.0833,-0.0447 0.17107,-0.08 0.2465,-0.10801 -0.11522,0.0339 -0.28561,0.0816 -0.56276,0.15297 2.52841,-0.65168 4.48678,-2.71889 5.26945,-4.00803 0.78284,-1.28944 1.07102,-2.1963 1.40662,-3.19722 1.38009,-4.11596 5.13808,-8.595927 7.88273,-10.11876 3.4584,-1.918846 8.11869,-2.129674 11.75795,-0.519864 0.76534,0.338564 1.45688,0.631238 2.63859,0.871262 0.59086,0.120055 1.26156,0.300519 2.72645,0.127125 0.73244,-0.0867 1.73016,-0.256554 3.01376,-1.002006 1.2836,-0.745451 2.81406,-2.356636 3.43339,-4.214728 -0.14094,0.422812 -0.22082,0.643115 -0.2894,0.83044 0.0571,-0.125035 0.12488,-0.259038 0.1995,-0.365869 0.34123,-0.488654 0.89,-1.220907 1.50376,-1.996263 1.22753,-1.550709 2.80749,-3.364597 3.62923,-4.18734 6.37424,-6.381903 14.13023,-9.630875 22.1015,-9.736356 z" />
    <path
       id="path849"
       style="fill:none;stroke:#000000;stroke-width:0.315156;stroke-opacity:1"
       d="m 114.73471,4.6053804 c -10.00257,0.13236 -19.699093,4.284088 -27.36577,11.9599936 -2.42783,2.430759 -6.502914,7.578744 -6.869348,8.678024 -0.06493,0.194799 -0.684237,0.06862 -1.555462,-0.316778 -5.8817,-2.601751 -12.890362,-2.290183 -18.501711,0.823206 -4.911085,2.724841 -9.387377,8.358807 -11.392072,14.337626 -0.522171,1.557311 -0.879409,2.146493 -1.37976,2.275313 -1.208043,0.311041 -5.3555,2.934293 -7.361825,4.656563 -9.785167,8.399711 -12.672634,22.824252 -6.866763,34.300231 3.940956,7.789762 11.150508,13.334808 19.699055,15.151008 1.557755,0.33093 3.371627,0.468 15.522567,0.51108 v 8.164883 H 101.16396 V 89.403305 C 58.886486,89.448843 56.050208,89.34121 54.715118,89.05759 48.387351,87.713208 43.119701,83.657976 40.205411,77.897547 c -4.19413,-8.290189 -2.051878,-19.040279 5.038968,-25.127148 0.488868,-0.419656 1.898954,-1.446535 3.097485,-2.205035 0.599265,-0.379248 1.169977,-0.712348 1.535306,-0.908471 0.08346,-0.0448 0.1715,-0.07996 0.247015,-0.108002 -0.115179,0.03388 -0.285671,0.08149 -0.563275,0.15296 2.528406,-0.651679 4.486781,-2.718366 5.269447,-4.007506 0.782847,-1.289439 1.070505,-2.196306 1.406115,-3.197222 1.380078,-4.115959 5.138063,-8.596445 7.882723,-10.119278 3.45839,-1.918845 8.11869,-2.129157 11.757938,-0.519348 0.76535,0.338564 1.456894,0.630722 2.6386,0.870749 0.590851,0.12005 1.261565,0.300517 2.726449,0.127122 0.732441,-0.0867 1.730169,-0.256553 3.013768,-1.002006 1.2836,-0.745451 2.525694,-1.527747 3.145028,-3.385839 -0.140679,0.422027 0.06856,-0.187351 0,0 0.05687,-0.124502 0.12473,-0.258029 0.198953,-0.364318 0.341242,-0.488653 0.890024,-1.220388 1.503786,-1.995744 1.227521,-1.550712 2.806968,-3.365116 3.628718,-4.187859 6.374233,-6.381904 14.130225,-9.630876 22.101495,-9.736357 2.65858,-0.03518 5.34712,0.283959 8.03517,0.982371 8.31756,2.161083 15.88744,8.144981 19.81274,15.589745 2.58336,4.899617 3.37024,7.788886 3.63492,13.410551 v 0.0021 l 0.19534,4.142383 c 0.17357,3.663725 2.94556,6.677501 6.58203,7.156151 l 1.53479,0.203089 c 2.02451,0.268562 6.72544,2.532999 9.15034,4.945435 10.37206,10.318782 6.38701,25.905595 -7.95662,30.334066 l -1.24643,0.384472 -48.41255,0.06408 V 105.14651 H 138.664 v -8.211383 l 17.06046,-0.0217 2.33474,-0.72089 c 19.20613,-5.92972 25.13688,-28.950197 11.06496,-42.949825 -3.67367,-3.654774 -9.09592,-6.500757 -13.49892,-7.084838 l -1.54306,-0.204639 -0.19482,-4.141349 c -0.3023,-6.420598 -1.53545,-10.966135 -4.5005,-16.589684 -4.97521,-9.43601 -14.16569,-16.6770336 -24.61142,-19.3910626 -3.33828,-0.86736 -6.70654,-1.269887 -10.04073,-1.225767 z"
       sodipodi:nodetypes="ssscssccsccccccssssccsssscssccsssssscccccsccccccccscccsss" />
    <path
       id="path854"
       style="fill:none;stroke:#000000;stroke-width:0.315156;stroke-opacity:1"
       d="m 108.3469,118.84308 c -10.002577,0.13236 -19.699611,4.28357 -27.366292,11.95948 -2.427829,2.43076 -6.502389,7.57874 -6.868829,8.67802 -0.06493,0.1948 -0.684747,0.0686 -1.555977,-0.31677 -5.881701,-2.60176 -12.889847,-2.28967 -18.501196,0.82372 -4.91109,2.72484 -9.38738,8.35829 -11.392069,14.33711 -0.522182,1.55731 -0.879928,2.14701 -1.380279,2.27583 -1.208039,0.31104 -5.354978,2.93429 -7.361308,4.65656 -9.78516,8.39971 -12.673151,22.82425 -6.867282,34.30023 3.94095,7.78976 11.150518,13.3348 19.699057,15.15101 2.526019,0.53663 5.527998,0.56542 52.630895,0.50592 l 49.95251,-0.0631 2.33525,-0.72089 c 19.20613,-5.92972 25.13688,-28.95073 11.06496,-42.95034 -3.67367,-3.65478 -9.09643,-6.50076 -13.49943,-7.08484 l -1.54254,-0.20464 -0.19482,-4.14135 c -0.3023,-6.4206 -1.53546,-10.96562 -4.5005,-16.58917 -4.97521,-9.43601 -14.16569,-16.67703 -24.61142,-19.39106 -3.33829,-0.86736 -6.70654,-1.26989 -10.04073,-1.22577 z m 0.0992,7.57887 c 2.65859,-0.0352 5.34713,0.28395 8.03518,0.98237 8.31755,2.16108 15.88692,8.14498 19.81222,15.58974 2.58336,4.89962 3.37024,7.78837 3.63492,13.41003 a 7.5796549,7.5796549 0 0 0 0,0.002 l 0.19534,4.14239 a 7.5796549,7.5796549 0 0 0 6.58203,7.15615 l 1.5353,0.2036 c 2.02451,0.26857 6.72545,2.53249 9.15035,4.94492 10.37206,10.31878 6.38649,25.9056 -7.95714,30.33407 l -1.24592,0.38499 -48.814589,0.0646 c -47.099404,0.0595 -49.66105,-0.0477 -51.047011,-0.3421 -6.327767,-1.34438 -11.59542,-5.39961 -14.509711,-11.16004 -4.194127,-8.29019 -2.051875,-19.04028 5.038971,-25.12715 0.488868,-0.41965 1.899471,-1.44653 3.098001,-2.20503 0.599266,-0.37925 1.169459,-0.71183 1.53479,-0.90796 0.08417,-0.0452 0.173178,-0.0809 0.249081,-0.10903 -0.115109,0.0339 -0.286946,0.0823 -0.56534,0.15399 2.528406,-0.65168 4.486778,-2.71888 5.269447,-4.00802 0.782846,-1.28944 1.07102,-2.19631 1.406631,-3.19722 1.380077,-4.11596 5.138062,-8.59645 7.882723,-10.11928 3.45839,-1.91885 8.11817,-2.12916 11.757422,-0.51935 0.765347,0.33857 1.457409,0.63124 2.639115,0.87127 0.590854,0.12005 1.261568,0.3 2.726449,0.1266 0.732441,-0.0867 1.730169,-0.25655 3.013768,-1.002 1.2836,-0.74545 2.814051,-2.35664 3.433385,-4.21473 -0.140851,0.42254 -0.220306,0.6431 -0.288873,0.83044 0.05698,-0.12489 0.124453,-0.25867 0.198954,-0.36535 0.341238,-0.48866 0.890024,-1.22091 1.503783,-1.99627 1.227521,-1.55071 2.807486,-3.36459 3.629237,-4.18734 6.374233,-6.3819 14.130227,-9.63087 22.101487,-9.73635 z" />
    <path
       id="path868"
       style="fill:none;stroke:#000000;stroke-width:0.315156;stroke-opacity:1"
       d="m 279.3691,8.4885455 c -10.00257,0.132359 -19.6996,4.2840875 -27.36628,11.9599935 -2.42781,2.430759 -6.5024,7.578225 -6.86882,8.677505 -0.0649,0.1948 -0.68477,0.06862 -1.55599,-0.316775 -5.88168,-2.601751 -12.88983,-2.28967 -18.5012,0.823722 -4.91109,2.724841 -9.38737,8.358807 -11.39206,14.337628 -0.52218,1.55731 -0.87993,2.14649 -1.38028,2.27531 -1.20804,0.31104 -5.35498,2.93429 -7.36131,4.65656 -9.78516,8.39972 -12.67315,22.82426 -6.86728,34.30024 3.94095,7.789746 11.15052,13.334796 19.69906,15.151011 2.52601,0.53662 5.5285,0.56541 52.6314,0.50591 l 49.95201,-0.063 2.33524,-0.72089 c 19.20613,-5.929735 25.1369,-28.950731 11.06498,-42.950351 -3.67369,-3.65478 -9.09646,-6.50024 -13.49944,-7.08432 l -1.54255,-0.20464 -0.19481,-4.14135 c -0.30231,-6.4206 -1.53546,-10.966135 -4.50051,-16.589684 -4.9752,-9.436011 -14.16568,-16.677036 -24.61141,-19.3910645 -3.3383,-0.867358 -6.70655,-1.269885 -10.04075,-1.225765 z m 0.0992,7.5788655 c 2.65859,-0.03518 5.34712,0.283957 8.03518,0.982368 8.31755,2.161087 15.88694,8.144983 19.81221,15.589747 2.58337,4.899617 3.37027,7.788373 3.63493,13.410033 a 7.5796549,7.5796549 0 0 0 0,0.002 l 0.19534,4.1429 a 7.5796549,7.5796549 0 0 0 6.58204,7.15615 l 1.5353,0.20309 c 2.02451,0.26856 6.72544,2.533 9.15035,4.94543 10.37206,10.31878 6.38648,25.905596 -7.95713,30.334066 l -1.24593,0.38447 -48.81459,0.0646 c -47.0994,0.0595 -49.66105,-0.0472 -51.04702,-0.34158 -6.32776,-1.34439 -11.59542,-5.40013 -14.50971,-11.160566 -4.19412,-8.29019 -2.05187,-19.03976 5.03897,-25.12663 0.48887,-0.41965 1.89948,-1.44653 3.09801,-2.20503 0.59926,-0.37925 1.16945,-0.71235 1.53479,-0.90847 0.0833,-0.0447 0.17106,-0.08 0.24649,-0.108 -0.11521,0.0339 -0.28561,0.0816 -0.56275,0.15296 2.5284,-0.65168 4.48677,-2.71888 5.26944,-4.00803 0.78284,-1.28943 1.07103,-2.1963 1.40662,-3.19722 1.3801,-4.11596 5.13808,-8.595926 7.88273,-10.118759 3.4584,-1.918846 8.11869,-2.129674 11.75796,-0.519864 0.76533,0.338563 1.45687,0.631238 2.63858,0.871262 0.59087,0.120055 1.26156,0.300519 2.72645,0.127125 0.73245,-0.0867 1.73016,-0.256554 3.01376,-1.002007 1.2836,-0.74545 2.81406,-2.356635 3.4334,-4.214727 -0.14095,0.422812 -0.22083,0.643114 -0.28941,0.830439 0.0571,-0.125034 0.12489,-0.259037 0.1995,-0.365868 0.34123,-0.488654 0.89001,-1.220907 1.50376,-1.996263 1.22753,-1.550709 2.80749,-3.364597 3.62924,-4.18734 6.37423,-6.381903 14.13023,-9.630876 22.10149,-9.736356 z" />
    <path
       id="path877"
       style="fill:none;stroke:#000000;stroke-width:0.315155;stroke-opacity:1"
       sodipodi:type="inkscape:offset"
       inkscape:radius="-3.4762156"
       inkscape:original="M 377.50781 8.6582031 C 367.50524 8.7905625 357.80926 12.943236 350.14258 20.619141 C 347.71475 23.049901 343.63988 28.197595 343.27344 29.296875 C 343.20851 29.491675 342.58803 29.365869 341.7168 28.980469 C 335.8351 26.378719 328.82619 26.689344 323.21484 29.802734 C 318.30375 32.527574 313.82891 38.161805 311.82422 44.140625 C 311.30204 45.697935 310.94371 46.287196 310.44336 46.416016 C 309.23532 46.727056 305.08836 49.349996 303.08203 51.072266 C 293.29687 59.471976 290.40897 73.897067 296.21484 85.373047 C 300.15579 93.162807 307.36552 98.707229 315.91406 100.52344 C 318.44008 101.06006 321.44202 101.0888 368.54492 101.0293 L 418.49805 100.9668 L 420.83203 100.24609 C 440.03816 94.316366 445.9684 71.294542 431.89648 57.294922 C 428.22281 53.640142 422.80144 50.795018 418.39844 50.210938 L 416.85547 50.005859 L 416.66016 45.865234 C 416.35786 39.444634 415.12521 34.898941 412.16016 29.275391 C 407.18495 19.839381 397.99456 12.598795 387.54883 9.8847656 C 384.21055 9.0174081 380.842 8.6140833 377.50781 8.6582031 z "
       d="m 377.55469,12.134766 c -9.07042,0.120024 -17.87905,3.858813 -24.95313,10.941406 -1.03404,1.035288 -2.63784,2.892283 -3.9414,4.539062 -0.65179,0.82339 -1.23865,1.603743 -1.65039,2.19336 -0.41175,0.589617 -0.70169,1.374564 -0.43946,0.58789 -0.28846,0.865428 -0.99934,1.615104 -1.60156,1.964844 -0.60222,0.349741 -1.0777,0.432252 -1.43555,0.47461 -0.7157,0.08472 -1.08307,-0.0023 -1.42773,-0.07227 -0.68933,-0.140015 -1.20807,-0.343915 -1.79492,-0.603516 -4.85374,-2.147035 -10.7849,-1.883545 -15.40821,0.681641 -3.91679,2.173173 -8.06493,7.279698 -9.7832,12.404297 -0.29527,0.880593 -0.54473,1.585831 -1.02148,2.371094 -0.47675,0.785262 -1.49159,1.832469 -2.78711,2.166015 0.37539,-0.09665 -0.11457,0.05122 -0.60157,0.3125 -0.48699,0.261281 -1.12487,0.636532 -1.78906,1.056641 -1.32837,0.840217 -2.80743,1.89842 -3.57422,2.55664 -8.54915,7.338706 -11.09583,20.081096 -6.02929,30.095704 3.46994,6.858754 9.78988,11.718454 17.32031,13.318359 2.00311,0.425534 4.803,0.489185 51.9043,0.429687 l 49.42968,-0.06055 1.83594,-0.56836 c 16.97557,-5.241059 22.01357,-24.852741 9.63867,-37.164062 -3.10089,-3.084953 -8.19098,-5.66404 -11.5039,-6.103516 l -1.54297,-0.205078 a 3.4765632,3.4765632 0 0 1 -3.01563,-3.28125 L 413.1875,46.029297 C 412.90245,39.975145 411.87591,36.187989 409.08594,30.896484 404.59229,22.3738 396.14343,15.710411 386.67383,13.25 c -3.04126,-0.790186 -6.09619,-1.155236 -9.11914,-1.115234 z"
       transform="translate(-101.83632,108.36592)" />
  </g>
</svg>
