<?xml version="1.0" encoding="UTF-8" standalone="no"?>
<svg
   width="388.14804mm"
   height="218.05711mm"
   viewBox="0 0 388.14804 218.05711"
   version="1.1"
   id="svg8"
   inkscape:version="1.1 (c4e8f9ed74, 2021-05-24)"
   sodipodi:docname="Clouds_part1_4mm.svg"
   xmlns:inkscape="http://www.inkscape.org/namespaces/inkscape"
   xmlns:sodipodi="http://sodipodi.sourceforge.net/DTD/sodipodi-0.dtd"
   xmlns="http://www.w3.org/2000/svg"
   xmlns:svg="http://www.w3.org/2000/svg"
   xmlns:rdf="http://www.w3.org/1999/02/22-rdf-syntax-ns#"
   xmlns:cc="http://creativecommons.org/ns#"
   xmlns:dc="http://purl.org/dc/elements/1.1/">
  <defs
     id="defs2" />
  <sodipodi:namedview
     id="base"
     pagecolor="#ffffff"
     bordercolor="#666666"
     borderopacity="1.0"
     inkscape:pageopacity="0.0"
     inkscape:pageshadow="2"
     inkscape:zoom="1.6280758"
     inkscape:cx="986.44053"
     inkscape:cy="112.09551"
     inkscape:document-units="mm"
     inkscape:current-layer="layer1"
     inkscape:document-rotation="0"
     showgrid="false"
     inkscape:window-width="1920"
     inkscape:window-height="998"
     inkscape:window-x="0"
     inkscape:window-y="0"
     inkscape:window-maximized="1"
     fit-margin-left="5"
     fit-margin-top="5"
     fit-margin-right="5"
     fit-margin-bottom="5"
     inkscape:pagecheckerboard="0" />
  <metadata
     id="metadata5">
    <rdf:RDF>
      <cc:Work
         rdf:about="">
        <dc:format>image/svg+xml</dc:format>
        <dc:type
           rdf:resource="http://purl.org/dc/dcmitype/StillImage" />
      </cc:Work>
    </rdf:RDF>
  </metadata>
  <g
     inkscape:label="Layer 1"
     inkscape:groupmode="layer"
     id="layer1"
     transform="translate(-7.142004,-161.61281)">
    <path
       id="path859"
       style="fill:#ffe000;fill-opacity:0.405981;stroke:#000000;stroke-width:0.315156;stroke-opacity:1"
       d="m 104.69281,251.04274 c -0.13236,-10.00258 -4.28408,-19.69962 -11.959997,-27.3663 -2.43075,-2.42781 -7.57822,-6.50241 -8.6775,-6.86883 -0.1948,-0.0649 -0.0686,-0.68475 0.31677,-1.55597 2.60176,-5.88168 2.28967,-12.88983 -0.82372,-18.5012 -2.72484,-4.91109 -8.3588,-9.38738 -14.33761,-11.39207 -1.55731,-0.52218 -2.146507,-0.87993 -2.275337,-1.38028 -0.31101,-1.20804 -2.93428,-5.35498 -4.65656,-7.36131 -8.3997,-9.78516 -22.82425,-12.67315 -34.30021,-6.86728 -7.78976,3.94095 -13.33481,11.15052 -15.15102,19.69906 -0.53663,2.52601 -0.56542,5.52851 -0.50591,52.63141 l 0.063,49.952 0.72088,2.33526 c 5.92974,19.20613 28.95074,25.13687 42.95034,11.06495 3.65477,-3.67368 6.50023,-9.09645 7.08433,-13.49943 l 0.20463,-1.54254 4.141357,-0.19482 c 6.4206,-0.30231 10.96613,-1.53545 16.58968,-4.5005 9.43601,-4.9752 16.677027,-14.16569 19.391057,-24.61142 0.86736,-3.3383 1.26989,-6.70653 1.22577,-10.04073 z m -3.47576,0.0465 c 0.04,3.02294 -0.32499,6.07809 -1.11517,9.11934 -2.460417,9.4696 -9.123777,17.91841 -17.646467,22.41207 -5.2915,2.78995 -9.07878,3.81653 -15.132937,4.10156 l -4.14083,0.19533 a 3.476563,3.476563 0 0 0 -3.28094,3.01532 l -0.20513,1.54306 c -0.43948,3.31292 -3.01856,8.40332 -6.10352,11.50421 -12.31132,12.37488 -31.92309,7.33687 -37.16414,-9.63869 l -0.56843,-1.83606 -0.0605,-49.42955 c -0.0595,-47.10128 0.004,-49.90122 0.42942,-51.90433 1.59991,-7.53043 6.45983,-13.85045 13.31857,-17.32039 10.01461,-5.06654 22.75713,-2.52006 30.09582,6.02909 0.65824,0.76679 1.71625,2.24609 2.55646,3.57446 0.42011,0.66419 0.7955,1.30205 1.05677,1.78904 0.26123,0.487 0.40873,0.9769 0.31213,0.60151 0.33354,1.29553 1.38102,2.31017 2.16628,2.78692 0.78526,0.47675 1.49032,0.72637 2.370897,1.02164 5.12461,1.71827 10.23124,5.86659 12.40442,9.78338 2.56518,4.62333 2.82864,10.55411 0.68161,15.40784 -0.2596,0.58684 -0.46357,1.10589 -0.60358,1.79524 -0.0704,0.34465 -0.15705,0.71162 -0.0724,1.42731 0.0424,0.35785 0.12517,0.83335 0.47491,1.43557 0.34975,0.60222 1.09932,1.3135 1.96474,1.60197 -0.78667,-0.26223 -0.002,0.0275 0.58807,0.43925 0.58963,0.41174 1.36976,0.99874 2.19315,1.65054 1.64678,1.30355 3.50398,2.90732 4.53926,3.94136 7.0826,7.07409 10.821417,15.88258 10.941447,24.95301 z" />
    <path
       id="path871"
       style="fill:#ffe000;fill-opacity:0.405981;stroke:#000000;stroke-width:0.315156;stroke-opacity:1"
       d="m 152.27356,268.1552 c 10.00258,-0.13236 19.69962,-4.28408 27.3663,-11.96 2.42781,-2.43075 6.50241,-7.57822 6.86883,-8.6775 0.0649,-0.1948 0.68475,-0.0686 1.55597,0.31677 5.88168,2.60176 12.88983,2.28967 18.5012,-0.82372 4.91109,-2.72484 9.38738,-8.3588 11.39207,-14.33761 0.52218,-1.55731 0.87993,-2.14651 1.38028,-2.27534 1.20804,-0.31101 5.35498,-2.93428 7.36131,-4.65656 9.78516,-8.3997 12.67315,-22.82425 6.86728,-34.30021 -3.94095,-7.78976 -11.15052,-13.33481 -19.69906,-15.15102 -2.52601,-0.53663 -5.52851,-0.56542 -52.63141,-0.50591 l -49.95199,0.063 -2.33526,0.72088 c -19.206132,5.92974 -25.136872,28.95074 -11.064952,42.95034 3.673682,3.65477 9.096452,6.50023 13.499432,7.08433 l 1.54254,0.20463 0.19482,4.14136 c 0.30231,6.4206 1.53545,10.96613 4.5005,16.58968 4.9752,9.43601 14.16568,16.67703 24.61141,19.39106 3.3383,0.86736 6.70653,1.26989 10.04073,1.22577 z m -0.0465,-3.47576 c -3.02294,0.04 -6.07809,-0.32499 -9.11934,-1.11517 -9.4696,-2.46042 -17.9184,-9.12378 -22.41206,-17.64647 -2.78995,-5.2915 -3.81653,-9.07878 -4.10156,-15.13294 l -0.19533,-4.14083 a 3.476563,3.476563 0 0 0 -3.01532,-3.28094 l -1.54306,-0.20513 c -3.31292,-0.43948 -8.40332,-3.01856 -11.50421,-6.10352 -12.374882,-12.31132 -7.336872,-31.92309 9.63869,-37.16414 l 1.83606,-0.56843 49.42954,-0.0605 c 47.10128,-0.0595 49.90122,0.004 51.90433,0.42942 7.53043,1.59991 13.85045,6.45983 17.32039,13.31857 5.06654,10.01461 2.52006,22.75713 -6.02909,30.09582 -0.76679,0.65824 -2.24609,1.71625 -3.57446,2.55646 -0.66419,0.42011 -1.30205,0.7955 -1.78904,1.05677 -0.487,0.26123 -0.9769,0.40873 -0.60151,0.31213 -1.29553,0.33354 -2.31017,1.38102 -2.78692,2.16628 -0.47675,0.78526 -0.72637,1.49032 -1.02164,2.3709 -1.71827,5.12461 -5.86659,10.23124 -9.78338,12.40442 -4.62333,2.56518 -10.55411,2.82864 -15.40784,0.68161 -0.58684,-0.2596 -1.10589,-0.46357 -1.79524,-0.60358 -0.34465,-0.0704 -0.71162,-0.15705 -1.42731,-0.0724 -0.35785,0.0424 -0.83335,0.12517 -1.43557,0.47491 -0.60222,0.34975 -1.3135,1.09932 -1.60197,1.96474 0.26223,-0.78667 -0.0275,-0.002 -0.43925,0.58807 -0.41174,0.58963 -0.99874,1.36976 -1.65054,2.19315 -1.30355,1.64678 -2.90732,3.50398 -3.94136,4.53926 -7.07409,7.0826 -15.88258,10.82142 -24.95301,10.94145 z" />
    <path
       id="path9477"
       style="fill:#ffe100;fill-opacity:0.403922;stroke:#000000;stroke-width:0.315156;stroke-opacity:1"
       d="m 124.60935,271.8545 c -10.00257,0.13236 -19.69909,4.28409 -27.365772,11.95999 -2.42783,2.43076 -6.502913,7.57875 -6.869348,8.67803 -0.06493,0.1948 -0.684236,0.0686 -1.555461,-0.31678 -5.881698,-2.60175 -12.890363,-2.29018 -18.501712,0.82321 -4.911085,2.72484 -9.387374,8.3588 -11.392069,14.33762 -0.522171,1.55731 -0.879412,2.1465 -1.37976,2.27532 -1.208045,0.31104 -5.355496,2.93429 -7.361826,4.65656 -9.78517,8.39971 -12.67264,22.82425 -6.86676,34.30023 3.94095,7.78976 11.15051,13.33481 19.699053,15.15101 1.557753,0.33093 3.371627,0.468 15.522564,0.51108 v 11.86905 h 5.000212 v -3.34244 h 5.000212 v 3.34244 h 21.441587 l 1.05833,-19.4474 c -42.277473,0.0455 -45.113756,-0.0621 -46.448841,-0.34571 -6.327767,-1.34438 -11.595417,-5.39961 -14.509707,-11.16004 -4.19413,-8.29019 -2.05188,-19.04028 5.03897,-25.12715 0.48886,-0.41966 1.89895,-1.44653 3.09748,-2.20503 0.599266,-0.37925 1.16998,-0.71235 1.535309,-0.90848 0.08346,-0.0448 0.171497,-0.08 0.247012,-0.108 -0.115178,0.0339 -0.285668,0.0815 -0.563271,0.15296 2.528405,-0.65168 4.486777,-2.71836 5.269444,-4.00751 0.782846,-1.28943 1.070507,-2.1963 1.406117,-3.19722 1.380075,-4.11595 5.138063,-8.59644 7.882721,-10.11927 3.45839,-1.91885 8.118692,-2.12916 11.75794,-0.51935 0.76535,0.33856 1.456891,0.63072 2.638597,0.87074 0.590852,0.12005 1.261565,0.30052 2.726449,0.12713 0.732441,-0.0867 1.730172,-0.25655 3.013771,-1.00201 1.2836,-0.74545 2.525691,-1.52774 3.145025,-3.38584 0.05687,-0.1245 0.124733,-0.25802 0.198957,-0.36432 0.341241,-0.48865 0.890021,-1.22038 1.503783,-1.99574 1.227524,-1.55071 2.806974,-3.36511 3.628724,-4.18786 6.37422,-6.3819 14.13022,-9.63087 22.10149,-9.73635 2.65858,-0.0352 5.34712,0.28396 8.03517,0.98237 8.31756,2.16108 15.88744,8.14498 19.81274,15.58974 2.58336,4.89962 3.37024,7.78889 3.63492,13.41055 v 0.002 l 0.19534,4.14238 c 0.17357,3.66373 2.94555,6.67751 6.58202,7.15616 l 1.53479,0.20308 c 2.02451,0.26857 6.72545,2.533 9.15035,4.94544 10.37206,10.31878 6.38701,25.90559 -7.95662,30.33406 l -1.24644,0.38448 -48.41254,0.0641 1.05833,19.45204 h 21.4421 v -3.34243 h 4.9997 v 3.34243 h 5.00021 v -11.91554 l 17.06045,-0.0217 2.33475,-0.72088 c 19.20613,-5.92972 25.13687,-28.95021 11.06495,-42.94984 -3.67367,-3.65477 -9.09592,-6.50075 -13.49892,-7.08483 l -1.54305,-0.20464 -0.19482,-4.14135 c -0.3023,-6.42065 -1.53545,-10.96619 -4.5005,-16.58974 -4.97521,-9.43601 -14.16569,-16.67703 -24.61142,-19.39106 -3.33828,-0.86736 -6.70654,-1.26989 -10.04073,-1.22577 z"
       sodipodi:nodetypes="ssscssccsccccccccccssssccscsscsscsssssscccccsccccccccccccscccssss" />
    <path
       id="path9639"
       style="fill:#ffe100;fill-opacity:0.403922;stroke:#000000;stroke-width:0.315156;stroke-opacity:1"
       d="m 171.28995,289.60716 c 0.13236,10.00257 4.28409,19.69909 11.95999,27.36577 2.43076,2.42783 7.57875,6.50291 8.67803,6.86935 0.1948,0.0649 0.0686,0.68423 -0.31678,1.55546 -2.60174,5.8817 -2.29018,12.89036 0.82322,18.50171 2.72483,4.91109 8.35879,9.38738 14.33762,11.39207 1.55731,0.52217 2.1465,0.87941 2.27531,1.37976 0.31105,1.20805 2.9343,5.3555 4.65657,7.36183 8.39971,9.78517 22.82425,12.67264 34.30023,6.86676 7.78976,-3.94095 13.33481,-11.15051 15.15101,-19.69906 0.33093,-1.55775 0.468,-3.37162 0.51108,-15.52256 h 11.86905 v -5.00021 h -3.34244 v -5.00021 h 3.34244 v -21.44159 l -19.4474,-1.05833 c 0.0455,42.27747 -0.0621,45.11375 -0.34571,46.44884 -1.34438,6.32777 -5.39961,11.59542 -11.16004,14.50971 -8.29019,4.19413 -19.04028,2.05188 -25.12715,-5.03897 -0.41966,-0.48886 -1.44653,-1.89895 -2.20503,-3.09748 -0.37925,-0.59927 -0.71235,-1.16998 -0.90848,-1.53531 -0.0448,-0.0835 -0.08,-0.1715 -0.108,-0.24701 0.0339,0.11517 0.0815,0.28566 0.15296,0.56327 -0.65168,-2.52841 -2.71836,-4.48678 -4.00751,-5.26945 -1.28943,-0.78284 -2.1963,-1.0705 -3.19722,-1.40611 -4.11596,-1.38008 -8.59645,-5.13807 -10.11928,-7.88273 -1.91885,-3.45839 -2.12916,-8.11869 -0.51935,-11.75794 0.33856,-0.76535 0.63072,-1.45689 0.87074,-2.63859 0.12005,-0.59085 0.30052,-1.26157 0.12713,-2.72645 -0.0867,-0.73244 -0.25655,-1.73017 -1.00201,-3.01377 -0.74545,-1.2836 -1.52774,-2.52569 -3.38584,-3.14503 -0.1245,-0.0569 -0.25802,-0.12473 -0.36432,-0.19895 -0.48865,-0.34125 -1.22038,-0.89003 -1.99574,-1.50379 -1.55071,-1.22752 -3.36511,-2.80697 -4.18786,-3.62872 -6.3819,-6.37422 -9.63087,-14.13022 -9.73635,-22.10149 -0.0352,-2.65858 0.28396,-5.34712 0.98237,-8.03517 2.16108,-8.31756 8.14498,-15.88744 15.58974,-19.81274 4.89962,-2.58336 7.78889,-3.37024 13.41055,-3.63492 h 0.002 l 4.14239,-0.19534 c 3.66373,-0.17357 6.67751,-2.94555 7.15616,-6.58202 l 0.20308,-1.53479 c 0.26857,-2.02451 2.533,-6.72545 4.94544,-9.15035 10.31878,-10.37206 25.90559,-6.38701 30.33406,7.95662 l 0.38448,1.24644 0.0641,48.41254 19.45204,-1.05833 v -21.4421 h -3.34243 v -4.9997 h 3.34243 v -5.00021 h -11.91554 l -0.0217,-17.06045 -0.72088,-2.33475 c -5.92972,-19.20613 -28.95021,-25.13687 -42.94984,-11.06495 -3.65477,3.67367 -6.50075,9.09592 -7.08483,13.49892 l -0.20464,1.54305 -4.14136,0.19482 c -6.42065,0.3023 -10.96619,1.53545 -16.58974,4.5005 -9.43601,4.97521 -16.67703,14.16569 -19.39106,24.61142 -0.86736,3.33828 -1.26989,6.70654 -1.22577,10.04073 z"
       sodipodi:nodetypes="ssscssccsccccccccccssssccscsscsscsssssscccccsccccccccccccscccssss" />
    <path
       id="path9721"
       style="fill:#ffe100;fill-opacity:0.403922;stroke:#000000;stroke-width:0.315156;stroke-opacity:1"
       d="m 305.86061,272.10428 c 10.00257,-0.13236 19.69909,-4.28409 27.36577,-11.95999 2.42783,-2.43076 6.50291,-7.57875 6.86935,-8.67803 0.0649,-0.1948 0.68423,-0.0686 1.55546,0.31678 5.8817,2.60174 12.89036,2.29018 18.50171,-0.82322 4.91109,-2.72483 9.38738,-8.35879 11.39207,-14.33762 0.52217,-1.55731 0.87941,-2.1465 1.37976,-2.27531 1.20805,-0.31105 5.3555,-2.9343 7.36183,-4.65657 9.78517,-8.39971 12.67264,-22.82425 6.86676,-34.30023 -3.94095,-7.78976 -11.15051,-13.33481 -19.69906,-15.15101 -1.55775,-0.33093 -3.37162,-0.468 -15.52256,-0.51108 v -11.86905 h -5.00021 v 3.34244 h -5.00021 v -3.34244 h -21.44159 l -1.05833,19.4474 c 42.27747,-0.0455 45.11375,0.0621 46.44884,0.34571 6.32777,1.34438 11.59542,5.39961 14.50971,11.16004 4.19413,8.29019 2.05188,19.04028 -5.03897,25.12715 -0.48886,0.41966 -1.89895,1.44653 -3.09748,2.20503 -0.59927,0.37925 -1.16998,0.71235 -1.53531,0.90848 -0.0835,0.0448 -0.1715,0.08 -0.24701,0.108 0.11517,-0.0339 0.28566,-0.0815 0.56327,-0.15296 -2.52841,0.65168 -4.48678,2.71836 -5.26945,4.00751 -0.78284,1.28943 -1.0705,2.1963 -1.40611,3.19722 -1.38008,4.11596 -5.13807,8.59645 -7.88273,10.11928 -3.45839,1.91885 -8.11869,2.12916 -11.75794,0.51935 -0.76535,-0.33856 -1.45689,-0.63072 -2.63859,-0.87074 -0.59085,-0.12005 -1.26157,-0.30052 -2.72645,-0.12713 -0.73244,0.0867 -1.73017,0.25655 -3.01377,1.00201 -1.2836,0.74545 -2.52569,1.52774 -3.14503,3.38584 -0.0569,0.1245 -0.12473,0.25802 -0.19895,0.36432 -0.34125,0.48865 -0.89003,1.22038 -1.50379,1.99574 -1.22752,1.55071 -2.80697,3.36511 -3.62872,4.18786 -6.37422,6.3819 -14.13022,9.63087 -22.10149,9.73635 -2.65858,0.0352 -5.34712,-0.28396 -8.03517,-0.98237 -8.31756,-2.16108 -15.88744,-8.14498 -19.81274,-15.58974 -2.58336,-4.89962 -3.37024,-7.78889 -3.63492,-13.41055 v -0.002 l -0.19534,-4.14239 c -0.17357,-3.66373 -2.94555,-6.67751 -6.58202,-7.15616 l -1.53479,-0.20308 c -2.02451,-0.26857 -6.72545,-2.533 -9.15035,-4.94544 -10.37206,-10.31878 -6.38701,-25.90559 7.95662,-30.33406 l 1.24644,-0.38448 48.41254,-0.0641 -1.05833,-19.45204 h -21.4421 v 3.34243 h -4.9997 V 167.859 h -5.00021 v 11.91554 l -17.06045,0.0217 -2.33475,0.72088 c -19.20613,5.92972 -25.13687,28.95021 -11.06495,42.94984 3.67367,3.65477 9.09592,6.50075 13.49892,7.08483 l 1.54305,0.20464 0.19482,4.14136 c 0.3023,6.42065 1.53545,10.96619 4.5005,16.58974 4.97521,9.43601 14.16569,16.67703 24.61142,19.39106 3.33828,0.86736 6.70654,1.26989 10.04073,1.22577 z"
       sodipodi:nodetypes="ssscssccsccccccccccssssccscsscsscsssssscccccsccccccccccccscccssss" />
  </g>
</svg>
