<?xml version="1.0" encoding="UTF-8" standalone="no"?>
<svg
   xmlns:dc="http://purl.org/dc/elements/1.1/"
   xmlns:cc="http://creativecommons.org/ns#"
   xmlns:rdf="http://www.w3.org/1999/02/22-rdf-syntax-ns#"
   xmlns:svg="http://www.w3.org/2000/svg"
   xmlns="http://www.w3.org/2000/svg"
   xmlns:sodipodi="http://sodipodi.sourceforge.net/DTD/sodipodi-0.dtd"
   xmlns:inkscape="http://www.inkscape.org/namespaces/inkscape"
   width="289.73166mm"
   height="192.00081mm"
   viewBox="0 0 289.73166 192.00081"
   version="1.1"
   id="svg8"
   inkscape:version="1.0.2 (e86c870879, 2021-01-15)"
   sodipodi:docname="Clouds_part2_3mm.svg">
  <defs
     id="defs2" />
  <sodipodi:namedview
     id="base"
     pagecolor="#ffffff"
     bordercolor="#666666"
     borderopacity="1.0"
     inkscape:pageopacity="0.0"
     inkscape:pageshadow="2"
     inkscape:zoom="0.49497475"
     inkscape:cx="511.19665"
     inkscape:cy="192.04355"
     inkscape:document-units="mm"
     inkscape:current-layer="layer1"
     inkscape:document-rotation="0"
     showgrid="false"
     inkscape:window-width="1920"
     inkscape:window-height="1051"
     inkscape:window-x="0"
     inkscape:window-y="0"
     inkscape:window-maximized="1"
     fit-margin-top="5"
     fit-margin-left="5"
     fit-margin-right="5"
     fit-margin-bottom="5" />
  <metadata
     id="metadata5">
    <rdf:RDF>
      <cc:Work
         rdf:about="">
        <dc:format>image/svg+xml</dc:format>
        <dc:type
           rdf:resource="http://purl.org/dc/dcmitype/StillImage" />
        <dc:title></dc:title>
      </cc:Work>
    </rdf:RDF>
  </metadata>
  <g
     inkscape:label="Layer 1"
     inkscape:groupmode="layer"
     id="layer1"
     transform="translate(-31.015541,-30.567671)">
    <path
       id="path874"
       style="fill:#ff00d0;fill-opacity:0.403922;stroke:#000000;stroke-width:0.315;stroke-miterlimit:4;stroke-dasharray:none;stroke-opacity:1"
       d="m 117.00362,35.728221 c -9.07042,0.12002 -17.878892,3.85885 -24.952982,10.94145 -1.03404,1.03529 -2.63781,2.89248 -3.94136,4.53926 -0.6518,0.82338 -1.23881,1.60353 -1.65055,2.19314 -0.41175,0.58962 -0.70147,1.37475 -0.43924,0.58808 -0.28847,0.86543 -0.99975,1.615 -1.60197,1.96474 -0.60222,0.34974 -1.07773,0.43255 -1.43558,0.47491 -0.71569,0.0847 -1.08264,-0.002 -1.42729,-0.0724 -0.68935,-0.14002 -1.20841,-0.34398 -1.79525,-0.60359 -4.85373,-2.14703 -10.78452,-1.88357 -15.40785,0.68162 -3.91679,2.17317 -8.06511,7.27981 -9.78338,12.40441 -0.29527,0.88059 -0.54489,1.58565 -1.02164,2.37091 -0.47675,0.78526 -1.49139,1.83273 -2.78691,2.16628 0.37539,-0.0966 -0.11452,0.0509 -0.60152,0.31212 -0.48699,0.26128 -1.12484,0.63668 -1.78903,1.05679 -1.32837,0.84021 -2.80767,1.89821 -3.57446,2.55643 -8.54915,7.3387 -11.09563,20.081216 -6.02909,30.095839 3.46994,6.85875 9.78996,11.71866 17.32039,13.31857 2.00311,0.42553 4.80304,0.48892 51.904312,0.42943 l 49.42954,-0.0605 1.83607,-0.56844 c 16.97556,-5.24106 22.01357,-24.852814 9.63869,-37.164139 -3.10089,-3.08495 -8.19129,-5.66403 -11.50421,-6.1035 l -1.54305,-0.20516 a 3.476563,3.476563 0 0 1 -3.01533,-3.28093 l -0.19534,-4.14084 c -0.28503,-6.05415 -1.31159,-9.84141 -4.10154,-15.13292 -4.49366,-8.52268 -12.94249,-15.18606 -22.41209,-17.64647 -3.04125,-0.79018 -6.0964,-1.15518 -9.11934,-1.11518 z m 0.0527,4.10311 c 2.65858,-0.0352 5.34712,0.28395 8.03518,0.98236 8.31755,2.16109 15.88693,8.14499 19.81221,15.58975 2.58337,4.89962 3.37026,7.78837 3.63493,13.41003 a 7.5796549,7.5796549 0 0 0 0,0.002 l 0.19534,4.1429 a 7.5796549,7.5796549 0 0 0 6.58204,7.15615 l 1.53529,0.20309 c 2.02452,0.26856 6.72545,2.533 9.15035,4.94544 10.37207,10.318772 6.38649,25.905589 -7.95713,30.334059 l -1.24592,0.38447 -48.81459,0.0646 c -47.099402,0.0595 -49.661042,-0.0471 -51.047012,-0.34158 -6.32777,-1.34438 -11.59542,-5.40013 -14.50971,-11.16056 -4.19413,-8.290203 -2.05188,-19.039759 5.03897,-25.126629 0.48887,-0.41965 1.89947,-1.44653 3.098,-2.20503 0.59927,-0.37925 1.16946,-0.71235 1.53479,-0.90847 0.0833,-0.0447 0.17107,-0.08 0.2465,-0.10801 -0.11522,0.0339 -0.28561,0.0816 -0.56276,0.15297 2.52841,-0.65168 4.48678,-2.71889 5.26945,-4.00803 0.78284,-1.28944 1.07102,-2.1963 1.40662,-3.19722 1.38009,-4.11596 5.13808,-8.59593 7.88273,-10.11876 3.4584,-1.91885 8.11869,-2.12967 11.75795,-0.51986 0.76534,0.33856 1.45688,0.63123 2.63859,0.87126 0.59086,0.12005 1.26156,0.30052 2.72645,0.12712 0.73244,-0.0867 1.73016,-0.25655 3.01376,-1.002 1.2836,-0.74545 2.81406,-2.35664 3.43339,-4.21473 -0.14094,0.42281 -0.22082,0.64311 -0.2894,0.83044 0.0571,-0.12504 0.12488,-0.25904 0.1995,-0.36587 0.34123,-0.48865 0.89,-1.22091 1.50376,-1.99626 1.22753,-1.55071 2.80749,-3.3646 3.62923,-4.18734 6.374242,-6.38191 14.130222,-9.63088 22.101492,-9.73636 z" />
    <path
       id="path854"
       style="fill:#ff00d0;fill-opacity:0.403922;stroke:#000000;stroke-width:0.315156;stroke-opacity:1"
       d="m 120.44543,125.01767 c -10.00257,0.13236 -19.69961,4.28357 -27.366263,11.95948 -2.42783,2.43076 -6.50239,7.57874 -6.86883,8.67802 -0.06493,0.1948 -0.684747,0.0686 -1.555977,-0.31677 -5.881701,-2.60176 -12.889847,-2.28967 -18.501196,0.82372 -4.91109,2.72483 -9.38738,8.35828 -11.392069,14.3371 -0.522182,1.55731 -0.879928,2.14701 -1.380279,2.27583 -1.208039,0.31104 -5.354978,2.93429 -7.361308,4.65657 -9.78516,8.39971 -12.673151,22.82425 -6.867282,34.30023 3.94095,7.78976 11.150518,13.3348 19.699057,15.15101 2.526019,0.53663 5.527998,0.56542 52.630867,0.50592 l 49.95251,-0.0631 2.33525,-0.72089 c 19.20613,-5.92972 25.13688,-28.95073 11.06496,-42.95034 -3.67367,-3.65478 -9.09643,-6.50076 -13.49943,-7.08485 l -1.54254,-0.20464 -0.19482,-4.14135 c -0.3023,-6.4206 -1.53546,-10.96562 -4.5005,-16.58916 -4.97521,-9.43601 -14.16569,-16.67703 -24.61142,-19.39106 -3.33829,-0.86736 -6.70654,-1.26989 -10.04073,-1.22577 z m 0.0992,7.57887 c 2.65859,-0.0352 5.34713,0.28395 8.03518,0.98237 8.31755,2.16108 15.88692,8.14498 19.81222,15.58973 2.58336,4.89962 3.37024,7.78837 3.63492,13.41003 a 7.5796549,7.5796549 0 0 0 0,0.002 l 0.19534,4.14239 a 7.5796549,7.5796549 0 0 0 6.58203,7.15616 l 1.5353,0.2036 c 2.02451,0.26857 6.72545,2.53249 9.15035,4.94492 10.37206,10.31878 6.38649,25.9056 -7.95714,30.33407 l -1.24592,0.38499 -48.81459,0.0646 c -47.099375,0.0595 -49.661021,-0.0477 -51.046982,-0.3421 -6.327767,-1.34438 -11.59542,-5.39961 -14.509711,-11.16004 -4.194127,-8.29019 -2.051875,-19.04028 5.038971,-25.12715 0.488868,-0.41965 1.899471,-1.44653 3.098001,-2.20503 0.599266,-0.37925 1.169459,-0.71183 1.53479,-0.90796 0.08417,-0.0452 0.173178,-0.0809 0.249081,-0.10903 -0.115109,0.0339 -0.286946,0.0823 -0.56534,0.15399 2.528406,-0.65168 4.486778,-2.71888 5.269447,-4.00803 0.782846,-1.28944 1.07102,-2.19631 1.406631,-3.19722 1.380077,-4.11596 5.138062,-8.59645 7.882723,-10.11928 3.45839,-1.91885 8.11817,-2.12916 11.757422,-0.51935 0.765347,0.33857 1.457409,0.63124 2.639115,0.87127 0.590854,0.12005 1.261568,0.3 2.726449,0.1266 0.732441,-0.0867 1.730169,-0.25655 3.013768,-1.002 1.2836,-0.74545 2.814052,-2.35664 3.433382,-4.21472 -0.14085,0.42253 -0.2203,0.64309 -0.28887,0.83043 0.057,-0.12489 0.12445,-0.25867 0.19895,-0.36535 0.34124,-0.48865 0.89003,-1.2209 1.50379,-1.99626 1.227517,-1.55071 2.807478,-3.36459 3.629222,-4.18734 6.374221,-6.3819 14.130211,-9.63087 22.101471,-9.73635 z" />
    <path
       id="path842"
       style="fill:#ff00cf;fill-opacity:0.405981;stroke:#000000;stroke-width:0.315156;stroke-opacity:1"
       d="m 253.45959,217.40759 c -10.00258,-0.13236 -19.69961,-4.28357 -27.36629,-11.95948 -2.42783,-2.43076 -6.50239,-7.57874 -6.86883,-8.67802 -0.0649,-0.1948 -0.68475,-0.0686 -1.55598,0.31677 -5.8817,2.60176 -12.88984,2.28967 -18.50119,-0.82372 -4.91109,-2.72484 -9.38738,-8.35829 -11.39207,-14.33711 -0.52218,-1.55731 -0.87993,-2.14701 -1.38028,-2.27583 -1.20804,-0.31104 -5.35498,-2.93429 -7.36131,-4.65656 -9.78516,-8.39971 -12.67315,-22.82425 -6.86728,-34.30022 3.94095,-7.78976 11.15052,-13.33481 19.69906,-15.15102 2.52602,-0.53663 5.52799,-0.56542 52.63089,-0.50592 l 49.9525,0.0631 2.33525,0.72089 c 19.20613,5.92973 25.13688,28.95073 11.06496,42.95034 -3.67367,3.65478 -9.09643,6.50076 -13.49943,7.08484 l -1.54254,0.20464 -0.19482,4.14135 c -0.3023,6.4206 -1.53546,10.96562 -4.5005,16.58917 -4.9752,9.43601 -14.16568,16.67703 -24.61141,19.39106 -3.33829,0.86736 -6.70654,1.26989 -10.04073,1.22577 z m 0.0992,-7.57887 c 2.65859,0.0352 5.34713,-0.28395 8.03518,-0.98237 8.31755,-2.16108 15.88692,-8.14498 19.81222,-15.58974 2.58336,-4.89962 3.37023,-7.78837 3.63491,-13.41003 a 7.5796549,7.5796549 0 0 1 0,-0.002 l 0.19534,-4.14239 a 7.5796549,7.5796549 0 0 1 6.58203,-7.15615 l 1.5353,-0.2036 c 2.02451,-0.26857 6.72545,-2.53249 9.15035,-4.94492 10.37206,-10.31878 6.38649,-25.90559 -7.95714,-30.33406 l -1.24592,-0.38499 -48.81458,-0.0646 c -47.0994,-0.0595 -49.66105,0.0477 -51.04701,0.3421 -6.32777,1.34438 -11.59542,5.39961 -14.50971,11.16004 -4.19413,8.29018 -2.05187,19.04027 5.03897,25.12714 0.48887,0.41965 1.89947,1.44653 3.098,2.20503 0.59927,0.37925 1.16946,0.71183 1.53479,0.90796 0.0842,0.0452 0.17318,0.0809 0.24908,0.10903 -0.11511,-0.0339 -0.28694,-0.0823 -0.56534,-0.15399 2.52841,0.65168 4.48678,2.71888 5.26945,4.00802 0.78285,1.28944 1.07102,2.19631 1.40663,3.19722 1.38008,4.11596 5.13806,8.59645 7.88272,10.11928 3.45839,1.91885 8.11817,2.12916 11.75743,0.51935 0.76534,-0.33857 1.45741,-0.63124 2.63911,-0.87127 0.59086,-0.12005 1.26157,-0.3 2.72645,-0.1266 0.73244,0.0867 1.73017,0.25655 3.01377,1.002 1.2836,0.74545 2.81405,2.35664 3.43338,4.21473 -0.14085,-0.42254 -0.2203,-0.6431 -0.28887,-0.83044 0.057,0.12489 0.12445,0.25867 0.19895,0.36535 0.34124,0.48866 0.89003,1.22091 1.50379,1.99627 1.22752,1.55071 2.80748,3.36459 3.62923,4.18734 6.37424,6.3819 14.13023,9.63087 22.10149,9.73635 z" />
    <path
       id="path844"
       style="fill:#ff00d0;fill-opacity:0.403922;stroke:#000000;stroke-width:0.315;stroke-miterlimit:4;stroke-dasharray:none;stroke-opacity:1"
       d="m 211.94542,121.16237 c 9.07042,-0.12002 17.8789,-3.85885 24.95299,-10.94145 1.03403,-1.03529 2.6378,-2.89248 3.94135,-4.53926 0.6518,-0.82338 1.23881,-1.60353 1.65055,-2.19314 0.41175,-0.58962 0.70147,-1.37475 0.43924,-0.58808 0.28847,-0.86543 0.99975,-1.61499 1.60197,-1.96473 0.60222,-0.34974 1.07773,-0.43255 1.43558,-0.47491 0.71569,-0.0847 1.08264,0.002 1.42729,0.0724 0.68935,0.14002 1.20841,0.34398 1.79525,0.60359 4.85373,2.14702 10.78452,1.88356 15.40785,-0.68162 3.91679,-2.173174 8.06511,-7.279814 9.78338,-12.404414 0.29527,-0.88059 0.54489,-1.58565 1.02164,-2.37091 0.47675,-0.78526 1.49139,-1.83274 2.78691,-2.16628 -0.37539,0.0966 0.11452,-0.0509 0.60152,-0.31212 0.48699,-0.26128 1.12484,-0.63668 1.78903,-1.05679 1.32837,-0.84021 2.80767,-1.89821 3.57446,-2.55643 8.54915,-7.3387 11.09563,-20.08123 6.02909,-30.09584 -3.46994,-6.85875 -9.78996,-11.71866 -17.32039,-13.31857 -2.00311,-0.42553 -4.80304,-0.48892 -51.90431,-0.42943 l -49.42954,0.0605 -1.83607,0.56844 c -16.97556,5.24106 -22.01357,24.85282 -9.63869,37.16414 3.10089,3.08495 8.19129,5.66403 11.50421,6.1035 l 1.54305,0.20516 a 3.476563,3.476563 0 0 1 3.01533,3.28093 l 0.19534,4.14084 c 0.28503,6.05415 1.31159,9.84141 4.10154,15.132914 4.49366,8.52268 12.94249,15.18606 22.41209,17.64647 3.04125,0.79018 6.0964,1.15518 9.11934,1.11518 z m -0.0527,-4.10311 c -2.65858,0.0352 -5.34712,-0.28395 -8.03518,-0.98236 -8.31755,-2.16109 -15.88693,-8.14499 -19.81221,-15.58974 -2.58337,-4.899624 -3.37026,-7.788374 -3.63493,-13.410034 a 7.5796549,7.5796549 0 0 0 0,-0.002 l -0.19534,-4.1429 a 7.5796549,7.5796549 0 0 0 -6.58204,-7.15615 l -1.53529,-0.20309 c -2.02452,-0.26856 -6.72545,-2.533 -9.15035,-4.94544 -10.37207,-10.31878 -6.38649,-25.90559 7.95713,-30.33406 l 1.24592,-0.38447 48.81459,-0.0646 c 47.0994,-0.0595 49.66104,0.0471 51.04701,0.34158 6.32777,1.34438 11.59542,5.40013 14.50971,11.16056 4.19413,8.29019 2.05188,19.03976 -5.03897,25.12663 -0.48887,0.41965 -1.89947,1.44653 -3.098,2.20503 -0.59927,0.37925 -1.16946,0.71235 -1.53479,0.90847 -0.0833,0.0447 -0.17107,0.08 -0.2465,0.10801 0.11522,-0.0339 0.28561,-0.0816 0.56276,-0.15297 -2.52841,0.65168 -4.48678,2.71889 -5.26945,4.00803 -0.78284,1.28944 -1.07102,2.1963 -1.40662,3.19722 -1.38009,4.11596 -5.13808,8.59593 -7.88273,10.11876 -3.4584,1.91885 -8.11869,2.12967 -11.75795,0.51986 -0.76534,-0.33856 -1.45688,-0.63123 -2.63859,-0.87126 -0.59086,-0.12005 -1.26156,-0.30052 -2.72645,-0.12712 -0.73244,0.0867 -1.73016,0.25655 -3.01376,1.002 -1.2836,0.74545 -2.81406,2.35664 -3.43339,4.214724 0.14094,-0.4228 0.22082,-0.6431 0.2894,-0.83043 -0.0571,0.12504 -0.12488,0.25904 -0.1995,0.36587 -0.34123,0.48864 -0.89,1.2209 -1.50376,1.99625 -1.22752,1.55071 -2.80748,3.3646 -3.62922,4.18734 -6.37424,6.38191 -14.13023,9.63088 -22.1015,9.73636 z" />
  </g>
</svg>
