<?xml version="1.0" encoding="UTF-8" standalone="no"?>
<svg
   width="420mm"
   height="594mm"
   viewBox="0 0 420 594"
   version="1.1"
   id="svg8"
   inkscape:version="1.1 (c4e8f9ed74, 2021-05-24)"
   sodipodi:docname="Clouds_src.svg"
   xmlns:inkscape="http://www.inkscape.org/namespaces/inkscape"
   xmlns:sodipodi="http://sodipodi.sourceforge.net/DTD/sodipodi-0.dtd"
   xmlns="http://www.w3.org/2000/svg"
   xmlns:svg="http://www.w3.org/2000/svg"
   xmlns:rdf="http://www.w3.org/1999/02/22-rdf-syntax-ns#"
   xmlns:cc="http://creativecommons.org/ns#"
   xmlns:dc="http://purl.org/dc/elements/1.1/">
  <defs
     id="defs2" />
  <sodipodi:namedview
     id="base"
     pagecolor="#ffffff"
     bordercolor="#666666"
     borderopacity="1.0"
     inkscape:pageopacity="0.0"
     inkscape:pageshadow="2"
     inkscape:zoom="0.68038772"
     inkscape:cx="36.743756"
     inkscape:cy="315.26142"
     inkscape:document-units="mm"
     inkscape:current-layer="layer1"
     inkscape:document-rotation="0"
     showgrid="false"
     inkscape:window-width="1920"
     inkscape:window-height="998"
     inkscape:window-x="0"
     inkscape:window-y="0"
     inkscape:window-maximized="1"
     inkscape:pagecheckerboard="0" />
  <metadata
     id="metadata5">
    <rdf:RDF>
      <cc:Work
         rdf:about="">
        <dc:format>image/svg+xml</dc:format>
        <dc:type
           rdf:resource="http://purl.org/dc/dcmitype/StillImage" />
      </cc:Work>
    </rdf:RDF>
  </metadata>
  <g
     inkscape:label="Layer 1"
     inkscape:groupmode="layer"
     id="layer1">
    <path
       id="path874"
       style="fill:#787070;fill-opacity:0.405981;stroke:#000000;stroke-width:0.315;stroke-miterlimit:4;stroke-dasharray:none;stroke-opacity:1"
       d="m 279.33569,11.966415 c -9.07042,0.120024 -17.8789,3.858858 -24.95299,10.941452 -1.03404,1.035288 -2.63781,2.892477 -3.94136,4.539257 -0.6518,0.823389 -1.23881,1.603531 -1.65055,2.193147 -0.41175,0.589616 -0.70147,1.374752 -0.43924,0.588079 -0.28847,0.865426 -0.99975,1.614996 -1.60197,1.964738 -0.60222,0.349739 -1.07773,0.432549 -1.43558,0.474906 -0.71569,0.08472 -1.08264,-0.0024 -1.42729,-0.07235 -0.68935,-0.140015 -1.20841,-0.343979 -1.79525,-0.603581 -4.85373,-2.147035 -10.78452,-1.883574 -15.40785,0.681612 -3.91679,2.173174 -8.06511,7.279814 -9.78338,12.404414 -0.29527,0.88059 -0.54489,1.58565 -1.02164,2.37091 -0.47675,0.78526 -1.49139,1.83273 -2.78691,2.16628 0.37539,-0.0966 -0.11452,0.0509 -0.60152,0.31212 -0.48699,0.26128 -1.12484,0.63668 -1.78903,1.05679 -1.32837,0.84021 -2.80767,1.89821 -3.57446,2.55643 -8.54915,7.3387 -11.09563,20.08123 -6.02909,30.09584 3.46994,6.858746 9.78996,11.718656 17.32039,13.318566 2.00311,0.42553 4.80304,0.48892 51.90432,0.42943 l 49.42954,-0.0605 1.83607,-0.56844 c 16.97556,-5.24106 22.01357,-24.852816 9.63869,-37.164136 -3.10089,-3.08495 -8.19129,-5.66403 -11.50421,-6.1035 l -1.54305,-0.20516 a 3.476563,3.476563 0 0 1 -3.01533,-3.28093 l -0.19534,-4.14084 c -0.28503,-6.05415 -1.31159,-9.841415 -4.10154,-15.13292 -4.49366,-8.522684 -12.94249,-15.186058 -22.41209,-17.646469 -3.04125,-0.790186 -6.0964,-1.155179 -9.11934,-1.115177 z m 0.0527,4.103109 c 2.65858,-0.03518 5.34712,0.283957 8.03518,0.982368 8.31755,2.161087 15.88693,8.144983 19.81221,15.589747 2.58337,4.899617 3.37026,7.78837 3.63493,13.41003 a 7.5796549,7.5796549 0 0 0 0,0.002 l 0.19534,4.1429 a 7.5796549,7.5796549 0 0 0 6.58204,7.15615 l 1.53529,0.20309 c 2.02452,0.26856 6.72545,2.533 9.15035,4.94544 10.37207,10.31878 6.38649,25.905586 -7.95713,30.334056 l -1.24592,0.38447 -48.81459,0.0646 c -47.09941,0.0595 -49.66105,-0.0471 -51.04702,-0.34158 -6.32777,-1.34438 -11.59542,-5.40013 -14.50971,-11.160556 -4.19413,-8.29019 -2.05188,-19.03976 5.03897,-25.12663 0.48887,-0.41965 1.89947,-1.44653 3.098,-2.20503 0.59927,-0.37925 1.16946,-0.71235 1.53479,-0.90847 0.0833,-0.0447 0.17107,-0.08 0.2465,-0.10801 -0.11522,0.0339 -0.28561,0.0816 -0.56276,0.15297 2.52841,-0.65168 4.48678,-2.71889 5.26945,-4.00803 0.78284,-1.28944 1.07102,-2.1963 1.40662,-3.19722 1.38009,-4.11596 5.13808,-8.595927 7.88273,-10.11876 3.4584,-1.918846 8.11869,-2.129674 11.75795,-0.519864 0.76534,0.338564 1.45688,0.631238 2.63859,0.871262 0.59086,0.120055 1.26156,0.300519 2.72645,0.127125 0.73244,-0.0867 1.73016,-0.256554 3.01376,-1.002006 1.2836,-0.745451 2.81406,-2.356636 3.43339,-4.214728 -0.14094,0.422812 -0.22082,0.643115 -0.2894,0.83044 0.0571,-0.125035 0.12488,-0.259038 0.1995,-0.365869 0.34123,-0.488654 0.89,-1.220907 1.50376,-1.996263 1.22753,-1.550709 2.80749,-3.364597 3.62923,-4.18734 6.37424,-6.381903 14.13023,-9.630875 22.1015,-9.736356 z" />
    <path
       id="path849"
       style="fill:none;stroke:#000000;stroke-width:1.19114;stroke-opacity:1"
       d="m 433.64258,17.40625 c -37.80499,0.500258 -74.45327,16.191828 -103.42969,45.203125 -9.17605,9.187121 -24.57794,28.644069 -25.96289,32.798828 -0.2454,0.736248 -2.58609,0.259356 -5.87891,-1.197265 -22.23004,-9.83339 -48.71948,-8.655812 -69.92773,3.111328 -18.56158,10.298614 -35.47984,31.592344 -43.05664,54.189454 -1.97356,5.8859 -3.32376,8.11273 -5.21484,8.59961 -4.56584,1.17559 -20.24126,11.09024 -27.82422,17.59961 -36.98331,31.74694 -47.89658,86.26489 -25.95313,129.63867 14.89495,29.44162 42.14366,50.39929 74.45313,57.26367 5.88757,1.25076 12.74316,1.76882 58.66796,1.93164 v 38.85938 h 18.89844 v -12.63282 h 18.89844 v 12.63282 h 81.03906 l 4,-67.50196 c -159.78888,0.17212 -170.50869,-0.23469 -175.55468,-1.30664 -23.91597,-5.08113 -43.82521,-20.40798 -54.83985,-42.17968 -15.85183,-31.333 -7.75512,-71.96327 19.04492,-94.96875 1.84769,-1.58611 7.17715,-5.46722 11.70703,-8.33399 2.26494,-1.43338 4.42197,-2.69234 5.80274,-3.43359 0.31544,-0.16933 0.64818,-0.30222 0.93359,-0.40821 -0.43532,0.12805 -1.07969,0.30801 -2.1289,0.57813 9.55618,-2.46304 16.9579,-10.27414 19.91601,-15.14649 2.95879,-4.87346 4.04601,-8.30099 5.31446,-12.08398 5.21603,-15.55638 19.41945,-32.4905 29.79296,-38.24609 13.07108,-7.25233 30.68482,-8.04721 44.43946,-1.96289 2.89266,1.27961 5.50636,2.38382 9.97265,3.29101 2.23314,0.45373 4.76812,1.13582 10.30469,0.48047 2.76828,-0.32768 6.53923,-0.96965 11.39063,-3.78711 4.8514,-2.81745 9.54592,-5.77416 11.88671,-12.79687 0.21495,-0.47056 0.47143,-0.97523 0.75196,-1.37696 1.28973,-1.84687 3.36386,-4.61249 5.68359,-7.542966 4.63945,-5.860958 10.60902,-12.718545 13.71485,-15.828125 24.09157,-24.120581 53.40556,-36.400159 83.5332,-36.798828 10.04817,-0.132964 20.20958,1.073223 30.36914,3.712891 31.43645,8.167873 60.04703,30.784181 74.88281,58.921878 9.76388,18.51823 12.73792,29.43831 13.73828,50.68554 v 0.008 l 0.73828,15.65625 c 0.65602,13.84715 11.13282,25.2378 24.87696,27.04687 l 5.80078,0.76758 c 7.65169,1.01504 25.41901,9.57354 34.58398,18.69141 39.20149,39.00012 24.13988,97.9109 -30.07226,114.64843 l -4.71094,1.45313 -182.97656,0.24219 4,67.51953 h 81.04101 v -12.63282 h 18.89649 v 12.63282 h 18.89843 v -39.03516 l 64.48047,-0.082 8.82422,-2.72461 c 72.5901,-22.41154 95.00552,-109.4181 41.82031,-162.33008 -13.88473,-13.81332 -34.37827,-24.56979 -51.01953,-26.77734 l -5.83203,-0.77344 -0.73633,-15.65234 C 580.47854,133.76247 575.81782,116.58248 564.61133,95.328125 545.80738,59.664465 511.07172,32.29681 471.5918,22.039062 458.97468,18.760852 446.24424,17.239497 433.64258,17.40625 Z"
       transform="scale(0.26458333)"
       sodipodi:nodetypes="ssscssccsccccccccccssssccscsscsscsssssscccccsccccccccccccscccsss" />
    <path
       id="path854"
       style="fill:none;stroke:#000000;stroke-width:0.315156;stroke-opacity:1"
       d="m 108.3469,118.84308 c -10.002577,0.13236 -19.699611,4.28357 -27.366292,11.95948 -2.427829,2.43076 -6.502389,7.57874 -6.868829,8.67802 -0.06493,0.1948 -0.684747,0.0686 -1.555977,-0.31677 -5.881701,-2.60176 -12.889847,-2.28967 -18.501196,0.82372 -4.91109,2.72484 -9.38738,8.35829 -11.392069,14.33711 -0.522182,1.55731 -0.879928,2.14701 -1.380279,2.27583 -1.208039,0.31104 -5.354978,2.93429 -7.361308,4.65656 -9.78516,8.39971 -12.673151,22.82425 -6.867282,34.30023 3.94095,7.78976 11.150518,13.3348 19.699057,15.15101 2.526019,0.53663 5.527998,0.56542 52.630895,0.50592 l 49.95251,-0.0631 2.33525,-0.72089 c 19.20613,-5.92972 25.13688,-28.95073 11.06496,-42.95034 -3.67367,-3.65478 -9.09643,-6.50076 -13.49943,-7.08484 l -1.54254,-0.20464 -0.19482,-4.14135 c -0.3023,-6.4206 -1.53546,-10.96562 -4.5005,-16.58917 -4.97521,-9.43601 -14.16569,-16.67703 -24.61142,-19.39106 -3.33829,-0.86736 -6.70654,-1.26989 -10.04073,-1.22577 z m 0.0992,7.57887 c 2.65859,-0.0352 5.34713,0.28395 8.03518,0.98237 8.31755,2.16108 15.88692,8.14498 19.81222,15.58974 2.58336,4.89962 3.37024,7.78837 3.63492,13.41003 a 7.5796549,7.5796549 0 0 0 0,0.002 l 0.19534,4.14239 a 7.5796549,7.5796549 0 0 0 6.58203,7.15615 l 1.5353,0.2036 c 2.02451,0.26857 6.72545,2.53249 9.15035,4.94492 10.37206,10.31878 6.38649,25.9056 -7.95714,30.33407 l -1.24592,0.38499 -48.814589,0.0646 c -47.099404,0.0595 -49.66105,-0.0477 -51.047011,-0.3421 -6.327767,-1.34438 -11.59542,-5.39961 -14.509711,-11.16004 -4.194127,-8.29019 -2.051875,-19.04028 5.038971,-25.12715 0.488868,-0.41965 1.899471,-1.44653 3.098001,-2.20503 0.599266,-0.37925 1.169459,-0.71183 1.53479,-0.90796 0.08417,-0.0452 0.173178,-0.0809 0.249081,-0.10903 -0.115109,0.0339 -0.286946,0.0823 -0.56534,0.15399 2.528406,-0.65168 4.486778,-2.71888 5.269447,-4.00802 0.782846,-1.28944 1.07102,-2.19631 1.406631,-3.19722 1.380077,-4.11596 5.138062,-8.59645 7.882723,-10.11928 3.45839,-1.91885 8.11817,-2.12916 11.757422,-0.51935 0.765347,0.33857 1.457409,0.63124 2.639115,0.87127 0.590854,0.12005 1.261568,0.3 2.726449,0.1266 0.732441,-0.0867 1.730169,-0.25655 3.013768,-1.002 1.2836,-0.74545 2.814051,-2.35664 3.433385,-4.21473 -0.140851,0.42254 -0.220306,0.6431 -0.288873,0.83044 0.05698,-0.12489 0.124453,-0.25867 0.198954,-0.36535 0.341238,-0.48866 0.890024,-1.22091 1.503783,-1.99627 1.227521,-1.55071 2.807486,-3.36459 3.629237,-4.18734 6.374233,-6.3819 14.130227,-9.63087 22.101487,-9.73635 z" />
    <path
       id="path868"
       style="fill:none;stroke:#000000;stroke-width:1.19114;stroke-opacity:1"
       d="M 1055.8828 32.082031 C 1018.0778 32.582286 981.4276 48.273858 952.45117 77.285156 C 943.2752 86.472277 927.87513 105.92727 926.49023 110.08203 C 926.24494 110.81828 923.90218 110.34138 920.60938 108.88477 C 898.3794 99.051376 871.89192 100.2309 850.68359 111.99805 C 832.12199 122.29666 815.20373 143.59038 807.62695 166.1875 C 805.65336 172.0734 804.30124 174.30023 802.41016 174.78711 C 797.84434 175.96269 782.17087 185.87735 774.58789 192.38672 C 737.60461 224.13369 726.68937 278.65161 748.63281 322.02539 C 763.52774 351.46695 790.77649 372.42463 823.08594 379.28906 C 832.63306 381.31723 843.9811 381.42605 1022.0078 381.20117 L 1210.8027 380.96289 L 1219.6289 378.23828 C 1292.219 355.82668 1314.6344 268.8182 1261.4492 215.90625 C 1247.5644 202.09291 1227.0689 191.33841 1210.4277 189.13086 L 1204.5977 188.35742 L 1203.8613 172.70508 C 1202.7187 148.43824 1198.0581 131.25826 1186.8516 110.00391 C 1168.0477 74.340243 1133.312 46.972589 1093.832 36.714844 C 1081.2148 33.43664 1068.4845 31.915278 1055.8828 32.082031 z M 1055.7578 45.226562 C 1067.1831 45.075374 1078.7301 46.454876 1090.2246 49.441406 C 1126.0152 58.740597 1157.9477 83.925 1174.9316 116.13672 C 1185.4763 136.13611 1189.3563 150.4502 1190.4336 173.33203 L 1191.1719 188.98242 A 13.139766 13.139766 0 0 0 1202.5684 201.38281 L 1208.4004 202.1582 C 1220.9217 203.81919 1240.161 213.56691 1251.8809 225.22656 C 1298.6521 271.75754 1279.6108 345.88072 1215.4512 365.68945 L 1208.5117 367.83789 L 1021.6914 368.06641 C 843.67082 368.29125 833.08839 368.05166 825.51758 366.44336 C 797.05611 360.39646 773.16942 342.02829 760.05469 316.10547 C 740.90556 278.25497 750.53005 230.09424 782.8418 202.35742 C 785.7399 199.86966 791.33095 195.87091 796.35156 192.69531 C 798.86189 191.1075 801.27269 189.68869 803.11328 188.70117 C 804.95391 187.71388 806.80552 187.15638 805.38672 187.52148 C 810.28317 186.26082 814.11803 182.3019 815.91992 179.33398 C 817.72181 176.36607 818.66527 173.70126 819.78125 170.37305 C 826.2755 151.00448 841.9542 131.70381 856.75781 123.49023 C 874.23182 113.79504 896.64738 112.79928 914.99219 120.91406 C 917.21017 121.89524 919.17193 122.66612 921.77734 123.19531 C 923.07996 123.45969 924.4669 123.78895 927.17188 123.46875 C 928.52438 123.30866 930.32155 122.99568 932.59766 121.67383 C 934.87376 120.35197 937.56206 117.51895 938.65234 114.24805 C 937.66124 117.2213 938.75628 114.25386 940.3125 112.02539 C 941.86868 109.79692 944.08729 106.84835 946.55078 103.73633 C 951.47758 97.512278 957.53908 90.492978 961.44727 86.580078 C 988.18398 59.811219 1021.4759 45.680197 1055.7578 45.226562 z M 1055.957 60.734375 C 1025.8294 61.133043 996.51544 73.412625 972.42383 97.533203 C 969.31804 100.64278 963.34651 107.49843 958.70703 113.35938 C 956.41102 116.2599 954.36654 118.98938 953.07422 120.83594 C 952.91862 121.27667 952.68953 121.95365 952.57031 122.2793 C 952.78612 121.80673 953.04223 121.30026 953.32422 120.89648 C 954.61391 119.0496 956.68813 116.28204 959.00781 113.35156 C 963.6473 107.49062 969.61878 100.63497 972.72461 97.525391 C 996.75934 73.461727 1025.9923 61.188035 1056.0449 60.734375 C 1056.0157 60.73474 1055.9863 60.733988 1055.957 60.734375 z M 953.36328 119.14844 C 951.02251 126.17115 945.23812 132.26067 940.38672 135.07812 C 935.53532 137.89558 931.76437 138.53755 928.99609 138.86523 C 927.70384 139.01819 926.58743 139.09394 925.58789 139.12109 C 926.66033 139.10279 927.87355 139.0259 929.29688 138.85742 C 932.06519 138.52974 935.8361 137.88777 940.6875 135.07031 C 945.02491 132.55136 950.0878 127.41045 952.78906 121.33203 C 952.60639 121.64563 952.41851 121.96088 952.26953 122.28711 C 952.52873 121.57911 952.83059 120.74647 953.36328 119.14844 z M 886.49805 131.07031 C 878.65439 131.38227 870.88668 133.39063 864.2793 137.05664 C 853.90582 142.81223 839.70242 159.7444 834.48633 175.30078 C 833.21792 179.08379 832.12869 182.51129 829.16992 187.38477 C 826.2118 192.25711 818.8101 200.07016 809.25391 202.5332 C 810.3014 202.26346 810.94538 202.0832 811.38086 201.95508 C 811.31444 201.97974 811.23474 202.02302 811.16406 202.05078 C 819.93742 199.17863 826.68108 191.97179 829.4707 187.37695 C 832.42947 182.50352 833.51874 179.07597 834.78711 175.29297 C 840.00324 159.73658 854.2066 142.80442 864.58008 137.04883 C 871.10298 133.42969 878.75675 131.4213 886.49805 131.07031 z M 811.68164 201.94727 C 811.52888 201.99221 811.14806 202.09099 810.93555 202.15039 C 810.77105 202.22035 810.61354 202.2751 810.44922 202.36328 C 809.06844 203.10452 806.91339 204.36349 804.64844 205.79688 C 800.11856 208.66365 794.78715 212.54478 792.93945 214.13086 C 766.13939 237.13635 758.0427 277.76465 773.89453 309.09766 C 784.90917 330.86935 804.81839 346.19818 828.73438 351.2793 C 833.97269 352.39229 843.65445 352.79519 1021.668 352.57031 L 1206.1641 352.32617 L 1206.1875 352.31836 L 1021.9688 352.5625 C 843.95527 352.78738 834.27347 352.3841 829.03516 351.27148 C 805.11921 346.19033 785.20995 330.86157 774.19531 309.08984 C 758.34352 277.75684 766.44021 237.12854 793.24023 214.12305 C 795.08793 212.53697 800.41934 208.65583 804.94922 205.78906 C 807.21414 204.35568 809.36919 203.09671 810.75 202.35547 C 811.06483 202.18652 811.39655 202.05309 811.68164 201.94727 z "
       transform="scale(0.26458333)" />
    <path
       id="path877"
       style="fill:none;stroke:#000000;stroke-width:0.315155;stroke-opacity:1"
       sodipodi:type="inkscape:offset"
       inkscape:radius="-3.4762156"
       inkscape:original="M 377.50781 8.6582031 C 367.50524 8.7905625 357.80926 12.943236 350.14258 20.619141 C 347.71475 23.049901 343.63988 28.197595 343.27344 29.296875 C 343.20851 29.491675 342.58803 29.365869 341.7168 28.980469 C 335.8351 26.378719 328.82619 26.689344 323.21484 29.802734 C 318.30375 32.527574 313.82891 38.161805 311.82422 44.140625 C 311.30204 45.697935 310.94371 46.287196 310.44336 46.416016 C 309.23532 46.727056 305.08836 49.349996 303.08203 51.072266 C 293.29687 59.471976 290.40897 73.897067 296.21484 85.373047 C 300.15579 93.162807 307.36552 98.707229 315.91406 100.52344 C 318.44008 101.06006 321.44202 101.0888 368.54492 101.0293 L 418.49805 100.9668 L 420.83203 100.24609 C 440.03816 94.316366 445.9684 71.294542 431.89648 57.294922 C 428.22281 53.640142 422.80144 50.795018 418.39844 50.210938 L 416.85547 50.005859 L 416.66016 45.865234 C 416.35786 39.444634 415.12521 34.898941 412.16016 29.275391 C 407.18495 19.839381 397.99456 12.598795 387.54883 9.8847656 C 384.21055 9.0174081 380.842 8.6140833 377.50781 8.6582031 z "
       d="m 377.55469,12.134766 c -9.07042,0.120024 -17.87905,3.858813 -24.95313,10.941406 -1.03404,1.035288 -2.63784,2.892283 -3.9414,4.539062 -0.65179,0.82339 -1.23865,1.603743 -1.65039,2.19336 -0.41175,0.589617 -0.70169,1.374564 -0.43946,0.58789 -0.28846,0.865428 -0.99934,1.615104 -1.60156,1.964844 -0.60222,0.349741 -1.0777,0.432252 -1.43555,0.47461 -0.7157,0.08472 -1.08307,-0.0023 -1.42773,-0.07227 -0.68933,-0.140015 -1.20807,-0.343915 -1.79492,-0.603516 -4.85374,-2.147035 -10.7849,-1.883545 -15.40821,0.681641 -3.91679,2.173173 -8.06493,7.279698 -9.7832,12.404297 -0.29527,0.880593 -0.54473,1.585831 -1.02148,2.371094 -0.47675,0.785262 -1.49159,1.832469 -2.78711,2.166015 0.37539,-0.09665 -0.11457,0.05122 -0.60157,0.3125 -0.48699,0.261281 -1.12487,0.636532 -1.78906,1.056641 -1.32837,0.840217 -2.80743,1.89842 -3.57422,2.55664 -8.54915,7.338706 -11.09583,20.081096 -6.02929,30.095704 3.46994,6.858754 9.78988,11.718454 17.32031,13.318359 2.00311,0.425534 4.803,0.489185 51.9043,0.429687 l 49.42968,-0.06055 1.83594,-0.56836 c 16.97557,-5.241059 22.01357,-24.852741 9.63867,-37.164062 -3.10089,-3.084953 -8.19098,-5.66404 -11.5039,-6.103516 l -1.54297,-0.205078 a 3.4765632,3.4765632 0 0 1 -3.01563,-3.28125 L 413.1875,46.029297 C 412.90245,39.975145 411.87591,36.187989 409.08594,30.896484 404.59229,22.3738 396.14343,15.710411 386.67383,13.25 c -3.04126,-0.790186 -6.09619,-1.155236 -9.11914,-1.115234 z"
       transform="translate(-96.871968,99.802789)" />
  </g>
</svg>
