<?xml version="1.0" encoding="UTF-8" standalone="no"?>
<!-- Created with Inkscape (http://www.inkscape.org/) -->

<svg
   width="100.0mm"
   height="100.0mm"
   viewBox="0 0 100.0 100.0"
   version="1.1"
   id="svg5"
   sodipodi:docname="JeanCloud_pcb_milled.svg"
   inkscape:version="1.1.1 (3bf5ae0d25, 2021-09-20)"
   xmlns:inkscape="http://www.inkscape.org/namespaces/inkscape"
   xmlns:sodipodi="http://sodipodi.sourceforge.net/DTD/sodipodi-0.dtd"
   xmlns="http://www.w3.org/2000/svg"
   xmlns:svg="http://www.w3.org/2000/svg">
  <sodipodi:namedview
     id="namedview7"
     pagecolor="#ffffff"
     bordercolor="#666666"
     borderopacity="1.0"
     inkscape:pageshadow="2"
     inkscape:pageopacity="0.0"
     inkscape:pagecheckerboard="0"
     inkscape:document-units="mm"
     showgrid="false"
     inkscape:zoom="1.6424131"
     inkscape:cx="266.07192"
     inkscape:cy="214.92766"
     inkscape:window-width="1920"
     inkscape:window-height="1051"
     inkscape:window-x="0"
     inkscape:window-y="0"
     inkscape:window-maximized="1"
     inkscape:current-layer="g834" />
  <defs
     id="defs2" />
  <g
     inkscape:label="[fixed] BG"
     inkscape:groupmode="layer"
     sodipodi:insensitive="true"
     id="g832">
    <rect
       x="0"
       y="0"
       width="100.0"
       height="100.0"
       style="fill:#FFFFFF;fill-opacity:1;stroke:none"
       id="rect830" />
  </g>
  <g
     inkscape:label="Edge.Cuts"
     inkscape:groupmode="layer"
     id="g834">
    <path
       id="rect2172"
       style="fill:none;stroke:#000000;stroke-width:0.1;stroke-linecap:round"
       d="M 32.7893 23.5224 L 68.3069 23.5224 L 69.0677 23.5415 L 69.8183 23.5982 L 70.5577 23.6917 L 71.285 23.8209 L 71.9994 23.9849 L 72.6999 24.183 L 73.3856 24.4141 L 74.0555 24.6773 L 74.7089 24.9717 L 75.3447 25.2965 L 75.962 25.6507 L 76.56 26.0333 L 77.1377 26.4435 L 77.6942 26.8804 L 78.2286 27.3431 L 78.74 27.8305 L 79.2275 28.3419 L 79.6901 28.8763 L 80.127 29.4329 L 80.5372 30.0106 L 80.9199 30.6085 L 81.274 31.2259 L 81.5988 31.8617 L 81.8932 32.515 L 82.1565 33.185 L 82.3875 33.8706 L 82.5856 34.5711 L 82.7497 35.2855 L 82.8789 36.0128 L 82.9723 36.7522 L 83.029 37.5028 L 83.0481 38.2636 L 83.0481 57.7812 L 83.029 58.542 L 82.9723 59.2926 L 82.8789 60.032 L 82.7497 60.7593 L 82.5856 61.4737 L 82.3875 62.1742 L 82.1565 62.8599 L 81.8932 63.5298 L 81.5988 64.1832 L 81.274 64.819 L 80.9199 65.4363 L 80.5372 66.0343 L 80.127 66.612 L 79.6901 67.1685 L 79.2275 67.7029 L 78.74 68.2143 L 78.2286 68.7018 L 77.6942 69.1644 L 77.1377 69.6013 L 76.56 70.0115 L 75.962 70.3942 L 75.3447 70.7483 L 74.7089 71.0731 L 74.0555 71.3675 L 73.3856 71.6308 L 72.6999 71.8618 L 71.9994 72.0599 L 71.285 72.224 L 70.5577 72.3532 L 69.8183 72.4466 L 69.0677 72.5033 L 68.3069 72.5224 L 32.7893 72.5224 L 32.0285 72.5033 L 31.2779 72.4466 L 30.5385 72.3532 L 29.8112 72.224 L 29.0968 72.0599 L 28.3963 71.8618 L 27.7107 71.6308 L 27.0407 71.3675 L 26.3874 71.0731 L 25.7516 70.7483 L 25.1342 70.3942 L 24.5363 70.0115 L 23.9586 69.6013 L 23.402 69.1644 L 22.8676 68.7018 L 22.3562 68.2143 L 21.8688 67.7029 L 21.4061 67.1685 L 20.9692 66.612 L 20.559 66.0343 L 20.1764 65.4363 L 19.8222 64.819 L 19.4974 64.1832 L 19.203 63.5298 L 18.9398 62.8599 L 18.7087 62.1742 L 18.5106 61.4737 L 18.3466 60.7593 L 18.2174 60.032 L 18.1239 59.2926 L 18.0672 58.542 L 18.0481 57.7812 L 18.0481 38.2636 L 18.0672 37.5028 L 18.1239 36.7522 L 18.2174 36.0128 L 18.3466 35.2855 L 18.5106 34.5711 L 18.7087 33.8706 L 18.9398 33.185 L 19.203 32.515 L 19.4974 31.8617 L 19.8222 31.2259 L 20.1764 30.6085 L 20.559 30.0106 L 20.9692 29.4329 L 21.4061 28.8763 L 21.8688 28.3419 L 22.3562 27.8305 L 22.8676 27.3431 L 23.402 26.8804 L 23.9586 26.4435 L 24.5363 26.0333 L 25.1342 25.6507 L 25.7516 25.2965 L 26.3874 24.9717 L 27.0407 24.6773 L 27.7107 24.4141 L 28.3963 24.183 L 29.0968 23.9849 L 29.8112 23.8209 L 30.5385 23.6917 L 31.2779 23.5982 L 32.0285 23.5415 L 32.7893 23.5224 L 32.7893 23.5224" />
    <path
       id="path3055"
       style="fill:none;stroke:#000000;stroke-width:0.1;stroke-linecap:round"
       d="M 31.5672 29.5949 L 31.5563 29.8107 L 31.5243 30.0202 L 31.4723 30.2224 L 31.4014 30.4163 L 31.3125 30.6007 L 31.2068 30.7747 L 31.0853 30.9371 L 30.9492 31.087 L 30.7993 31.2231 L 30.6369 31.3446 L 30.4629 31.4503 L 30.2785 31.5392 L 30.0846 31.6101 L 29.8824 31.6621 L 29.6729 31.6941 L 29.4572 31.705 L 29.2414 31.6941 L 29.0319 31.6621 L 28.8297 31.6101 L 28.6359 31.5392 L 28.4514 31.4503 L 28.2774 31.3446 L 28.115 31.2231 L 27.9652 31.087 L 27.829 30.9371 L 27.7075 30.7747 L 27.6018 30.6007 L 27.513 30.4163 L 27.442 30.2224 L 27.39 30.0202 L 27.3581 29.8107 L 27.3472 29.5949 L 27.3575 29.3864 L 27.3881 29.1814 L 27.4384 28.9812 L 27.5078 28.7874 L 27.5957 28.6013 L 27.7017 28.4243 L 27.825 28.2577 L 27.9652 28.1029 L 28.1199 27.9627 L 28.2865 27.8394 L 28.4636 27.7334 L 28.6497 27.6455 L 28.8435 27.5761 L 29.0436 27.5258 L 29.2486 27.4952 L 29.4572 27.4849 L 29.6729 27.4958 L 29.8824 27.5277 L 30.0846 27.5797 L 30.2785 27.6507 L 30.4629 27.7395 L 30.6369 27.8452 L 30.7993 27.9667 L 30.9492 28.1029 L 31.0853 28.2527 L 31.2068 28.4152 L 31.3125 28.5891 L 31.4014 28.7736 L 31.4723 28.9675 L 31.5243 29.1697 L 31.5563 29.3792 L 31.5672 29.5949 L 31.5672 29.5949" />
    <path
       id="ellipse3241"
       style="fill:none;stroke:#000000;stroke-width:0.1;stroke-linecap:round"
       d="M 76.5607 32.1506 L 76.5504 32.3592 L 76.5198 32.5642 L 76.4695 32.7643 L 76.4001 32.9581 L 76.3122 33.1442 L 76.2062 33.3213 L 76.0829 33.4879 L 75.9427 33.6426 L 75.788 33.7828 L 75.6214 33.9061 L 75.4443 34.0121 L 75.2582 34.1 L 75.0644 34.1694 L 74.8643 34.2197 L 74.6593 34.2503 L 74.4507 34.2607 L 74.2422 34.2503 L 74.0372 34.2197 L 73.8371 34.1694 L 73.6433 34.1 L 73.4571 34.0121 L 73.2801 33.9061 L 73.1135 33.7828 L 72.9587 33.6426 L 72.8186 33.4879 L 72.6952 33.3213 L 72.5893 33.1442 L 72.5013 32.9581 L 72.4319 32.7643 L 72.3816 32.5642 L 72.351 32.3592 L 72.3407 32.1506 L 72.3516 31.9349 L 72.3836 31.7254 L 72.4356 31.5231 L 72.5065 31.3293 L 72.5954 31.1448 L 72.7011 30.9708 L 72.8225 30.8084 L 72.9587 30.6586 L 73.1086 30.5224 L 73.271 30.4009 L 73.445 30.2952 L 73.6294 30.2064 L 73.8233 30.1354 L 74.0255 30.0834 L 74.235 30.0514 L 74.4507 30.0405 L 74.6665 30.0514 L 74.876 30.0834 L 75.0782 30.1354 L 75.272 30.2064 L 75.4565 30.2952 L 75.6304 30.4009 L 75.7929 30.5224 L 75.9427 30.6586 L 76.0789 30.8084 L 76.2004 30.9708 L 76.3061 31.1448 L 76.3949 31.3293 L 76.4659 31.5231 L 76.5179 31.7254 L 76.5498 31.9349 L 76.5607 32.1506 L 76.5607 32.1506" />
    <path
       id="ellipse3243"
       style="fill:none;stroke:#000000;stroke-width:0.1;stroke-linecap:round"
       transform="scale(1, -1)"
       d="M 31.5672 -67.4176 L 31.5563 -67.2019 L 31.5243 -66.9923 L 31.4723 -66.7901 L 31.4014 -66.5963 L 31.3125 -66.4118 L 31.2068 -66.2378 L 31.0853 -66.0754 L 30.9492 -65.9256 L 30.7993 -65.7894 L 30.6369 -65.6679 L 30.4629 -65.5622 L 30.2785 -65.4734 L 30.0846 -65.4024 L 29.8824 -65.3504 L 29.6729 -65.3184 L 29.4572 -65.3075 L 29.2486 -65.3179 L 29.0436 -65.3485 L 28.8435 -65.3987 L 28.6497 -65.4682 L 28.4636 -65.5561 L 28.2865 -65.6621 L 28.1199 -65.7854 L 27.9652 -65.9256 L 27.825 -66.0803 L 27.7017 -66.2469 L 27.5957 -66.424 L 27.5078 -66.6101 L 27.4384 -66.8039 L 27.3881 -67.004 L 27.3575 -67.209 L 27.3472 -67.4176 L 27.3581 -67.6333 L 27.39 -67.8428 L 27.442 -68.0451 L 27.513 -68.2389 L 27.6018 -68.4234 L 27.7075 -68.5973 L 27.829 -68.7598 L 27.9652 -68.9096 L 28.115 -69.0458 L 28.2774 -69.1673 L 28.4514 -69.273 L 28.6359 -69.3618 L 28.8297 -69.4328 L 29.0319 -69.4848 L 29.2414 -69.5168 L 29.4572 -69.5277 L 29.6729 -69.5168 L 29.8824 -69.4848 L 30.0846 -69.4328 L 30.2785 -69.3618 L 30.4629 -69.273 L 30.6369 -69.1673 L 30.7993 -69.0458 L 30.9492 -68.9096 L 31.0853 -68.7598 L 31.2068 -68.5973 L 31.3125 -68.4234 L 31.4014 -68.2389 L 31.4723 -68.0451 L 31.5243 -67.8428 L 31.5563 -67.6333 L 31.5672 -67.4176 L 31.5672 -67.4176" />
    <path
       id="ellipse3245"
       style="fill:none;stroke:#000000;stroke-width:0.1;stroke-linecap:round"
       transform="scale(1, -1)"
       d="M 76.5607 -64.8619 L 76.5498 -64.6462 L 76.5179 -64.4367 L 76.4659 -64.2345 L 76.3949 -64.0406 L 76.3061 -63.8561 L 76.2004 -63.6822 L 76.0789 -63.5197 L 75.9427 -63.3699 L 75.7929 -63.2337 L 75.6304 -63.1122 L 75.4565 -63.0065 L 75.272 -62.9177 L 75.0782 -62.8467 L 74.876 -62.7947 L 74.6665 -62.7628 L 74.4507 -62.7519 L 74.235 -62.7628 L 74.0255 -62.7947 L 73.8233 -62.8467 L 73.6294 -62.9177 L 73.445 -63.0065 L 73.271 -63.1122 L 73.1086 -63.2337 L 72.9587 -63.3699 L 72.8225 -63.5197 L 72.7011 -63.6822 L 72.5954 -63.8561 L 72.5065 -64.0406 L 72.4356 -64.2345 L 72.3836 -64.4367 L 72.3516 -64.6462 L 72.3407 -64.8619 L 72.351 -65.0705 L 72.3816 -65.2755 L 72.4319 -65.4756 L 72.5013 -65.6694 L 72.5893 -65.8555 L 72.6952 -66.0326 L 72.8186 -66.1992 L 72.9587 -66.354 L 73.1135 -66.4941 L 73.2801 -66.6175 L 73.4571 -66.7234 L 73.6433 -66.8114 L 73.8371 -66.8808 L 74.0372 -66.9311 L 74.2422 -66.9617 L 74.4507 -66.972 L 74.6593 -66.9617 L 74.8643 -66.9311 L 75.0644 -66.8808 L 75.2582 -66.8114 L 75.4443 -66.7234 L 75.6214 -66.6175 L 75.788 -66.4941 L 75.9427 -66.354 L 76.0829 -66.1992 L 76.2062 -66.0326 L 76.3122 -65.8555 L 76.4001 -65.6694 L 76.4695 -65.4756 L 76.5198 -65.2755 L 76.5504 -65.0705 L 76.5607 -64.8619 L 76.5607 -64.8619" />
  </g>
  <g
     inkscape:label="B.Cu"
     inkscape:groupmode="layer"
     id="g836" />
  <g
     inkscape:label="B.Mask"
     inkscape:groupmode="layer"
     id="g838" />
  <g
     inkscape:label="B.SilkS"
     inkscape:groupmode="layer"
     id="g840" />
  <g
     inkscape:label="F.Cu"
     inkscape:groupmode="layer"
     id="g842" />
  <g
     inkscape:label="F.Mask"
     inkscape:groupmode="layer"
     id="g844" />
  <g
     inkscape:label="F.SilkS"
     inkscape:groupmode="layer"
     id="g846" />
  <g
     inkscape:label="Dwgs.User"
     inkscape:groupmode="layer"
     id="g848" />
  <g
     inkscape:label="Drill"
     inkscape:groupmode="layer"
     id="g850">
    <text
       alignment-baseline="hanging"
       font-size="4px"
       style="font-style:normal;font-weight:normal;font-family:sans-serif;fill:#ff0000;stroke-linecap:round;stroke-linejoin:round"
       text-anchor="middle"
       id="text11"
       x="13.429343"
       y="-69.209068" />
  </g>
</svg>
