<?xml version="1.0" encoding="UTF-8" standalone="no"?>
<!-- Created with Inkscape (http://www.inkscape.org/) -->

<svg
   version="1.1"
   id="svg2"
   xml:space="preserve"
   width="377.95334"
   height="150.89067"
   viewBox="0 0 377.95334 150.89067"
   sodipodi:docname="OBERLAB_Logo_solo_sw-dark_CMYK.svg"
   inkscape:version="1.1 (c4e8f9ed74, 2021-05-24)"
   xmlns:inkscape="http://www.inkscape.org/namespaces/inkscape"
   xmlns:sodipodi="http://sodipodi.sourceforge.net/DTD/sodipodi-0.dtd"
   xmlns="http://www.w3.org/2000/svg"
   xmlns:svg="http://www.w3.org/2000/svg"><defs
     id="defs6"><clipPath
       clipPathUnits="userSpaceOnUse"
       id="clipPath16"><path
         d="M 0,113.168 H 283.465 V 0 H 0 Z"
         id="path14" /></clipPath></defs><sodipodi:namedview
     id="namedview4"
     pagecolor="#ffffff"
     bordercolor="#666666"
     borderopacity="1.0"
     inkscape:pageshadow="2"
     inkscape:pageopacity="0.0"
     inkscape:pagecheckerboard="0"
     showgrid="false"
     inkscape:zoom="3.7703067"
     inkscape:cx="189.10928"
     inkscape:cy="75.458053"
     inkscape:window-width="1920"
     inkscape:window-height="998"
     inkscape:window-x="0"
     inkscape:window-y="0"
     inkscape:window-maximized="1"
     inkscape:current-layer="g8" /><g
     id="g8"
     inkscape:groupmode="layer"
     inkscape:label="OBERLAB_Logo_solo_sw-dark_CMYK"
     transform="matrix(1.3333333,0,0,-1.3333333,0,150.89067)"><g
       id="g10"><g
         id="g12"
         clip-path="url(#clipPath16)"><g
           id="g18"
           transform="translate(239.3045,62.1377)"><path
             d="m 0,0 -0.766,0.378 -36.011,17.976 -0.476,0.237 0.528,0.035 28.226,1.523 L -36.179,18.38 -1.232,1.364 C -3.593,7.521 -5.9,13.65 -8.19,19.807 l -0.123,0.352 0.361,0.018 0.378,0.026 C -5.126,13.738 -2.686,7.257 -0.299,0.801 Z"
             style="fill:#444141;fill-opacity:1;fill-rule:nonzero;stroke:none"
             id="path20" /></g><g
           id="g22"
           transform="translate(188.6912,58.2715)"><path
             d="M 0,0 -12.639,-0.881 -12.867,-0.898 2.246,8.612 12.021,0.66 C 7.979,0.466 3.98,0.255 0,0 M 12.814,0.643 2.343,8.886 2.264,8.956 2.175,8.895 l -15.236,-9.909 -0.194,-0.123 12.867,0.573 c 4.377,0.229 8.745,0.502 13.07,0.775 l 0.633,0.044 z"
             style="fill:#444141;fill-opacity:1;fill-rule:nonzero;stroke:none"
             id="path24" /></g><g
           id="g26"
           transform="translate(275.8094,61.9697)"><path
             d="M 0,0 -0.66,-0.528 -9.019,-7.222 -9.142,-7.318 -9.3,-7.274 c -1.823,0.51 -3.681,1.047 -5.531,1.637 l -5.231,1.727 0.238,0.044 c 0.07,0.017 0.149,0.026 0.22,0.044 l 0.22,-0.062 5.179,-1.312 c 1.638,-0.422 3.258,-0.908 4.923,-1.418 l 7.715,5.91 c -5.848,-1.013 -11.785,-1.982 -17.755,-3.066 6.094,1.137 12.25,2.405 18.494,3.612 z"
             style="fill:#444141;fill-opacity:1;fill-rule:nonzero;stroke:none"
             id="path28" /></g><g
           id="g30"
           transform="translate(168.3289,103.1377)"><path
             d="m 0,0 -54.409,-34.021 -0.379,-0.238 -0.599,-0.37 -45.223,-28.076 -5.276,-0.591 26.148,23.692 0.308,-0.23 -0.132,0.353 79.544,40.388 c 0,-0.228 0,-0.458 0.018,-0.686 z m -106.679,-63.419 -0.493,-0.449 0.142,0.017 -5.795,-5.293 0.035,0.009 -0.053,-0.026 0.018,0.017 -3.849,-0.889 -0.035,-0.009 -0.027,-0.026 -3.056,-3.453 -0.123,-0.017 c -6.773,-1.057 -13.58,-2.14 -20.406,-3.285 l -19.472,-3.338 40.063,20.221 38.31,19.569 z m -19.092,-16.672 c -5.778,0.035 -11.609,0.071 -17.439,0.027 l -16.063,-0.176 19.462,2.985 c 5.972,0.934 11.952,1.929 17.958,2.942 l 1.366,0.211 z m -34.127,0.044 27.212,29.653 26.897,29.601 25.559,-18.46 -40.117,-20.432 z m 71.081,63.401 8.568,-22.105 -25.047,18.248 c 5.558,1.233 10.983,2.467 16.479,3.857 m 21.656,-15.861 -12.595,-6.446 -6.895,18.441 9.801,-6.129 c 3.206,-1.972 6.43,-3.92 9.689,-5.866 m -19.922,13.22 c 9.52,5.751 19.006,11.511 28.526,17.35 l 10.674,-20.697 -18.723,-9.591 c -3.391,2.096 -6.826,4.21 -10.296,6.288 l -9.908,5.866 -0.291,0.775 z M 0.035,-38.936 v -0.123 l -7.873,-5.698 -8.578,20.899 L 0.15,-6.729 Z M 0.784,0.256 c 0.035,0.449 0.07,0.897 0.079,1.355 l 0.018,0.741 -0.652,-0.344 -47.76,-24.466 -10.639,21.075 -0.149,0.282 -0.273,-0.168 c -9.582,-5.751 -19.181,-11.545 -28.755,-17.384 l -0.942,2.528 -0.107,0.272 -0.29,-0.07 c -5.663,-1.321 -11.405,-2.801 -17.015,-4.289 l -0.167,0.123 -0.158,-0.176 -27.364,-30.093 -26.914,-29.891 -0.008,-0.009 h -0.16 l 0.045,-0.009 -0.247,-0.044 h 0.274 l -0.072,-0.035 0.098,0.018 -0.08,-0.088 0.203,0.105 0.211,-0.061 h 0.229 l 17.041,-0.194 c 1.885,-0.009 3.77,-0.018 5.664,-0.018 h 0.51 l 10.199,-0.132 -2.158,-2.466 -12.004,-2.298 -19.243,5.046 19.199,-5.301 0.027,-0.009 0.026,0.009 12.136,2.174 0.07,0.018 0.044,0.044 2.739,3.03 0.335,0.378 h -0.061 l 5.574,6.183 0.432,0.475 -0.202,-0.035 2.888,3.233 3.858,0.872 0.035,0.009 0.017,0.017 6.113,5.53 0.07,0.009 5.451,0.617 -0.193,-0.124 -0.035,-0.026 0.035,-0.026 3.099,-2.545 0.009,-0.009 0.018,0.009 14.003,3.241 -14.003,-3.189 0.009,-0.008 h -0.027 l 0.018,0.008 -3.056,2.519 0.273,0.168 h 0.008 l 0.362,0.044 0.044,0.009 0.035,0.026 40.178,25.135 0.335,0.212 60.142,37.332 -0.009,-5.469 -16.918,-17.834 -0.071,-0.07 0.045,-0.098 8.833,-20.934 -12.823,-9.273 -23.048,3.267 -0.132,0.017 -0.123,-0.079 -19.287,-12.743 -18.037,1.594 -1.374,-0.318 -1.374,-0.316 1.4,-0.124 19.464,-1.664 0.141,-0.018 0.123,0.079 19.234,12.815 23.039,-3.189 0.142,-0.017 0.105,0.079 21.067,15.324 0.123,0.088 v 0.361 l 0.096,0.071 -0.114,32.815 v 0.695 L 0.661,-5.39 0.652,0 v 0.176 z"
             style="fill:#444141;fill-opacity:1;fill-rule:nonzero;stroke:none"
             id="path32" /></g><g
           id="g34"
           transform="translate(66.3973,27.7324)"><path
             d="m 0,0 -0.978,-0.229 c -6.507,-1.533 -12.955,-2.968 -19.278,-4.509 6.148,1.523 12.198,3.135 18.187,4.668 l -10.155,1.637 c -1.295,-1.065 -2.562,-2.104 -3.875,-3.108 l -4.139,-3.092 -0.194,-0.149 c -0.061,-0.009 -0.131,-0.027 -0.194,-0.044 l -0.237,-0.062 4.015,3.514 c 1.418,1.225 2.88,2.404 4.316,3.541 l 0.124,0.097 0.14,-0.027 11.273,-2.051 z"
             style="fill:#444141;fill-opacity:1;fill-rule:nonzero;stroke:none"
             id="path36" /></g><g
           id="g38"
           transform="translate(125.0516,46.6855)"><path
             d="M 0,0 C -2.052,-0.802 -4.112,-1.647 -6.209,-2.493 L -2.633,0 c 1.118,0.801 2.211,1.646 3.329,2.536 L 5.408,1.981 C 3.576,1.329 1.779,0.687 0,0 M 7.311,2.192 6.403,2.298 5.795,2.369 0.652,3.152 0.528,3.17 0.423,3.091 C -0.827,2.157 -2.113,1.18 -3.355,0.149 l -3.479,-2.941 0.238,0.088 -0.194,-0.15 c 2.167,0.731 4.359,1.454 6.561,2.228 2.264,0.793 4.5,1.647 6.676,2.483 L 6.993,2.069 7.239,2.157 H 7.222 Z"
             style="fill:#444141;fill-opacity:1;fill-rule:nonzero;stroke:none"
             id="path40" /></g><g
           id="g42"
           transform="translate(77.4217,23.622)"><path
             d="m 0,0 c 0,-2.32 -0.307,-4.46 -0.919,-6.417 -0.615,-1.957 -1.501,-3.64 -2.662,-5.048 -1.161,-1.41 -2.575,-2.509 -4.24,-3.297 -1.667,-0.786 -3.545,-1.181 -5.634,-1.181 -2.091,0 -3.947,0.395 -5.571,1.181 -1.625,0.788 -2.995,1.891 -4.106,3.309 -1.109,1.419 -1.956,3.1 -2.535,5.05 -0.581,1.947 -0.871,4.083 -0.871,6.403 v 5.272 c 0,2.322 0.29,4.461 0.871,6.419 0.579,1.956 1.426,3.644 2.535,5.063 1.111,1.415 2.477,2.523 4.092,3.318 1.618,0.796 3.47,1.194 5.56,1.194 2.105,0 3.992,-0.398 5.659,-1.194 1.665,-0.795 3.079,-1.903 4.24,-3.318 1.161,-1.419 2.047,-3.107 2.662,-5.063 C -0.307,9.733 0,7.594 0,5.272 Z m -7.088,5.322 c 0,1.478 -0.121,2.835 -0.36,4.081 -0.242,1.243 -0.619,2.311 -1.132,3.208 -0.514,0.895 -1.175,1.595 -1.978,2.101 -0.804,0.505 -1.778,0.759 -2.922,0.759 -1.128,0 -2.073,-0.254 -2.836,-0.759 -0.763,-0.506 -1.376,-1.206 -1.841,-2.101 -0.464,-0.897 -0.796,-1.965 -0.993,-3.208 -0.201,-1.246 -0.3,-2.603 -0.3,-4.081 V 0 c 0,-1.458 0.099,-2.811 0.3,-4.055 0.197,-1.243 0.529,-2.32 0.993,-3.233 0.465,-0.912 1.078,-1.625 1.841,-2.139 0.763,-0.512 1.716,-0.771 2.861,-0.771 1.127,0 2.093,0.259 2.897,0.771 0.803,0.514 1.459,1.224 1.965,2.127 0.505,0.905 0.882,1.977 1.131,3.221 0.249,1.244 0.374,2.603 0.374,4.079 z"
             style="fill:#444141;fill-opacity:1;fill-rule:nonzero;stroke:none"
             id="path44" /></g><g
           id="g46"
           transform="translate(83.1795,8.1777)"><path
             d="m 0,0 v 36.214 h 12.163 c 1.972,0 3.767,-0.199 5.384,-0.598 1.616,-0.397 2.998,-1.004 4.142,-1.815 1.143,-0.812 2.027,-1.84 2.648,-3.085 0.622,-1.242 0.932,-2.711 0.932,-4.401 -0.016,-1.692 -0.469,-3.211 -1.355,-4.552 -0.887,-1.344 -2.191,-2.365 -3.916,-3.062 1.044,-0.264 1.947,-0.661 2.71,-1.192 0.763,-0.53 1.397,-1.155 1.904,-1.877 0.504,-0.722 0.878,-1.511 1.117,-2.363 0.24,-0.855 0.362,-1.738 0.362,-2.65 0,-1.741 -0.298,-3.275 -0.896,-4.601 C 24.599,4.691 23.744,3.581 22.633,2.686 21.523,1.791 20.172,1.118 18.578,0.67 16.987,0.222 15.197,0 13.207,0 Z m 7.015,21.016 h 5.197 c 1.94,0.017 3.433,0.424 4.476,1.218 1.046,0.796 1.577,1.965 1.593,3.507 0,1.693 -0.522,2.906 -1.567,3.645 -1.044,0.738 -2.555,1.115 -4.526,1.132 H 7.015 Z m 0,-5.05 V 5.646 h 6.216 c 1.907,0.015 3.363,0.484 4.367,1.403 1.002,0.922 1.504,2.128 1.504,3.621 0.015,1.658 -0.431,2.95 -1.343,3.88 -0.912,0.928 -2.322,1.4 -4.228,1.416 z"
             style="fill:#444141;fill-opacity:1;fill-rule:nonzero;stroke:none"
             id="path48" /></g><g
           id="g50"
           transform="translate(136.49,24.0449)"><path
             d="M 0,0 H -14.872 V -10.222 H 2.512 v -5.645 H -21.887 V 20.347 H 2.438 V 14.65 h -17.31 V 5.521 L 0,5.521 Z"
             style="fill:#444141;fill-opacity:1;fill-rule:nonzero;stroke:none"
             id="path52" /></g><g
           id="g54"
           transform="translate(157.0584,21.707)"><path
             d="m 0,0 h -5.296 v -13.529 h -6.991 v 36.214 h 12.14 c 2.005,0 3.821,-0.237 5.447,-0.71 1.623,-0.473 3.013,-1.165 4.165,-2.079 1.153,-0.909 2.041,-2.045 2.661,-3.405 0.622,-1.359 0.934,-2.934 0.934,-4.726 0,-1.292 -0.154,-2.458 -0.46,-3.494 C 12.291,7.234 11.853,6.305 11.28,5.484 10.708,4.664 10.021,3.946 9.216,3.334 8.412,2.719 7.512,2.188 6.518,1.741 l 7.785,-14.948 v -0.322 H 6.815 Z m -5.296,5.672 h 5.174 c 1.972,0 3.493,0.5 4.562,1.505 1.071,1.003 1.605,2.375 1.605,4.114 0,1.809 -0.523,3.214 -1.566,4.216 -1.045,1.004 -2.587,1.506 -4.626,1.506 h -5.149 z"
             style="fill:#444141;fill-opacity:1;fill-rule:nonzero;stroke:none"
             id="path56" /></g><g
           id="g58"
           transform="translate(183.1844,13.8232)"><path
             d="M 0,0 H 16.963 V -5.646 H -7.015 V 30.568 H 0 Z"
             style="fill:#444141;fill-opacity:1;fill-rule:nonzero;stroke:none"
             id="path60" /></g><g
           id="g62"
           transform="translate(224.9402,15.7383)"><path
             d="m 0,0 h -10.87 l -2.138,-7.561 h -7.362 l 11.864,36.214 h 6.342 L 9.477,-7.561 H 2.114 Z m -9.153,5.945 h 7.511 l -3.707,13.331 z"
             style="fill:#444141;fill-opacity:1;fill-rule:nonzero;stroke:none"
             id="path64" /></g><g
           id="g66"
           transform="translate(238.6687,8.1777)"><path
             d="m 0,0 v 36.214 h 12.163 c 1.974,0 3.769,-0.199 5.385,-0.598 1.616,-0.397 2.996,-1.004 4.14,-1.815 1.145,-0.812 2.027,-1.84 2.65,-3.085 0.622,-1.242 0.932,-2.711 0.932,-4.401 -0.017,-1.692 -0.469,-3.211 -1.356,-4.552 -0.887,-1.344 -2.193,-2.365 -3.917,-3.062 1.045,-0.264 1.948,-0.661 2.712,-1.192 0.762,-0.53 1.396,-1.155 1.902,-1.877 0.505,-0.722 0.879,-1.511 1.119,-2.363 0.24,-0.855 0.361,-1.738 0.361,-2.65 0,-1.741 -0.298,-3.275 -0.895,-4.601 C 24.599,4.691 23.744,3.581 22.635,2.686 21.522,1.791 20.172,1.118 18.579,0.67 16.987,0.222 15.197,0 13.207,0 Z m 7.015,21.016 h 5.197 c 1.94,0.017 3.433,0.424 4.477,1.218 1.044,0.796 1.576,1.965 1.591,3.507 0,1.693 -0.522,2.906 -1.566,3.645 -1.045,0.738 -2.554,1.115 -4.527,1.132 H 7.015 Z m 0,-5.05 V 5.646 h 6.217 c 1.907,0.015 3.361,0.484 4.365,1.403 1.004,0.922 1.506,2.128 1.506,3.621 0.016,1.658 -0.433,2.95 -1.345,3.88 -0.911,0.928 -2.321,1.4 -4.229,1.416 z"
             style="fill:#444141;fill-opacity:1;fill-rule:nonzero;stroke:none"
             id="path68" /></g></g></g></g></svg>
